<svg width="274" height="56" viewBox="0 0 274 56" fill="none" xmlns="http://www.w3.org/2000/svg">
<g clip-path="url(#clip0)">
<path d="M48.8086 23.2092H50.4088C51.391 23.2092 52.025 22.6176 52.025 21.6015C52.025 20.6152 51.5101 19.9667 50.4088 19.9667H48.8086V23.2092ZM48.8086 17.7257H50.2771C51.246 17.7257 51.8602 17.2913 51.8602 16.3619C51.8602 15.4496 51.1985 14.9519 50.2771 14.9519H48.8086V17.7257ZM43.8704 26.0616V24.4999C44.4246 24.2841 44.7452 23.8568 44.7658 23.3845V14.6954C44.7452 14.2212 44.4246 13.7949 43.8704 13.5817V12.0201H50.8117C52.0563 12.0201 53.4487 12.0029 54.525 12.5945C55.7141 13.234 56.1063 14.4127 56.1063 15.577C56.1063 17.1802 55.3793 18.2812 53.5974 18.7202V18.7536C55.6407 18.9839 56.3454 20.4264 56.3454 22.0657C56.3454 23.2119 56.0472 24.4882 55.0094 25.227C53.8767 26.0445 52.4261 26.0634 51.0356 26.0634H43.8704V26.0616Z" fill="#1F4396"/>
<path d="M63.0405 21.3793C62.2606 21.6593 60.6354 22.0026 60.6354 22.9193C60.6354 23.4297 60.8807 24.0159 61.6723 24.0159C62.377 24.0159 62.5417 23.9301 63.0396 23.623L63.0405 21.3793ZM63.2957 25.275C62.3671 25.9623 61.195 26.2739 59.988 26.2739C57.9437 26.2739 56.9265 25.0022 56.9265 23.3276C56.9265 21.261 58.0745 20.6541 60.0435 20.0814L62.9814 19.2784V18.3373C62.9814 17.8288 62.5167 17.4115 61.9042 17.4115C61.1995 17.4115 60.7115 17.8297 60.7115 18.3373V19.3435H57.4091V17.0944C58.9153 16.1461 60.5449 15.5273 62.3644 15.5273C63.5348 15.5273 64.5126 15.6899 65.4975 16.3466C66.7234 17.1983 66.7413 18.2813 66.7234 19.4771V23.2888C66.7234 23.8298 66.6669 24.304 67.2606 24.6806L67.5248 26.0635H63.5607" fill="#1F4396"/>
<path d="M134.818 23.2092H136.418C137.402 23.2092 138.034 22.6176 138.034 21.6015C138.034 20.6152 137.518 19.9667 136.418 19.9667H134.818V23.2092ZM134.818 17.7257H136.287C137.257 17.7257 137.869 17.2913 137.869 16.3619C137.869 15.4496 137.209 14.9519 136.287 14.9519H134.818V17.7257ZM129.879 26.0616V24.4999C130.437 24.2841 130.756 23.8568 130.774 23.3845V14.6954C130.755 14.2212 130.436 13.7949 129.879 13.5817V12.0201H136.823C138.067 12.0201 139.461 12.0029 140.537 12.5945C141.725 13.234 142.117 14.4127 142.117 15.577C142.117 17.1802 141.392 18.2812 139.608 18.7202V18.7536C141.651 18.9839 142.356 20.4264 142.356 22.0657C142.356 23.2119 142.058 24.4882 141.021 25.227C139.887 26.0445 138.436 26.0634 137.046 26.0634H129.879V26.0616Z" fill="#1F4396"/>
<path d="M148.991 21.3793C148.213 21.6593 146.589 22.0026 146.589 22.9193C146.589 23.4297 146.832 24.0159 147.622 24.0159C148.328 24.0159 148.494 23.9301 148.99 23.623L148.991 21.3793ZM149.247 25.275C148.318 25.9623 147.145 26.2739 145.936 26.2739C143.895 26.2739 142.877 25.0022 142.877 23.3276C142.877 21.261 144.024 20.6541 145.994 20.0814L148.931 19.2784V18.3373C148.931 17.8288 148.467 17.4115 147.855 17.4115C147.149 17.4115 146.66 17.8297 146.66 18.3373V19.3435H143.36V17.0944C144.863 16.1461 146.492 15.5273 148.315 15.5273C149.483 15.5273 150.462 15.6899 151.447 16.3466C152.672 17.1983 152.691 18.2813 152.672 19.4771V23.2888C152.672 23.8298 152.615 24.304 153.21 24.6806L153.475 26.0635H149.508L149.247 25.275Z" fill="#1F4396"/>
<path d="M72.5249 16.3782C73.7328 15.6628 74.9515 15.5039 75.5479 15.5264C76.4612 15.5581 77.1256 15.8227 77.5724 16.2138C78.3693 16.8867 78.4625 17.6382 78.4625 18.5242V23.2039C78.4625 23.7106 78.6693 24.2832 79.2451 24.5623V26.0617H74.8485C74.588 25.0121 74.6068 23.9147 74.6068 22.8507V19.2531C74.6068 19.189 74.6605 18.7148 74.476 18.3364C74.1779 17.9435 73.4302 17.6499 72.7067 17.9435V23.3204C72.7067 23.8271 72.6503 24.4015 73.2457 24.6788V26.0617H68.0496V24.6788C68.6262 24.3853 68.851 23.9084 68.851 23.3845V18.7446C68.851 18.1891 68.6083 17.826 68.0496 17.4666V15.7387H72.5231" fill="#1F4396"/>
<path d="M158.639 16.3782C159.846 15.6628 161.067 15.5039 161.666 15.5264C162.576 15.5581 163.242 15.8227 163.69 16.2138C164.488 16.8867 164.58 17.6382 164.58 18.5242V23.2039C164.58 23.7106 164.787 24.2832 165.362 24.5623V26.0617H160.963C160.704 25.0121 160.723 23.9147 160.723 22.8507V19.2531C160.723 19.189 160.779 18.7148 160.593 18.3364C160.295 17.9435 159.548 17.6499 158.823 17.9435V23.3204C158.823 23.8271 158.769 24.4015 159.364 24.6788V26.0617H154.167V24.6788C154.742 24.3853 154.968 23.9084 154.968 23.3845V18.7446C154.968 18.1891 154.723 17.826 154.167 17.4666V15.7387H158.638" fill="#1F4396"/>
<path d="M86.1882 18.1061C85.9877 17.9841 85.3053 17.9047 85.0519 17.9047C83.7831 17.9047 83.6121 19.0003 83.6121 19.5603V21.9448C83.6121 22.475 83.8539 23.772 85.0698 23.772C85.2883 23.772 85.9877 23.7088 86.1891 23.6004L86.1882 18.1061ZM90.8489 17.117C90.2732 17.4305 90.0475 17.8749 90.0475 18.3969V25.5848C90.0475 26.749 90.1039 28.3207 89.0822 29.1896C88.0785 30.0603 86.7846 30.2057 85.4477 30.2057C83.4975 30.2057 82.1597 29.5364 80.4513 28.7018V26.749H83.9936C83.9936 26.8656 84.0124 27.5059 84.1243 27.739C84.2523 27.9666 84.7206 28.1274 85.0743 28.1274C86.0387 28.1274 86.1918 26.7653 86.1918 26.1746V25.5198C85.411 26.0436 84.3132 26.2739 83.4796 26.2739C80.5865 26.2739 79.8728 24.3934 79.8728 22.1318V20.1085C79.8728 17.8649 80.1217 15.5247 83.2727 15.5247C84.3141 15.5247 85.4665 15.773 86.3037 16.3285V15.7396H90.8498V17.117H90.8489Z" fill="#1F4396"/>
<path d="M95.6028 19.1684L97.0113 18.1143C97.5082 17.6329 97.6255 17.0503 97.6255 16.1498V15.7397H101.798V17.1199C101.651 17.1885 101.242 17.3348 100.926 17.6781L98.5362 19.8007L100.926 23.2726C101.224 23.8101 101.447 24.3863 102.154 24.6817V26.0636H98.4287L95.6413 21.571H95.6036V23.3214C95.6036 23.8769 95.8123 24.3032 96.406 24.6817V26.0636H91.208V24.6817C91.7659 24.3032 92.0103 23.9419 92.0103 23.3865V14.7625C92.0103 14.2043 91.8017 13.7797 91.208 13.4022V12.0203H95.6036" fill="#1F4396"/>
<path d="M170.33 19.1684L171.738 18.1143C172.237 17.6329 172.352 17.0503 172.352 16.1498V15.7397H176.525V17.1199C176.377 17.1885 175.969 17.3348 175.652 17.6781L173.26 19.8007L175.652 23.2726C175.951 23.8101 176.175 24.3863 176.881 24.6817V26.0636H173.155L170.369 21.571H170.33V23.3214C170.33 23.8769 170.538 24.3032 171.132 24.6817V26.0636H165.936V24.6817C166.492 24.3032 166.737 23.9419 166.737 23.3865V14.7625C166.737 14.2043 166.53 13.7797 165.936 13.4022V12.0203H170.33" fill="#1F4396"/>
<path d="M117.333 19.1684L118.74 18.1143C119.239 17.6329 119.355 17.0503 119.355 16.1498V15.7397H123.529V17.1199C123.382 17.1885 122.97 17.3348 122.657 17.6781L120.263 19.8007L122.657 23.2726C122.956 23.8101 123.179 24.3863 123.882 24.6817V26.0636H120.16L117.372 21.571H117.333V23.3214C117.333 23.8769 117.541 24.3032 118.135 24.6817V26.0636H112.938V24.6817C113.494 24.3032 113.739 23.9419 113.739 23.3865V14.7625C113.739 14.2043 113.531 13.7797 112.938 13.4022V12.0203H117.332" fill="#1F4396"/>
<path d="M106.128 22.9789C106.128 23.5362 106.551 24.3879 107.376 24.3879C108.295 24.3879 108.642 23.5362 108.642 22.9789V18.9523C108.642 18.395 108.332 17.4105 107.392 17.4105C106.45 17.4105 106.128 18.3788 106.128 18.9523V22.9789ZM112.601 22.128C112.601 23.2769 112.565 24.5695 111.505 25.3733C110.446 26.1745 108.888 26.2739 107.551 26.2739C106.341 26.2739 104.633 26.1898 103.612 25.5847C102.181 24.751 102.181 23.4883 102.181 22.128V19.4418C102.181 18.3255 102.201 17.1151 103.298 16.3619C104.355 15.6239 105.786 15.5264 107.104 15.5264C108.293 15.5264 110.075 15.6059 111.097 16.1324C112.508 16.8857 112.601 18.1313 112.601 19.4428V22.128Z" fill="#1F4396"/>
<path d="M273.618 50.1894C273.639 51.7719 273.4 51.8044 272.626 51.9733H263.193C262.5 52.013 261.861 51.5867 261.821 50.8099L261.84 38.2226C261.684 37.9471 261.546 37.6526 261.214 37.5858C260.921 37.565 260.62 37.6319 260.465 37.836L260.242 38.3373L260.227 50.5552C260.227 51.3311 259.904 52.0582 258.671 51.9724H249.96C249.437 52.0121 248.153 51.9886 248.114 50.7711L248.195 38.3364C248.103 37.9028 248.222 37.4756 247.385 37.4756L246.236 37.4187C245.629 37.4756 245.58 37.0872 245.58 36.7539V34.1373C245.684 33.6396 245.852 33.5457 247.124 33.5457H252.637C253.518 33.5457 253.403 34.5284 253.403 34.5284L253.433 47.1085C253.502 47.3768 253.544 47.7615 253.856 47.8763C254.199 48.0795 254.505 48.0244 254.888 47.9359C254.888 47.9359 255.354 47.7661 255.354 47.0381L255.324 35.9067C255.342 35.0956 255.371 33.8112 257.096 33.561C258.524 33.561 263.117 33.5421 264.856 33.561C265.75 33.561 266.614 33.7435 266.82 34.6774L266.826 47.4924C266.897 47.7173 267.074 47.9684 267.326 48.0777C267.774 48.1879 268.086 48.1255 268.293 47.8311L268.451 47.5538L268.56 43.7006L268.543 34.5058C268.543 33.8401 268.491 33.5068 269.374 33.5068H272.846C273.42 33.5448 273.618 33.7868 273.644 34.3405L273.618 50.1894Z" fill="#1F4396"/>
<path d="M244.051 51.1587C244.09 51.931 243.626 51.9734 243.326 51.931H239.497C239.497 51.931 238.774 52.0132 238.774 51.0693L238.734 38.2399C238.666 37.8334 238.518 37.7847 238.178 37.5137C237.666 37.3303 237.41 37.4035 236.844 37.4469C235.88 37.7612 236.309 38.9869 236.196 39.8278L236.18 50.2582C236.18 51.5001 236.309 51.9319 235.244 51.9319H225.291C224.548 51.9436 223.752 51.8894 223.758 50.1706L223.723 38.192C223.625 37.7612 223.548 37.3421 222.957 37.3349C222.957 37.3349 221.926 37.3782 221.458 37.3367C220.953 37.2987 220.953 36.6981 220.953 36.6981L220.962 34.0661C220.962 33.5088 221.792 33.5088 221.792 33.5088L227.845 33.5232C227.845 33.5232 228.697 33.6118 228.78 34.5529L228.803 47.386C228.78 47.7039 229.067 47.9785 229.295 48.1374C229.7 48.3172 230.309 48.2702 230.691 48.0932C230.985 47.9107 231.12 47.7283 231.077 47.2956L231.098 35.065C231.19 34.5005 231.294 33.5639 232.446 33.5639H241.546C243.508 33.5088 244.062 33.899 244.062 35.402L244.051 51.1587Z" fill="#1F4396"/>
<path d="M221.294 51.6284C221.294 52.0132 221.001 51.9734 220.693 51.9861L214.152 51.9725C213.465 52.0123 213.307 51.7711 213.09 51.3267L213.065 33.9758C213.065 33.9758 213.02 33.5449 213.475 33.5449H217.883L218.374 33.8854L218.324 47.0987C218.371 47.6163 218.324 48.0851 218.823 48.2648C218.823 48.2648 220.495 48.2792 220.913 48.2792C221.343 48.2792 221.322 48.786 221.322 48.786L221.294 51.6284Z" fill="#1F4396"/>
<path d="M210.88 50.2509C210.724 50.9996 210.346 51.7728 209.584 51.9733C209.584 51.9733 196.849 51.9462 196.874 51.9426C195.854 51.9462 195.742 51.5371 195.488 50.8804C195.488 50.8804 195.501 46.4826 195.529 44.3564C195.529 44.1035 195.848 43.6998 196.044 43.6528C196.585 43.6031 199.987 43.6329 199.987 43.6329C200.653 43.6329 200.612 44.0204 200.705 44.5217V47.5213C200.857 47.6396 200.926 48.1355 201.697 48.1355L204.744 48.1445C205.339 48.1906 205.487 47.7561 205.579 47.3262L205.601 38.3039C205.667 37.7791 205.344 37.2562 204.456 37.2932L202.232 37.3275C201.813 37.2932 201.265 37.4585 201.205 36.6817C201.205 36.6817 201.205 34.9547 201.195 33.7038L201.462 33.543L209.481 33.5042C210.181 33.6667 210.795 33.842 210.854 34.8978L210.88 50.2509Z" fill="#1F4396"/>
<path d="M193.303 50.6917C193.37 51.6555 192.546 51.8081 191.96 51.9653L184.118 51.9391C183.755 51.987 183.481 51.9797 183.438 51.5245C183.413 51.0025 183.438 49.7994 183.438 48.6351C183.438 48.6351 183.329 48.0796 184.043 48.0796L187.315 48.0444C187.922 48.0444 188.201 47.7111 188.144 47.0996C188.144 47.0996 188.109 44.6465 188.144 43.8724C188.051 43.4415 187.768 43.1417 187.315 42.9818L179.718 42.9637C178.692 42.9637 178.25 42.5166 178.181 41.552L178.206 35.4534C178.118 34.0489 178.823 33.5657 180.034 33.5657H192.668C192.867 33.6135 193.435 33.5377 193.435 34.5674V36.7884C193.435 37.6248 192.668 37.4938 192.185 37.5272L183.935 37.5715C183.528 37.7088 183.374 38.0222 183.328 38.4286C183.264 38.8414 183.508 39.0672 183.779 39.3192C184.294 39.5378 184.991 39.3617 185.557 39.4746L192.286 39.4231C193.239 39.4872 193.302 40.0653 193.302 41.2277V50.6917" fill="#1F4396"/>
<path d="M193.242 61.3951C192.856 61.7383 192.326 61.6028 191.871 61.695L188.661 61.6435C188.502 61.5342 188.209 61.6028 188.209 61.3273C187.873 60.1504 188.791 58.2013 187.416 57.5853C186.228 57.317 184.833 57.5853 183.67 57.3387C183.532 56.2503 183.579 55.0454 183.626 53.939L183.822 53.7511C186.502 53.6888 189.177 53.6888 191.849 53.7511C192.345 53.9832 192.883 54.1855 193.113 54.7302C193.242 55.0454 193.335 55.4121 193.355 55.7725L193.242 61.3951Z" fill="#1F4396"/>
<path d="M176.378 51.3377C176.378 51.3377 176.408 51.9736 175.863 51.9736H171.829C171.162 51.9736 171.325 51.41 171.278 51.1363L171.281 38.9427C171.231 38.3511 170.727 37.7153 170.14 37.5346H166.614C165.843 37.5346 165.817 37.9429 165.752 38.1858L165.732 51.6024C165.732 51.6024 165.869 51.9736 165.158 51.9736C165.158 51.9736 161.2 52.0693 160.785 52.0224C160.355 51.9736 160.432 51.3784 160.432 51.3784V34.2496C160.377 33.751 160.713 33.5469 161.373 33.5469H173.835C175.707 33.5469 176.378 33.9795 176.378 36.3189V51.3377" fill="#1F4396"/>
<path d="M157.77 50.9159C157.77 51.6403 157.604 51.9736 156.722 51.9736C156.722 51.9736 148.509 51.9781 148.454 51.9736C147.349 51.9736 147.478 51.6719 147.478 51.4922C147.478 51.4922 147.426 49.655 147.426 48.8755C147.426 48.1033 147.971 47.9913 147.971 47.9913L151.281 47.9877C151.629 48.0003 152.438 48.2107 152.438 47.2624V44.6484C152.438 43.5384 152.273 43.4282 151.451 43.3731L143.955 43.3866C143.795 43.2051 143.503 43.3415 143.325 43.2277C142.781 43 142.513 42.4997 142.403 41.9595V35.4942C142.353 34.5829 142.627 33.5469 145.052 33.5469L155.956 33.5622C157.197 33.5622 157.735 33.3608 157.735 34.5296V37.092C157.735 37.867 157.183 37.8119 156.357 37.7559L148.739 37.764C148.429 37.8553 148.09 37.9438 147.91 38.2391C147.8 38.5787 147.75 39.0809 147.932 39.4178L148.356 39.6915L156.413 39.6455C157.401 39.7547 157.797 41.1412 157.777 41.7997L157.77 50.9159Z" fill="#1F4396"/>
<path d="M140.565 51.1027C140.565 51.1027 140.706 51.9735 139.825 51.9735H136.075C135.467 51.9735 135.305 51.3602 135.305 51.3602L135.318 38.8297C135.297 38.4467 135.352 37.7675 134.586 37.6736L131.136 37.6447C129.978 37.7007 130.418 38.3095 130.308 38.6996C130.308 38.6996 130.585 39.6453 129.591 39.4791H125.622C125.622 39.4791 125.02 39.5342 125.02 38.9236V34.5827C125.072 33.2487 125.952 33.5467 126.614 33.5467L139.091 33.5648C139.74 33.6813 140.418 34.2278 140.58 34.8916L140.565 51.1027Z" fill="#1F4396"/>
<path d="M101.509 51.1027C101.509 51.1027 101.65 51.9735 100.77 51.9735H97.022C96.414 51.9735 96.2484 51.3602 96.2484 51.3602L96.2618 38.8297C96.2385 38.4467 96.2976 37.7675 95.5294 37.6736L92.0811 37.6447C90.9233 37.7007 91.3639 38.3095 91.2537 38.6996C91.2537 38.6996 91.5295 39.6453 90.5347 39.4791H86.5671C86.5671 39.4791 85.96 39.5342 85.96 38.9236V34.5827C86.0173 33.2487 86.8993 33.5467 87.5574 33.5467L100.034 33.5648C100.684 33.6813 101.366 34.2278 101.524 34.8916L101.509 51.1027Z" fill="#1F4396"/>
<path d="M123.201 51.1586C123.201 51.1586 123.232 51.9733 122.626 51.9733C121.576 51.9733 118.876 51.9895 118.549 51.9733C118.016 51.9426 117.962 51.2155 117.962 51.2155L118.016 38.853C117.963 38.4908 117.808 38.0862 117.475 37.9028L116.981 37.7439H109.161C108.751 37.8586 108.482 38.1305 108.347 38.4899L108.369 47.0155C108.411 47.4057 108.728 47.7001 109.07 47.8745C109.563 47.813 110.012 47.991 110.392 47.7218L110.661 47.2892L110.707 41.2547C110.731 40.8519 110.521 39.9785 111.734 39.8086H115.813C116.748 39.8086 116.748 40.3126 116.748 40.3126C116.794 41.3505 116.748 43.0937 116.748 43.0937C116.805 43.5363 115.978 43.5363 115.586 43.5245C115.297 43.5706 114.986 43.8208 115.041 44.5388V50.9888C114.931 51.9417 113.718 51.9471 113.087 51.9724H105.373C104.742 51.8324 103.903 51.9417 103.738 50.8217L103.762 34.5934C103.848 33.8013 104.523 33.561 105.156 33.561H121.827C122.384 33.7426 122.644 34.0948 122.935 34.6566C123.074 35.0026 123.118 35.4045 123.208 35.7676L123.201 51.1586Z" fill="#1F4396"/>
<path d="M89.864 51.9427L81.113 51.9734C80.1191 51.9734 79.9328 51.1967 79.7314 50.6972C79.6615 49.0407 79.7314 47.3173 79.5263 45.7078C79.4609 45.4142 79.238 45.2534 78.9649 45.1848C78.6721 45.164 78.4715 45.3212 78.2673 45.435L78.0202 45.9399L77.9951 50.5427C78.0506 51.9436 77.2537 51.9436 76.6171 51.9436L68.0416 51.9472C67.5697 51.8307 67.1623 51.5832 66.9187 51.1705C66.4683 49.8355 66.6689 48.207 66.6035 46.7998C66.6259 43.9365 66.5803 41.1031 66.4486 38.3176C66.1567 37.501 64.476 37.6591 64.476 37.6591C64.1537 37.754 63.8232 37.5869 63.8232 37.1452L63.8617 34.4725C63.8823 33.992 63.9549 33.6235 64.1008 33.5088H70.1646C70.9472 33.6235 71.4585 34.2558 71.6842 35.0289C71.7236 35.644 71.7934 37.1398 71.7934 37.1398C71.8382 39.1774 72.02 47.1854 72.02 47.1854C72.1068 47.4329 72.3101 47.6623 72.5366 47.8195C72.8706 47.8863 73.2753 47.8863 73.5252 47.6623L73.7723 47.1159C73.8386 45.3916 73.4347 43.4416 73.9505 41.832C74.5809 40.9469 75.8595 41.1031 76.8329 41.0841C77.5474 41.0841 78.6031 41.1727 79.3463 40.8565L79.503 40.423C79.503 40.423 79.5075 34.6803 79.4797 34.2503C79.4269 33.3598 79.8675 33.5485 79.8675 33.5485H84.1127C84.6651 33.5485 84.829 33.6958 84.7762 34.2503L84.8138 40.6804C84.9006 40.8114 84.992 40.9243 85.1496 41.0101L89.4324 41.1727C90.1443 41.2585 90.6376 41.4807 90.8042 42.205L90.8087 50.6791C90.8015 51.5435 90.523 51.9427 89.864 51.9427ZM86.6503 47.274C86.6978 46.639 86.8554 45.8189 86.3136 45.3898C86.1113 45.2336 85.7728 45.2336 85.4594 45.2336C85.077 45.2525 84.9195 45.6183 84.8559 45.939C84.8559 46.6381 84.7404 47.5214 85.3887 47.8177C85.6618 47.9749 86.0226 47.8349 86.3136 47.7707C86.5169 47.6759 86.5849 47.4989 86.6503 47.274Z" fill="#1F4396"/>
<path d="M62.0727 49.96C62.0056 50.576 61.6886 51.2073 61.1522 51.5262C60.7036 51.7998 60.3589 51.948 59.7956 51.9733H47.1514C46.0518 51.8315 44.9155 51.6951 44.3961 50.5823C44.2421 48.8553 44.1051 47.0118 44.2421 45.2406L44.7292 44.9977C46.2586 44.9498 48.2232 44.9299 49.4508 44.9977C49.989 45.8548 49.1347 47.468 50.4152 47.8049C52.1469 47.9449 54.1016 47.9015 55.8979 47.8546C56.1728 47.832 56.4002 47.7398 56.642 47.6486C57.2267 46.8755 56.8434 45.6543 56.9563 44.7267C57.0243 44.2697 56.7315 43.8605 56.4163 43.6808C55.1153 43.4531 53.6324 43.5678 52.2812 43.5895L45.81 43.6808C44.9988 43.4531 44.4373 42.8642 44.3039 42.0233C44.2341 39.7842 44.2341 37.714 44.3039 35.4722C44.414 34.3838 44.6836 33.7986 45.6309 33.5457H61.2856C61.5319 33.6125 62.0047 33.8013 61.9482 34.4155V37.3103C61.9482 37.3103 61.9482 37.8107 61.0663 37.8107C60.3508 37.8107 50.3713 37.8558 50.3713 37.8558C50.0803 37.8748 49.766 38.1485 49.6756 38.4411C49.6756 38.7835 49.6075 39.1448 49.8976 39.3724L50.305 39.5982C53.9924 39.7535 56.9921 39.4853 60.7914 39.6903C61.5131 39.87 61.9832 40.4842 62.0476 41.2131L62.0727 49.96Z" fill="#1F4396"/>
<path d="M40.4453 29.3811C39.9457 27.4753 39.223 26.0645 38.0572 23.9094C37.6766 23.2979 37.1851 22.6151 36.7463 21.8907C31.6773 14.309 21.6763 1.07766 20.7612 0.227729C20.7612 0.227729 20.6985 0.178955 20.6475 0.178955C20.5902 0.178955 20.5266 0.227729 20.5266 0.227729C19.6168 1.07676 9.61314 14.309 4.54235 21.8907C4.10448 22.616 3.61289 23.2988 3.22876 23.9094C2.0647 26.0645 1.34478 27.4753 0.84245 29.3811C0.221025 32.1333 0.189685 35.5556 0.754698 38.3691C1.26509 40.8386 3.5914 43.3613 5.93115 45.2454L9.51195 48.114C9.51195 48.114 19.5201 55.3931 20.4496 55.8529C20.4496 55.8529 20.5418 55.9143 20.6466 55.9143C20.7486 55.9143 20.8373 55.8529 20.8373 55.8529C21.7703 55.3922 31.7722 48.114 31.7722 48.114L35.353 45.2454C37.6954 43.3613 40.0191 40.8386 40.5286 38.3691C41.0945 35.5556 41.0685 32.1333 40.4453 29.3811ZM17.5099 48.367C17.4392 48.4753 17.2771 48.441 17.1607 48.4302C16.576 48.0156 15.1263 46.957 15.1263 46.957C12.6343 45.0937 10.1208 43.3739 7.73185 41.4582C4.06598 37.3882 4.43758 33.3273 5.56134 29.2466C5.60163 28.9837 5.72252 28.5854 6.06725 28.5141C7.10057 30.0522 9.29258 33.2208 9.29258 33.2208C11.4255 36.3134 14.0159 39.1008 16.4649 42.0046C18.1465 43.5627 17.4669 46.1793 17.5099 48.367ZM20.6501 40.2975C20.6 40.2957 20.5194 40.2614 20.4433 40.1819C17.2708 36.392 13.6721 32.1071 10.5148 28.3018C9.94355 27.3371 9.36152 26.4104 9.29616 25.1676C9.25855 24.1975 9.19856 23.3042 9.99459 22.0885C9.99459 22.0885 10.5202 21.3181 10.6706 21.0913C10.6706 21.0913 17.1392 11.9155 20.5454 7.56734C20.5454 7.56734 20.5902 7.50773 20.6475 7.50773C20.6958 7.50773 20.7388 7.56734 20.7388 7.56734C24.145 11.9146 30.6117 21.0913 30.6117 21.0913C30.7649 21.3181 31.2914 22.0885 31.2914 22.0885C32.0847 23.3051 32.0247 24.1975 31.9826 25.1676C31.92 26.4104 31.3352 27.3362 30.7675 28.3018C27.6085 32.1071 24.0116 36.392 20.8418 40.1819C20.7657 40.2614 20.6895 40.2957 20.6501 40.2975ZM33.5362 41.4582C31.1472 43.3739 28.6302 45.0928 26.1373 46.957C26.1373 46.957 24.6903 48.0156 24.1038 48.4302C23.9874 48.441 23.8253 48.4753 23.7573 48.367C23.8011 46.1793 23.1197 43.5636 24.8031 42.0055C27.2521 39.1017 29.8408 36.3143 31.9728 33.2217C31.9728 33.2217 34.1648 30.0531 35.199 28.515C35.5384 28.5854 35.6619 28.9846 35.7031 29.2475C36.8323 33.3273 37.2003 37.3892 33.5362 41.4582Z" fill="#1F4396"/>
</g>
<defs>
<clipPath id="clip0">
<rect width="274" height="56" fill="white"/>
</clipPath>
</defs>
</svg>
