<svg width="61" height="61" viewBox="0 0 61 61" fill="none" xmlns="http://www.w3.org/2000/svg">
<g clip-path="url(#clip0)">
<path d="M30.176 60.352C46.8417 60.352 60.352 46.8417 60.352 30.176C60.352 13.5102 46.8417 0 30.176 0C13.5102 0 0 13.5102 0 30.176C0 46.8417 13.5102 60.352 30.176 60.352Z" fill="#D80027"/>
<path d="M16.5143 18.3652L19.1193 26.3807H27.5474L20.7342 31.3433L23.3393 39.3588L16.5143 34.408L9.68934 39.3588L12.3062 31.3433L5.4812 26.3807H13.9093L16.5143 18.3652Z" fill="#FFDA44"/>
<path d="M35.7751 46.7376L33.783 44.2858L30.8361 45.4292L32.5453 42.777L30.5532 40.3135L33.6062 41.1268L35.3272 38.4746L35.4922 41.6337L38.5569 42.447L35.5983 43.5786L35.7751 46.7376Z" fill="#FFDA44"/>
<path d="M39.7356 39.5471L40.6786 36.5295L38.0972 34.7024L41.2562 34.6553L42.1874 31.6377L43.2129 34.6317L46.372 34.5964L43.8377 36.4824L44.8514 39.4764L42.2699 37.6493L39.7356 39.5471Z" fill="#FFDA44"/>
<path d="M45.0754 22.1488L43.6845 24.9896L45.9477 27.1938L42.824 26.7459L41.4331 29.5749L40.8908 26.463L37.7554 26.0151L40.5608 24.5417L40.0186 21.418L42.2818 23.6222L45.0754 22.1488Z" fill="#FFDA44"/>
<path d="M35.8576 13.5439L35.6218 16.6912L38.5569 17.8817L35.4804 18.6361L35.2564 21.7952L33.5944 19.1076L30.5178 19.862L32.5571 17.4456L30.8832 14.7698L33.8183 15.9604L35.8576 13.5439Z" fill="#FFDA44"/>
</g>
<defs>
<clipPath id="clip0">
<rect width="60.352" height="60.352" fill="white"/>
</clipPath>
</defs>
</svg>
