<svg width="150" height="60" viewBox="0 0 150 60" fill="none" xmlns="http://www.w3.org/2000/svg">
<path d="M86.5229 15.7101H88.7231C88.7231 15.7101 89.0804 15.7904 89.0804 16.0905V17.1549H89.135C89.7404 15.9544 90.9232 15.4641 92.4088 15.4641V18.0274C92.2152 18.0274 92.0515 18.0535 91.9142 18.0535C90.3741 18.2176 89.1086 19.0638 89.1086 21.1089V25.4153C89.1086 25.4153 89.1631 26.2057 88.4204 26.2057H86.5511V15.7101H86.5229Z" fill="#6F5F5F"/>
<path d="M140.071 15.7101H142.243C142.243 15.7101 142.628 15.7904 142.628 16.0905V17.1549H142.656C143.26 15.9544 144.443 15.4641 145.928 15.4641V18.0274C145.763 18.0274 145.598 18.0535 145.434 18.0535C143.894 18.2176 142.628 19.0638 142.628 21.1089V25.4153C142.628 25.4153 142.683 26.2057 141.94 26.2057H140.071V15.7101Z" fill="#6F5F5F"/>
<path d="M103.437 16.2007V25.7697C103.437 25.7697 103.437 26.1797 103.052 26.1797H100.878V25.1433H100.824C100.246 25.8796 99.2289 26.424 97.7997 26.424C96.0114 26.424 93.9204 25.6894 93.9204 22.6359V15.6825H96.0942C96.0942 15.6825 96.4796 15.7366 96.4796 16.1728V21.8978C96.4796 23.3443 97.0569 23.9707 98.377 23.9707C100.301 23.9707 100.878 22.58 100.878 21.2993V15.6545H103.024C102.997 15.7104 103.437 15.7645 103.437 16.2007Z" fill="#6F5F5F"/>
<path d="M105.94 15.7101H108.058C108.058 15.7101 108.498 15.7642 108.498 16.1725V16.7449H108.552C109.295 15.8462 110.423 15.4641 111.441 15.4641C113.944 15.4641 115.07 16.7187 115.07 19.0359V25.8235C115.07 25.8235 115.098 26.2336 114.713 26.2336H112.541V19.8263C112.541 18.8719 112.101 17.9453 110.781 17.9453C109.542 17.9453 108.524 18.7637 108.524 20.6988V25.8235C108.524 25.8235 108.524 26.2336 108.141 26.2336H105.967V15.7101H105.94Z" fill="#6F5F5F"/>
<path d="M127.09 16.1727V25.9895C127.09 28.715 124.833 30.0778 121.973 30.0778C118.618 30.0778 117.244 27.7606 117.244 26.4519H119.938C120.13 27.1882 120.847 27.7606 122.11 27.7606C123.761 27.7606 124.531 26.916 124.531 25.6335V24.5168C123.707 25.3893 122.441 25.6894 121.505 25.6894C118.867 25.6894 116.913 23.7525 116.913 20.5908C116.913 17.4273 118.867 15.4922 121.505 15.4922C123.045 15.4922 123.871 16.0104 124.476 16.745H124.531V15.7365H126.65C126.65 15.7103 127.09 15.7103 127.09 16.1727ZM122.11 17.7815C120.187 17.7815 119.636 19.4444 119.608 20.5629C119.636 21.6813 120.187 23.3442 122.11 23.3442C124.036 23.3442 124.613 21.6813 124.613 20.5629C124.587 19.4444 124.036 17.7815 122.11 17.7815Z" fill="#6F5F5F"/>
<path d="M137.897 17.6731L136.688 18.7899L136.44 19.008C136.385 18.8998 136.331 18.8178 136.248 18.7079C135.834 18.1094 135.037 17.537 133.745 17.537C132.562 17.5091 131.819 17.9174 131.819 18.5456C131.819 20.3707 138.503 18.8178 138.503 22.7979C138.503 25.3332 136.22 26.4779 133.8 26.4779C131.49 26.4779 129.839 25.7694 128.877 24.8167C128.685 24.5969 128.931 24.3805 128.931 24.3805L130.61 23.098C131.188 23.9425 132.288 24.4067 133.662 24.4067C134.872 24.4067 135.725 23.7523 135.725 23.18C135.725 21.381 129.151 22.8799 129.151 18.8719C129.151 16.5006 131.214 15.4641 133.854 15.4641C136 15.4641 137.265 16.3645 137.925 17.0171C138.256 17.3451 137.897 17.6731 137.897 17.6731Z" fill="#6F5F5F"/>
<path d="M149.998 11.7842C149.998 11.4561 149.559 11.4282 149.559 11.4282H147.414V13.6373C147.414 13.6373 147.357 13.9915 147.797 13.9915H149.998V11.7842ZM147.44 15.7102H149.614C149.614 15.7102 149.998 15.7364 149.998 16.1185V25.7695C149.998 25.7695 150.054 26.1796 149.614 26.1796H147.468V15.7102H147.44Z" fill="#6F5F5F"/>
<path d="M85.1745 15.7101H82.4252C81.9024 15.7101 81.4906 16.0905 81.4906 16.0905L77.8594 19.6623V13.9914C77.8594 13.529 77.474 13.2289 77.474 13.2289L75.302 11.4561V26.2335H77.4194C77.914 26.2335 77.8594 25.6891 77.8594 25.6891V22.8799C77.8594 22.7717 77.9422 22.6618 78.0795 22.6618C78.2713 22.6618 78.4913 22.9078 78.4913 22.9078L81.4342 25.8235C81.4342 25.8235 81.957 26.2335 82.5625 26.2335H85.1745L79.8396 20.9448L85.1745 15.7101Z" fill="#6F5F5F"/>
<path d="M85.312 35.3403C84.9547 35.4223 84.6537 35.5584 84.3773 35.7224C84.1028 35.8865 83.8827 36.1028 83.6909 36.3489C83.4973 36.6211 83.4146 36.9491 83.4146 37.3295C83.4146 37.3295 83.4146 37.9297 83.6346 38.3119C83.8 38.5841 84.0746 38.8842 84.3228 39.0744C84.5709 39.2663 84.8737 39.4303 85.1747 39.5944C85.4774 39.7287 85.7537 39.8666 86.0283 40.0288C86.2747 40.1929 86.4948 40.3569 86.6884 40.5471C86.8538 40.739 86.9348 40.9833 86.9348 41.2573C86.9348 41.4736 86.8257 41.6656 86.6056 41.8296C86.3856 41.9936 85.5337 42.1838 84.6255 41.8837C84.4055 41.8017 83.4973 41.3654 83.4973 41.3654V42.7282C83.7736 42.866 83.9919 42.9742 84.24 43.0562C84.4882 43.1383 85.0374 43.3005 85.6974 43.3005C86.6056 43.3005 87.2657 43.0824 87.7057 42.6462C88.1176 42.21 88.3658 41.6656 88.3658 41.0112C88.3658 40.7111 88.3112 40.4389 88.1739 40.2208C88.063 40.0027 87.8976 39.7846 87.7057 39.5944C87.5139 39.4024 87.3202 39.2384 87.0738 39.1023C86.8257 38.9662 86.6056 38.8301 86.3856 38.7202C86.1938 38.612 86.0002 38.53 85.8083 38.4218C85.6147 38.3398 85.451 38.2299 85.312 38.1478C85.1483 38.0397 85.0374 37.9297 84.9547 37.7675C84.8737 37.6296 84.8174 37.4673 84.8174 37.2492C84.8174 37.0573 84.8455 36.895 84.9547 36.7589C85.0374 36.6211 85.1483 36.5408 85.2856 36.457C85.4228 36.403 85.6974 36.3209 85.8629 36.3209C87.0175 36.2128 87.9539 36.731 87.9539 36.731V35.5863C87.0457 35.2583 86.111 35.1763 85.312 35.3403Z" fill="#6F5F5F"/>
<path d="M105.801 35.3403C105.444 35.4223 105.143 35.5584 104.84 35.7224C104.564 35.8865 104.318 36.1028 104.152 36.3489C103.96 36.6211 103.878 36.9491 103.878 37.3295C103.878 37.3295 103.878 37.9297 104.098 38.3119C104.261 38.5841 104.538 38.8842 104.784 39.0744C105.032 39.2663 105.335 39.4303 105.638 39.5944C105.941 39.7287 106.242 39.8666 106.49 40.0288C106.764 40.1929 106.958 40.3569 107.15 40.5471C107.315 40.739 107.398 40.9833 107.398 41.2573C107.398 41.4736 107.287 41.6656 107.067 41.8296C106.847 41.9936 105.995 42.1838 105.087 41.8837C104.867 41.8017 103.96 41.3654 103.96 41.3654V42.7282C104.235 42.866 104.455 42.9742 104.701 43.0562C104.95 43.1383 105.501 43.3005 106.161 43.3005C107.067 43.3005 107.727 43.0824 108.141 42.6462C108.581 42.21 108.801 41.6656 108.801 41.0112C108.801 40.7111 108.744 40.4389 108.635 40.2208C108.498 40.0027 108.361 39.7846 108.167 39.5944C107.975 39.4024 107.782 39.2384 107.535 39.1023C107.315 38.9662 107.067 38.8301 106.847 38.7202C106.655 38.612 106.462 38.53 106.27 38.4218C106.104 38.3398 105.941 38.2299 105.775 38.1478C105.638 38.0397 105.501 37.9297 105.418 37.7675C105.335 37.6296 105.28 37.4673 105.28 37.2492C105.28 37.0573 105.307 36.895 105.418 36.7589C105.501 36.6211 105.61 36.5408 105.747 36.457C105.884 36.403 106.161 36.3209 106.324 36.3209C107.481 36.2128 108.415 36.731 108.415 36.731V35.5863C107.535 35.2583 106.572 35.1763 105.801 35.3403Z" fill="#6F5F5F"/>
<path d="M87.6509 44.0391C87.8428 44.0391 87.9536 44.1734 87.9536 44.3654V45.9201C87.9536 46.1923 87.6509 46.3284 87.6509 46.3284L86.7427 46.8187V44.0391H87.6509Z" fill="#6F5F5F"/>
<path d="M93.3147 35.5864C93.5911 35.5864 93.7002 35.7225 93.7002 36.0209V42.6463C93.7002 43.0005 93.3429 43.0563 93.3429 43.0563H91.611L89.5481 37.9298H90.6482C91.0336 37.9298 91.1146 38.202 91.1146 38.202L92.271 41.2294V35.5864H93.3147Z" fill="#6F5F5F"/>
<path d="M108.524 33.2952C108.524 33.6494 108.443 33.7855 108.113 33.7855H103.658V33.7594L104.318 32.9131C104.318 32.9131 104.483 32.6688 104.921 32.6688H107.342V31.7963C107.342 31.4421 107.59 31.3043 107.59 31.3043L108.524 30.814V33.2952Z" fill="#6F5F5F"/>
<path d="M102.144 35.0681H101.1C100.741 35.0681 100.577 35.3124 100.577 35.3124L100.412 35.5305C99.9717 35.3403 99.4489 35.2304 98.8434 35.2304C97.7997 35.2304 97.0287 35.5026 96.506 36.0487C96.0114 36.567 95.7368 37.3574 95.7368 38.3398V43.0562H96.6714V43.0824H96.7806C97.0287 43.0824 97.1115 42.9463 97.1115 42.7561V39.7846H98.3488C98.6234 39.7846 98.6797 39.7287 98.7889 39.5944C98.817 39.5944 99.3662 38.6661 99.3662 38.6661H97.1379C97.1379 38.3398 97.1379 38.0118 97.166 37.7396C97.1942 37.4394 97.2769 37.2213 97.386 37.0032C97.4969 36.7851 97.6606 36.6211 97.8806 36.5129C98.1007 36.403 98.4316 36.321 98.8434 36.321C99.2289 36.321 99.5316 36.375 99.7798 36.485C100.026 36.5949 100.192 36.731 100.301 36.9212C100.412 37.1131 100.494 37.3295 100.521 37.6034C100.549 37.8477 100.577 38.1479 100.577 38.4759V43.0562H101.649C101.869 43.0562 101.978 42.9201 101.978 42.7282V38.3398C101.978 37.4394 101.76 36.7031 101.346 36.1848L102.144 35.0681Z" fill="#6F5F5F"/>
<path d="M80.6652 36.0488C80.1424 35.5027 79.3715 35.2305 78.3542 35.2305C77.3087 35.2305 76.5395 35.5027 76.0167 36.0488C75.494 36.5671 75.2476 37.3575 75.2476 38.3399V43.0563H76.3195C76.5395 43.0563 76.6504 42.9202 76.6504 42.7283V38.6662C76.6504 38.3399 76.6504 38.0118 76.6768 37.7396C76.7049 37.4395 76.7877 37.2214 76.8968 37.0033C77.0077 36.7852 77.1714 36.6211 77.4195 36.513C77.6396 36.403 77.9705 36.321 78.3823 36.321C78.7678 36.321 79.0705 36.3751 79.2905 36.485C79.5106 36.595 79.6743 36.7311 79.7851 36.9492C79.8943 37.1394 79.977 37.3575 80.0052 37.6297C80.0333 37.8757 80.0597 38.1759 80.0597 38.5021V43.0563H81.1052C81.3252 43.0563 81.4344 42.9202 81.4344 42.7283V38.312C81.4625 37.3296 81.1879 36.5671 80.6652 36.0488Z" fill="#6F5F5F"/>
<path d="M21.3106 34.6997C19.4414 32.7925 17.1849 29.6831 15.7821 25.1848C15.7821 25.1848 15.7275 25.0208 15.6448 25.0208C15.5621 25.0208 15.4811 25.2127 15.4811 25.2127C12.3991 35.1097 4.97498 39.0078 2.44393 39.8541C2.30664 39.9082 2.30664 40.0181 2.30664 40.0722C3.59856 43.562 5.55229 46.7237 7.99885 49.451C8.05518 49.4772 8.1379 49.533 8.27519 49.451C16.2221 44.9527 20.7614 36.1724 21.3652 34.9457C21.4215 34.8375 21.3652 34.7555 21.3106 34.6997Z" fill="#FDD405"/>
<path d="M39.3522 34.6997C39.3804 34.6997 39.3804 34.6997 39.3522 34.6997C41.2232 32.7925 43.4779 29.6831 44.9089 25.1848C44.9089 25.1848 44.9634 25.0208 45.0462 25.0208C45.1289 25.0208 45.2116 25.2127 45.2116 25.2127C48.2918 35.1097 55.716 39.0078 58.247 39.8541C58.3843 39.9082 58.3843 40.0181 58.3843 40.0722C57.0924 43.562 55.1387 46.7237 52.6921 49.451C52.6358 49.4772 52.5531 49.533 52.4158 49.451C44.4407 44.9527 39.9313 36.1724 39.3258 34.9457C39.2695 34.8375 39.3522 34.7555 39.3522 34.6997Z" fill="#FDD405"/>
<path d="M44.7433 55.5861C33.4944 44.7346 30.525 25.3488 30.525 25.3488C30.525 25.3488 30.4687 25.0208 30.3314 25.0208C30.1941 25.0208 30.1396 25.3488 30.1396 25.3488C30.1396 25.3488 27.1967 44.7346 15.9196 55.5861C15.9196 55.5861 15.8105 55.6943 15.9196 55.7763C20.128 58.0673 24.9684 59.4022 30.1114 59.4301H30.4969C35.6399 59.4022 40.4803 58.0673 44.6869 55.7763C44.8524 55.6943 44.7433 55.5861 44.7433 55.5861Z" fill="#FDD405"/>
<path d="M45.9525 4.5182C45.7888 4.43619 45.7888 4.6543 45.7888 4.6543C45.8152 8.14409 46.2834 27.4479 59.8697 33.3369C60.007 33.3927 60.0352 33.3107 60.0352 33.2828C60.1725 32.1381 60.2552 30.9917 60.2552 29.8209C60.227 19.0776 54.5067 9.72671 45.9525 4.5182Z" fill="#FDD405"/>
<path d="M14.7651 4.5182C14.9305 4.43619 14.9305 4.6543 14.9305 4.6543C14.9023 8.14409 14.4359 27.4479 0.849577 33.3369C0.738689 33.3927 0.684126 33.3107 0.684126 33.2828C0.546837 32.1381 0.464111 30.9917 0.464111 29.8209C0.464111 19.0776 6.18449 9.72671 14.7651 4.5182Z" fill="#FDD405"/>
<path d="M44.1379 3.50961C40.2604 1.49251 35.8882 0.31994 31.2116 0.183838C31.0743 0.183838 31.1025 0.346113 31.1025 0.346113C31.1025 6.23688 32.0653 20.0041 36.6856 29.3027C36.712 29.4108 36.7947 29.3568 36.8493 29.3568L36.8774 29.3288C37.3456 28.8385 44.5234 21.0144 44.2488 3.72772C44.2488 3.59162 44.1661 3.50961 44.1379 3.50961Z" fill="#FDD405"/>
<path d="M16.5534 3.50961C20.4309 1.49251 24.8312 0.31994 29.4797 0.183838C29.617 0.183838 29.5888 0.346113 29.5888 0.346113C29.5888 6.23688 28.626 20.0041 23.9793 29.3027C23.9511 29.4108 23.842 29.3568 23.842 29.3568C23.8139 29.3568 23.8139 29.3288 23.8139 29.3288C23.3457 28.8385 16.1679 21.0144 16.4425 3.72772C16.4425 3.59162 16.4988 3.50961 16.5534 3.50961Z" fill="#FDD405"/>
</svg>
