<svg width="48" height="48" viewBox="0 0 48 48" fill="none" xmlns="http://www.w3.org/2000/svg">
<path d="M18 20V38L20.306 38.768C22.7527 39.5837 25.3149 39.9997 27.894 40H35.082C36.4692 40.0001 37.8137 39.5195 38.8864 38.6399C39.9592 37.7604 40.6941 36.5363 40.966 35.176L42.464 27.684C42.6445 26.7804 42.6145 25.8475 42.3763 24.9574C42.138 24.0673 41.698 23.2441 41.0903 22.5515C40.4826 21.8589 39.7236 21.3155 38.872 20.9636C38.0205 20.6116 37.0994 20.4605 36.18 20.522L29 21L29.728 12.988C29.7049 12.2463 29.4171 11.5373 28.9168 10.9893C28.4165 10.4413 27.7365 10.0904 27 10V10C26.0906 10.0274 25.2016 10.2759 24.4099 10.724C23.6182 11.1721 22.9475 11.8064 22.456 12.572L18 20Z" fill="#FE4547"/>
<path opacity="0.366" d="M12 18H6C4.89543 18 4 18.8954 4 20V38C4 39.1046 4.89543 40 6 40H12C13.1046 40 14 39.1046 14 38V20C14 18.8954 13.1046 18 12 18Z" fill="#525D78"/>
</svg>
