<svg width="84" height="84" viewBox="0 0 84 84" fill="none" xmlns="http://www.w3.org/2000/svg">
<path d="M49 70C48.0717 70 47.1815 69.6312 46.5251 68.9749C45.8688 68.3185 45.5 67.4283 45.5 66.5V42C45.5 41.0717 45.8688 40.1815 46.5251 39.5251C47.1815 38.8687 48.0717 38.5 49 38.5H66.5C67.4283 38.5 68.3185 38.8687 68.9749 39.5251C69.6313 40.1815 70 41.0717 70 42V66.5C70 67.4283 69.6313 68.3185 68.9749 68.9749C68.3185 69.6312 67.4283 70 66.5 70H49ZM17.5 70C16.5717 70 15.6815 69.6312 15.0251 68.9749C14.3687 68.3185 14 67.4283 14 66.5V42C14 41.0717 14.3687 40.1815 15.0251 39.5251C15.6815 38.8687 16.5717 38.5 17.5 38.5H35C35.9283 38.5 36.8185 38.8687 37.4749 39.5251C38.1313 40.1815 38.5 41.0717 38.5 42V66.5C38.5 67.4283 38.1313 68.3185 37.4749 68.9749C36.8185 69.6312 35.9283 70 35 70H17.5ZM14 31.5C13.0717 31.5 12.1815 31.1313 11.5251 30.4749C10.8687 29.8185 10.5 28.9283 10.5 28V24.5C10.5 23.5717 10.8687 22.6815 11.5251 22.0251C12.1815 21.3687 13.0717 21 14 21H70C70.9283 21 71.8185 21.3687 72.4749 22.0251C73.1313 22.6815 73.5 23.5717 73.5 24.5V28C73.5 28.9283 73.1313 29.8185 72.4749 30.4749C71.8185 31.1313 70.9283 31.5 70 31.5H14Z" fill="#FE4547"/>
<path opacity="0.366" d="M50.5574 7.58772C51.3298 7.07253 52.2751 6.88525 53.1855 7.06707C54.0959 7.24888 54.8968 7.78491 55.4119 8.55722C55.9271 9.32953 56.1144 10.2749 55.9326 11.1853C55.7508 12.0957 55.2148 12.8965 54.4424 13.4117L41.9999 21.6997L29.5574 13.4117C29.175 13.1566 28.8466 12.8287 28.5909 12.4467C28.3353 12.0647 28.1573 11.636 28.0673 11.1853C27.9773 10.7345 27.9769 10.2704 28.0662 9.81946C28.1556 9.36854 28.3329 8.93963 28.5879 8.55722C28.843 8.17481 29.171 7.84639 29.553 7.59071C29.935 7.33503 30.3636 7.15709 30.8144 7.06707C31.2652 6.97704 31.7293 6.97668 32.1802 7.06602C32.6311 7.15535 33.06 7.33262 33.4424 7.58772L41.9999 13.2997L50.5574 7.58772Z" fill="#525D78"/>
</svg>
