<svg width="62" height="61" viewBox="0 0 62 61" fill="none" xmlns="http://www.w3.org/2000/svg">
<g clip-path="url(#clip0)">
<path d="M30.9533 60.352C47.6191 60.352 61.1293 46.8417 61.1293 30.176C61.1293 13.5102 47.6191 0 30.9533 0C14.2876 0 0.777344 13.5102 0.777344 30.176C0.777344 46.8417 14.2876 60.352 30.9533 60.352Z" fill="#F0F0F0"/>
<path d="M7.0153 11.8052C4.64495 14.8891 2.85761 18.4437 1.81689 22.3051H17.5152L7.0153 11.8052Z" fill="#0052B4"/>
<path d="M60.0897 22.305C59.049 18.4437 57.2615 14.8891 54.8913 11.8052L44.3916 22.305H60.0897Z" fill="#0052B4"/>
<path d="M1.81689 38.0483C2.85773 41.9097 4.64507 45.4642 7.0153 48.5481L17.5149 38.0483H1.81689Z" fill="#0052B4"/>
<path d="M49.325 6.23856C46.2411 3.86821 42.6867 2.08087 38.8252 1.04004V16.7383L49.325 6.23856Z" fill="#0052B4"/>
<path d="M12.5815 54.1143C15.6655 56.4847 19.22 58.272 23.0814 59.3129V43.6147L12.5815 54.1143Z" fill="#0052B4"/>
<path d="M23.0813 1.04004C19.2199 2.08087 15.6654 3.86821 12.5815 6.23844L23.0813 16.7381V1.04004Z" fill="#0052B4"/>
<path d="M38.8254 59.3129C42.6868 58.272 46.2413 56.4847 49.3251 54.1144L38.8254 43.6147V59.3129Z" fill="#0052B4"/>
<path d="M44.3916 38.0483L54.8913 48.5482C57.2615 45.4643 59.049 41.9097 60.0897 38.0483H44.3916Z" fill="#0052B4"/>
<path d="M60.8739 26.24H34.8895H34.8894V0.255435C33.6009 0.087699 32.2873 0 30.9533 0C29.6191 0 28.3057 0.087699 27.0174 0.255435V26.2398V26.2399H1.03278C0.865043 27.5284 0.777344 28.842 0.777344 30.176C0.777344 31.5102 0.865043 32.8236 1.03278 34.1119H27.0171H27.0172V60.0965C28.3057 60.2643 29.6191 60.352 30.9533 60.352C32.2873 60.352 33.6009 60.2644 34.8893 60.0965V34.1122V34.1121H60.8739C61.0416 32.8236 61.1293 31.5102 61.1293 30.176C61.1293 28.842 61.0416 27.5284 60.8739 26.24Z" fill="#D80027"/>
<path d="M38.8254 38.0489L52.291 51.5145C52.9103 50.8954 53.5011 50.2482 54.0648 49.5772L42.5364 38.0488H38.8254V38.0489Z" fill="#D80027"/>
<path d="M23.0814 38.0488H23.0812L9.61572 51.5143C10.2348 52.1336 10.8821 52.7244 11.553 53.2881L23.0814 41.7594V38.0488Z" fill="#D80027"/>
<path d="M23.0814 22.3048V22.3046L9.61582 8.83887C8.99651 9.45795 8.40572 10.1052 7.84204 10.7761L19.3706 22.3047H23.0814V22.3048Z" fill="#D80027"/>
<path d="M38.8254 22.3044L52.2911 8.83861C51.672 8.21929 51.0248 7.6285 50.3538 7.06494L38.8254 18.5935V22.3044Z" fill="#D80027"/>
</g>
<defs>
<clipPath id="clip0">
<rect width="60.352" height="60.352" fill="white" transform="translate(0.777344)"/>
</clipPath>
</defs>
</svg>
