<svg width="141" height="19" viewBox="0 0 141 19" fill="none" xmlns="http://www.w3.org/2000/svg">
<g clip-path="url(#clip0)">
<path d="M59.8315 18.4085V3.32022L71.473 2.8435C71.7562 2.83192 72.0393 2.82568 72.3026 2.82568C74.4565 2.82568 76.029 3.21329 76.9775 3.97693C77.3565 4.31951 77.651 4.73652 77.8404 5.19845C78.0298 5.66038 78.1093 6.15595 78.0734 6.6501V6.83544C78.0884 7.74043 77.7249 8.61453 77.0615 9.26802C76.4092 9.9056 75.5736 10.3491 74.6576 10.544C75.6044 10.6276 76.4978 10.9962 77.206 11.5955C77.543 11.9375 77.8042 12.3397 77.9742 12.7784C78.1442 13.2171 78.2197 13.6835 78.1961 14.1501V16.1176C78.179 16.4499 78.2072 16.7829 78.2801 17.1084C78.3095 17.2626 78.3666 17.4109 78.449 17.5468V17.6484L73.2399 17.8605C73.1974 17.725 73.17 17.627 73.1559 17.5602C73.1245 17.3321 73.1103 17.1023 73.1134 16.8723V15.6123C73.1222 15.1922 73.0727 14.7728 72.9662 14.3649C72.8861 14.0635 72.7176 13.7896 72.4801 13.5745C71.9023 13.1928 71.2004 13.0158 70.498 13.0746C70.3895 13.0746 70.2762 13.0746 70.1611 13.0817L64.8679 13.2992V18.2071L59.8315 18.4085ZM71.02 6.47902C70.9482 6.47902 70.8737 6.47902 70.7982 6.48347L64.8717 6.72406V9.58257L70.7982 9.3402C71.3837 9.3607 71.9584 9.18629 72.4216 8.84744C72.563 8.71274 72.672 8.55085 72.7413 8.3728C72.8105 8.19474 72.8383 8.0047 72.8227 7.8156V7.77639C72.8375 7.5987 72.8091 7.42015 72.7396 7.25443C72.6701 7.08871 72.5613 6.9402 72.4216 6.82029C72.0061 6.56567 71.514 6.44585 71.02 6.47902Z" fill="white"/>
<path d="M80.0564 17.5795L87.1844 2.19902L93.8262 1.92725L101.188 16.7134L95.8083 16.9344L94.5813 14.3682L86.2934 14.7077L85.0956 17.3728L80.0564 17.5795ZM90.4104 5.57523L87.8384 11.319L93.0466 11.1051L90.4104 5.57523Z" fill="white"/>
<path d="M103.526 16.619V1.52983L112.173 1.17341C112.534 1.16183 112.889 1.15381 113.23 1.15381C116.47 1.15381 118.904 1.82477 120.46 3.14799C121.126 3.74966 121.648 4.47924 121.99 5.28749C122.332 6.09573 122.486 6.96383 122.442 7.83317V8.44087C122.468 9.61513 122.223 10.7806 121.726 11.8572C121.087 13.1285 120.027 14.1686 118.705 14.8199C116.678 15.7597 114.451 16.253 112.193 16.2626L103.526 16.619ZM112.34 4.7911C112.144 4.7911 111.938 4.7911 111.729 4.80447L108.567 4.93367V12.7821L111.73 12.6529C113.913 12.5638 115.46 12.0425 116.328 11.106C116.939 10.3698 117.247 9.44903 117.193 8.51483V8.39275C117.26 7.49753 116.949 6.61377 116.328 5.93433C115.209 5.0737 113.777 4.66306 112.34 4.7911Z" fill="white"/>
<path d="M7.07883 16.2573C4.43605 16.2573 2.49455 15.8117 1.32134 14.9349C0.891996 14.6189 0.548307 14.2111 0.318574 13.7451C0.0888418 13.2791 -0.0203625 12.7683 -4.71789e-05 12.2546V12.0426C-0.00190836 11.6302 0.0904888 11.2223 0.270838 10.8468C0.455215 10.4685 0.715848 10.1277 1.03819 9.84345C1.7049 9.24767 2.53909 8.84555 3.44123 8.68507C2.65969 8.60721 1.92105 8.30915 1.32134 7.82966C1.03409 7.59242 0.799019 7.3042 0.629501 6.98137C0.460417 6.6515 0.374181 6.28925 0.377493 5.9228V5.73033C0.360743 5.14475 0.51416 4.56602 0.821103 4.05693C1.32824 3.30755 2.08096 2.73523 2.96459 2.42718C4.63405 1.85399 6.39452 1.55268 8.17087 1.53613L9.03166 1.50048C9.4328 1.48801 9.82544 1.47999 10.1935 1.47999C11.5646 1.44595 12.9332 1.60941 14.2521 1.96472C15.1345 2.18078 15.905 2.68937 16.423 3.39754C16.7212 3.90358 16.8668 4.47711 16.8439 5.0558V5.24827C16.8464 5.62149 16.7656 5.99103 16.6067 6.33279C16.4479 6.67455 16.2145 6.98086 15.9218 7.23176C15.3304 7.75593 14.5948 8.11256 13.7991 8.26093C14.6919 8.33838 15.5378 8.67345 16.2219 9.2206C16.5389 9.47411 16.789 9.79383 16.9525 10.1544C17.1208 10.5286 17.2062 10.9313 17.2035 11.3377V11.5489C17.2169 12.1883 17.0512 12.8197 16.7231 13.3792C16.1795 14.2035 15.3728 14.8437 14.4192 15.2076C12.702 15.8442 10.8764 16.18 9.03166 16.1985L8.17087 16.2341C7.79616 16.2493 7.429 16.2573 7.07883 16.2573ZM9.32048 10.0582C9.09301 10.0582 8.84855 10.0635 8.58994 10.0742C7.56921 10.0418 6.5546 10.2353 5.62719 10.6392C5.44164 10.737 5.28777 10.8807 5.18203 11.0547C5.07629 11.2288 5.02267 11.4267 5.0269 11.6273V11.6648C5.02927 11.8571 5.0886 12.045 5.19818 12.2072C5.30777 12.3694 5.46324 12.4994 5.64701 12.5826C6.36013 12.8993 7.14828 13.0353 7.93396 12.9773C8.13972 12.9773 8.36058 12.9728 8.59466 12.963C9.62974 12.9978 10.6572 12.7831 11.5801 12.3393C11.7585 12.2391 11.9069 12.0976 12.0111 11.9281C12.1154 11.7585 12.172 11.5667 12.1756 11.3707V11.3324C12.1841 11.1372 12.1318 10.9439 12.0251 10.7765C11.9184 10.6091 11.762 10.4749 11.5753 10.3906C10.8591 10.1232 10.0889 10.0097 9.32048 10.0582ZM9.19117 4.55235C9.0024 4.55235 8.80042 4.55235 8.59088 4.56483C7.67374 4.54875 6.76418 4.72432 5.92734 5.07897C5.76377 5.15573 5.62638 5.27442 5.53091 5.42144C5.43543 5.56846 5.38572 5.73788 5.38745 5.91032V5.96824C5.38735 6.13706 5.44066 6.30206 5.54055 6.44209C5.64044 6.58211 5.78236 6.69078 5.9481 6.75415C6.58531 6.9829 7.26663 7.0816 7.94718 7.04375C8.14822 7.04375 8.3653 7.03929 8.59088 7.02949C9.50596 7.0506 10.4148 6.88209 11.2535 6.53584C11.4335 6.45476 11.5837 6.32475 11.6848 6.16249C11.759 6.02038 11.7968 5.86381 11.7953 5.70538V5.64746C11.8003 5.47988 11.7512 5.31483 11.6544 5.17427C11.5576 5.03371 11.4178 4.92432 11.2535 4.86066C10.5973 4.62 9.89405 4.51487 9.19117 4.55235Z" fill="#FE4547"/>
<path d="M32.4213 15.0087L28.3958 10.5534L24.3316 15.3411L18.7034 15.571L25.0111 7.95602L18.8836 1.23567L24.8714 0.995083L28.6138 5.16968L32.3609 0.684104L37.8277 0.460449L31.8408 7.65662L38.1646 14.7735L32.4213 15.0087Z" fill="#FE4547"/>
<path d="M45.3869 18.9998V7.72436L39.2085 7.97742V4.16548L56.5848 3.45264V7.26547L50.4063 7.51853V18.794L45.3869 18.9998Z" fill="white"/>
<path d="M125.837 0.61572L140.874 0V3.46799L130.84 3.87877V6.06899L140.561 5.67158V9.26075L130.84 9.65905V11.9901L141.004 11.5739V15.082L125.837 15.704V0.61572Z" fill="white"/>
</g>
<defs>
<clipPath id="clip0">
<rect width="141" height="19" fill="white"/>
</clipPath>
</defs>
</svg>
