<svg width="110" height="110" viewBox="0 0 110 110" fill="none" xmlns="http://www.w3.org/2000/svg">
<path d="M52.5 1.44338C54.047 0.550213 55.953 0.550212 57.5 1.44338L100.131 26.0566C101.678 26.9498 102.631 28.6004 102.631 30.3868V79.6133C102.631 81.3996 101.678 83.0502 100.131 83.9434L57.5 108.557C55.953 109.45 54.047 109.45 52.5 108.557L9.8686 83.9434C8.3216 83.0502 7.3686 81.3996 7.3686 79.6133V30.3867C7.3686 28.6004 8.3216 26.9498 9.8686 26.0566L52.5 1.44338Z" fill="#2A3554"/>
<g clip-path="url(#clip0)">
<path d="M54.1646 48.4839H51.9292V54.6731H54.1646V48.4839Z" stroke="#FE4547" stroke-miterlimit="10"/>
<path d="M61.3715 43.7805H57.948V54.6732H61.3715V43.7805Z" stroke="#FE4547" stroke-miterlimit="10"/>
<path d="M68.6908 38.2617H65.1155V54.6731H68.6908V38.2617Z" stroke="#FE4547" stroke-miterlimit="10"/>
<path d="M78.8646 34.3837H41.7276C41.3305 34.3837 41.0054 34.7011 41.0054 35.0987V43.3662H42.4499V35.8093H78.1468V57.3774H52.3613V58.8074H78.8634C79.2606 58.8074 79.5812 58.49 79.5812 58.0924V35.0943C79.5868 34.7011 79.2662 34.3837 78.8646 34.3837Z" fill="white"/>
<path d="M40.2076 76.1555C39.0196 76.1555 38.0532 75.1988 38.0532 74.0226C38.0532 72.8465 39.0196 71.8898 40.2076 71.8898C41.3957 71.8898 42.3621 72.8465 42.3621 74.0226C42.3621 75.1988 41.3957 76.1555 40.2076 76.1555ZM40.2076 73.3121C39.8116 73.3121 39.4899 73.6306 39.4899 74.0226C39.4899 74.4147 39.8116 74.7332 40.2076 74.7332C40.6036 74.7332 40.9254 74.4147 40.9254 74.0226C40.9254 73.6317 40.6036 73.3121 40.2076 73.3121Z" fill="white"/>
<path d="M52.4152 79.0001H28V43.4542H52.4152V79.0001ZM29.4355 77.5778H50.9785V44.8765H29.4355V77.5778Z" fill="white"/>
<path d="M49.5429 70.4686H30.8721V46.2976H49.5429V70.4686ZM32.3087 69.0474H48.1063V47.7199H32.3087V69.0474Z" fill="white"/>
<path d="M37.0575 62.5264H33.6599V66.5226H37.0575V62.5264Z" fill="#FE4547"/>
<path d="M41.9604 59.4913H38.5618V66.5237H41.9604V59.4913Z" fill="#FE4547"/>
<path d="M46.8621 55.9307H43.4634V66.5237H46.8621V55.9307Z" fill="#FE4547"/>
<path d="M80.4922 31H40.1051C38.7157 31 37.5918 32.1182 37.5918 33.4882V43.5455H39.0318V33.4882C39.0318 32.899 39.5156 32.4256 40.1051 32.4256H80.4922C81.0817 32.4256 81.5655 32.9045 81.5655 33.4882V59.6984C81.5655 60.282 81.0817 60.7609 80.4922 60.7609H52.4151V62.1866H55.7204L53.7268 68.5116H52.4151V69.9373H68.6052C69.0024 69.9373 69.3275 69.6154 69.3275 69.2222C69.3275 68.8291 69.0069 68.5128 68.6052 68.5128H66.8705L64.8758 62.1854H80.4866C81.8749 62.1854 82.9999 61.0672 82.9999 59.6973V33.4882C83.0044 32.1127 81.8749 31 80.4922 31ZM65.3641 68.5105H55.2321L57.2257 62.1854H63.3649L65.3641 68.5105Z" fill="white"/>
</g>
<defs>
<clipPath id="clip0">
<rect width="55" height="48" fill="white" transform="translate(28 31)"/>
</clipPath>
</defs>
</svg>
