<svg width="110" height="110" viewBox="0 0 110 110" fill="none" xmlns="http://www.w3.org/2000/svg">
<path d="M52.5 1.44338C54.047 0.550213 55.953 0.550212 57.5 1.44338L100.131 26.0566C101.678 26.9498 102.631 28.6004 102.631 30.3868V79.6133C102.631 81.3996 101.678 83.0502 100.131 83.9434L57.5 108.557C55.953 109.45 54.047 109.45 52.5 108.557L9.8686 83.9434C8.3216 83.0502 7.3686 81.3996 7.3686 79.6133V30.3867C7.3686 28.6004 8.3216 26.9498 9.8686 26.0566L52.5 1.44338Z" fill="#2A3554"/>
<g clip-path="url(#clip0)">
<path d="M42.0712 47.0648C43.7294 45.2207 45.3766 43.388 47.0451 41.522C46.348 40.5673 45.9888 39.5263 46.1791 38.3331C46.3163 37.4436 46.7073 36.695 47.3512 36.0882C48.5764 34.9169 50.4139 34.7108 51.85 35.5889C53.4765 36.5761 54.015 38.2679 53.4234 40.5461C54.5955 41.2515 55.7676 41.9561 56.9928 42.6827C57.7002 41.8038 58.5765 41.2401 59.6859 41.1318C60.7946 41.0234 61.7661 41.381 62.632 42.1296C64.1213 40.7954 65.5892 39.4718 67.0461 38.1709C66.0112 35.6109 66.4228 33.713 68.2285 32.5743C69.8336 31.5658 71.8717 31.9128 73.0969 33.3986C74.2904 34.8305 74.2793 36.9996 73.0755 38.4316C71.6924 40.0696 69.7701 40.2105 67.5949 38.8111C66.1373 40.1234 64.6694 41.4363 63.2126 42.7486C64.1737 45.1351 63.9517 46.7186 62.4941 47.9982C61.2586 49.0832 59.4632 49.2241 58.069 48.3452C56.4957 47.358 55.9992 45.764 56.548 43.4206C55.4394 42.7592 54.3196 42.0758 53.1896 41.425C53.1048 41.3704 52.9152 41.3924 52.8414 41.4682C50.8247 43.1494 49.8636 43.2797 47.6455 42.1296C45.9984 43.9623 44.3402 45.8064 42.6717 47.6725C43.4211 48.6922 43.77 49.809 43.4956 51.078C43.295 52.0221 42.8089 52.7812 42.0697 53.3555C40.5805 54.5268 38.4789 54.3753 37.149 53.0305C35.7866 51.6637 35.6177 49.5052 36.7477 47.9323C37.953 46.2299 39.8959 45.9049 42.0712 47.0648ZM72.2847 35.9147C72.2951 34.754 71.3656 33.7781 70.2253 33.7562C69.0952 33.7456 68.1341 34.7002 68.1134 35.8601C68.092 37.042 69.0532 38.0512 70.2046 38.0512C71.3339 38.0512 72.2737 37.086 72.2847 35.9147ZM52.0086 38.9407C52.0086 37.78 51.0689 36.8041 49.9285 36.8041C48.7985 36.8041 47.8484 37.7588 47.8373 38.9301C47.827 40.112 48.7984 41.1106 49.9388 41.0992C51.0792 41.078 52.0086 40.1014 52.0086 38.9407ZM57.9857 44.9715C57.9643 46.1322 58.8834 47.13 60.0134 47.1626C61.1538 47.1952 62.1364 46.2186 62.157 45.026C62.1673 43.8653 61.2379 42.8895 60.0975 42.8675C58.9572 42.8569 57.996 43.8108 57.9857 44.9715ZM41.8706 50.2212C41.8706 49.0605 40.9308 48.0846 39.7905 48.0846C38.6604 48.074 37.7103 49.0392 37.6993 50.1999C37.6889 51.3819 38.6604 52.3804 39.8008 52.3691C40.9412 52.3585 41.8706 51.3819 41.8706 50.2212Z" fill="white"/>
<path d="M73.9955 61.5131C73.9955 66.318 73.9955 71.1343 73.9955 75.9393C73.9955 77.3493 73.3618 77.9895 71.9994 77.9895C70.7536 77.9895 69.4966 77.9895 68.2508 77.9895C67.089 77.9895 66.4133 77.2841 66.4133 76.1022C66.4133 66.3726 66.4133 56.6544 66.4133 46.9248C66.4133 45.7315 67.1001 45.0375 68.2508 45.0375C69.5498 45.0269 70.8591 45.0269 72.158 45.0375C73.3198 45.0375 73.9955 45.7429 73.9955 46.9248C74.0058 51.7835 73.9955 56.6536 73.9955 61.5131ZM68.1453 46.8157C68.1453 47.5854 68.1453 48.2908 68.1453 48.9848C68.135 52.7813 68.1239 56.5771 68.1239 60.363C68.1239 65.4718 68.1342 70.5911 68.1239 75.6999C68.1239 76.1014 68.2294 76.2317 68.6307 76.2204C69.687 76.1984 70.7425 76.1878 71.7988 76.2204C72.2104 76.231 72.2952 76.0794 72.2952 75.6885C72.2849 67.0007 72.2952 58.3015 72.2952 49.6129C72.2952 48.6802 72.2952 47.7476 72.2952 46.7929C70.8797 46.8157 69.5284 46.8157 68.1453 46.8157Z" fill="#FE4547"/>
<path d="M46.1374 64.0617C46.1374 60.1349 46.1374 56.2194 46.1374 52.2933C46.1374 50.8834 46.771 50.2432 48.1334 50.2432C49.3793 50.2432 50.6362 50.2432 51.8821 50.2432C53.0439 50.2538 53.7195 50.9485 53.7195 52.1304C53.7195 60.1243 53.7195 68.1075 53.7195 76.1014C53.7195 77.2946 53.0328 77.9886 51.8821 77.9886C50.5831 77.9886 49.2738 77.9886 47.9749 77.9886C46.8131 77.9886 46.1374 77.2833 46.1374 76.1014C46.1271 72.0881 46.1374 68.0749 46.1374 64.0617ZM47.8377 52.0221C47.8377 53.0957 47.8377 54.1261 47.8377 55.1564C47.8377 59.3651 47.8377 63.5738 47.8377 67.7817C47.8377 70.4176 47.859 73.0534 47.8377 75.6998C47.8377 76.1445 47.9748 76.2529 48.3864 76.2423C49.3896 76.2203 50.3928 76.2097 51.396 76.2423C51.871 76.2642 52.0193 76.1233 52.0193 75.6134C52.009 68.6932 52.0193 61.7729 52.0193 54.8526C52.0193 53.92 52.0193 52.9873 52.0193 52.0213C50.6148 52.0221 49.2635 52.0221 47.8377 52.0221Z" fill="#FE4547"/>
<path d="M63.8575 66.7734C63.8575 69.8433 63.8575 72.9231 63.8575 75.9931C63.8575 77.3273 63.2136 77.9887 61.9146 78C60.6473 78 59.3801 78 58.1128 78C56.9511 78 56.2754 77.2947 56.2754 76.1128C56.2754 69.8539 56.2754 63.6064 56.2754 57.3484C56.2754 56.1551 56.9621 55.4611 58.1128 55.4611C59.4118 55.4505 60.7211 55.4505 62.0201 55.4611C63.1819 55.4611 63.8575 56.1664 63.8575 57.3484C63.8679 60.4827 63.8575 63.6284 63.8575 66.7734ZM58.0074 57.2286C58.0074 58.0749 58.0074 58.8447 58.0074 59.6258C58.0074 65.0058 58.0074 70.3964 57.986 75.7764C57.986 76.134 58.1018 76.2431 58.4403 76.2317C59.4752 76.2097 60.5205 76.1991 61.5554 76.2317C62.0098 76.2423 62.1573 76.134 62.1573 75.6355C62.147 70.4509 62.1573 65.2664 62.1573 60.0812C62.1573 59.1265 62.1573 58.1833 62.1573 57.2173C60.7314 57.2286 59.3904 57.2286 58.0074 57.2286Z" fill="#FE4547"/>
<path d="M43.5821 69.3227C43.5821 71.5676 43.5821 73.8026 43.5821 76.0475C43.5821 77.306 42.9168 77.9893 41.6916 77.9893C40.4029 77.9893 39.1254 77.9893 37.8374 77.9893C36.6757 77.9893 36 77.284 36 76.1021C36 71.579 36 67.0665 36 62.5442C36 61.3509 36.6867 60.6569 37.8374 60.6569C39.1364 60.6463 40.4457 60.6463 41.7447 60.6569C42.9065 60.6569 43.5821 61.3622 43.5821 62.5442C43.5925 64.7996 43.5821 67.0665 43.5821 69.3227ZM37.7312 62.4351C37.7312 63.2488 37.7312 63.9973 37.7312 64.7565C37.7312 68.4227 37.7312 72.0889 37.7098 75.7551C37.7098 76.1453 37.847 76.243 38.2063 76.2324C39.2412 76.2104 40.2864 76.2104 41.3213 76.2324C41.7543 76.243 41.8915 76.1134 41.8915 75.6573C41.8812 72.1866 41.8915 68.7265 41.8915 65.2557C41.8915 64.3231 41.8915 63.3904 41.8915 62.4244C40.4664 62.4351 39.1254 62.4351 37.7312 62.4351Z" fill="#FE4547"/>
</g>
<defs>
<clipPath id="clip0">
<rect width="38" height="46" fill="white" transform="translate(36 32)"/>
</clipPath>
</defs>
</svg>
