<svg width="110" height="110" viewBox="0 0 110 110" fill="none" xmlns="http://www.w3.org/2000/svg">
<path d="M52.5 1.44338C54.047 0.550213 55.953 0.550212 57.5 1.44338L100.131 26.0566C101.678 26.9498 102.631 28.6004 102.631 30.3868V79.6133C102.631 81.3996 101.678 83.0502 100.131 83.9434L57.5 108.557C55.953 109.45 54.047 109.45 52.5 108.557L9.8686 83.9434C8.3216 83.0502 7.3686 81.3996 7.3686 79.6133V30.3867C7.3686 28.6004 8.3216 26.9498 9.8686 26.0566L52.5 1.44338Z" fill="#2A3554"/>
<path d="M39.6667 34.5044V33.2778C39.6667 32.5622 39.1044 32 38.3889 32H33.2778C32.5622 32 32 32.5622 32 33.2778V76.7222C32 77.4378 32.5622 78 33.2778 78H38.3889C39.1044 78 39.6667 77.4378 39.6667 76.7222V62.6156V34.5044ZM37.6222 76.4667H34.0444V33.5333H37.6222V76.4667ZM39.6667 60.06V37.06V60.06Z" fill="white"/>
<path d="M39.6667 62.9733C42.3756 62.82 45.0334 62.2578 47.589 61.6956C50.5534 61.0311 53.3645 60.4689 56.2779 60.4689H57.5556C58.2712 60.4689 58.8334 61.0311 58.8334 61.7467C58.8334 63.8422 60.5712 65.58 62.6667 65.58H63.9445C66.2956 65.58 68.5445 64.9156 70.6912 64.2511C72.7867 63.6378 74.729 63.0245 76.7223 63.0245C77.4379 63.0245 78.0001 62.4622 78.0001 61.7467V36.1911C78.0001 35.4756 77.4379 34.9133 76.7223 34.9133C74.3712 34.9133 72.1223 35.5778 69.9756 36.2422C67.8801 36.8556 65.9379 37.4689 63.9445 37.4689H62.6667C61.9512 37.4689 61.389 36.9067 61.389 36.1911C61.389 34.0956 59.6512 32.3578 57.5556 32.3578H56.2779C53.109 32.3578 50.0423 33.0222 47.0779 33.6867C44.5223 34.2489 42.1201 34.76 39.6667 34.9133V37.4689C42.3756 37.3156 45.0334 36.7533 47.589 36.1911C50.5534 35.5267 53.3645 34.9645 56.2779 34.9645H57.5556C58.2712 34.9645 58.8334 35.5267 58.8334 36.2422V50.2978C58.8334 51.0133 59.3956 51.5756 60.1112 51.5756C60.8267 51.5756 61.389 51.0133 61.389 50.2978V39.7689C61.7979 39.9222 62.2067 39.9733 62.6667 39.9733H63.9445C66.2956 39.9733 68.5445 39.3089 70.6912 38.6445C72.3267 38.1333 73.8601 37.6733 75.4445 37.52V60.52C73.5534 60.7245 71.7134 61.2356 69.9756 61.7978C68.8001 62.1556 67.6245 62.5133 66.5001 62.7178V56.6356C66.5001 55.92 65.9379 55.3578 65.2223 55.3578C64.5067 55.3578 63.9445 55.92 63.9445 56.6356V63.0245H62.6667C61.9512 63.0245 61.389 62.4622 61.389 61.7467C61.389 59.6511 59.6512 57.9133 57.5556 57.9133H56.2779C53.109 57.9133 50.0423 58.5778 47.0779 59.2422C46.3112 59.3956 45.5445 59.5489 44.7779 59.7022V43.8578C44.7779 43.1422 44.2156 42.58 43.5001 42.58C42.7845 42.58 42.2223 43.1422 42.2223 43.8578V60.1622C41.3534 60.2645 40.5356 60.3667 39.6667 60.4178V62.9733Z" fill="#FE4547"/>
</svg>
