<svg width="110" height="110" viewBox="0 0 110 110" fill="none" xmlns="http://www.w3.org/2000/svg">
<path d="M52.5 1.44338C54.047 0.550213 55.953 0.550212 57.5 1.44338L100.131 26.0566C101.678 26.9498 102.631 28.6004 102.631 30.3868V79.6133C102.631 81.3996 101.678 83.0502 100.131 83.9434L57.5 108.557C55.953 109.45 54.047 109.45 52.5 108.557L9.8686 83.9434C8.3216 83.0502 7.3686 81.3996 7.3686 79.6133V30.3867C7.3686 28.6004 8.3216 26.9498 9.8686 26.0566L52.5 1.44338Z" fill="#2A3554"/>
<path d="M71.0842 62.5426C71.0842 62.7288 71.0842 62.7288 71.0842 62.915V63.1013C71.0842 63.2875 71.0842 62.915 71.0842 63.1013C71.0842 63.2875 71.0842 63.4737 70.8993 63.8462V64.0325C70.8993 64.0325 70.8993 64.2187 70.8993 64.0325C70.8993 64.2187 70.8993 64.2187 70.7144 64.4049C70.5296 64.5912 70.5296 64.7774 70.3447 64.9636C70.1598 65.1499 70.3447 64.7774 70.3447 64.9636C70.3447 64.9636 70.3447 64.9636 70.1598 65.1499L69.9749 65.3361L69.7901 65.5223C69.7901 65.5223 69.7901 65.5223 69.6052 65.7086C69.4203 65.8948 69.2354 65.8948 69.0506 66.081C69.0506 66.081 68.8657 66.081 68.6808 66.2673C68.8657 66.2673 68.6808 66.2673 68.6808 66.2673H68.4959C68.3111 66.2673 68.1262 66.4535 67.9413 66.4535C67.7564 66.4535 68.1262 66.4535 67.9413 66.4535H67.7564C67.5716 66.4535 67.5716 66.4535 67.3867 66.4535C67.2018 66.4535 67.2018 66.4535 67.0169 66.4535H66.8321C67.0169 66.4535 66.8321 66.4535 66.8321 66.4535C66.6472 66.4535 66.4623 66.2673 66.0926 66.2673H65.9077C65.7228 66.2673 66.0926 66.2673 65.9077 66.2673C65.7228 66.2673 65.7228 66.2673 65.7228 66.081C65.538 65.8948 65.3531 65.8948 65.1682 65.7086C65.3531 65.8948 65.1682 65.7086 65.1682 65.7086C65.1682 65.7086 65.1682 65.7086 64.9833 65.5223L64.7985 65.3361L64.6136 65.1499C64.6136 65.1499 64.6136 65.1499 64.4287 64.9636C64.6136 65.1499 64.4287 64.9636 64.4287 64.9636C64.2438 64.7774 64.2438 64.5912 64.059 64.4049C64.059 64.4049 64.059 64.4049 64.059 64.2187C64.059 64.2187 64.059 64.0325 64.059 64.2187C64.059 64.0325 64.059 64.0325 63.8741 63.8462C63.8741 63.66 63.6892 63.4737 63.6892 63.2875C63.6892 63.4737 63.6892 63.2875 63.6892 63.2875V63.1013C63.6892 62.915 63.6892 62.915 63.6892 62.7288C63.6892 62.5426 63.6892 62.5426 63.6892 62.3563C63.6892 62.3563 63.6892 62.1701 63.6892 62.3563V62.1701C63.6892 61.9839 63.8741 61.7976 63.8741 61.4252V61.2389C63.8741 61.4252 63.8741 61.2389 63.8741 61.2389C63.8741 61.0527 63.8741 61.0527 64.059 61.0527L64.2438 60.8665C64.2438 60.8665 64.2438 60.8665 64.2438 60.6802C64.2438 60.6802 64.4287 60.494 64.2438 60.6802C64.4287 60.494 64.4287 60.3078 64.6136 60.3078L64.7985 60.1215C64.7985 60.1215 64.9833 59.9353 64.7985 60.1215C64.7985 60.1215 64.9833 60.1215 64.9833 59.9353C65.1682 59.7491 65.3531 59.7491 65.538 59.5628H65.7228C65.9077 59.5628 65.538 59.5628 65.7228 59.5628C65.9077 59.5628 65.9077 59.5628 66.0926 59.3766C66.2775 59.3766 66.2775 59.3766 66.4623 59.3766H66.6472C66.6472 59.3766 66.8321 59.3766 66.6472 59.3766C66.8321 59.3766 67.2018 59.3766 67.3867 59.3766C67.5716 59.3766 67.5716 59.3766 67.7564 59.3766C67.9413 59.3766 67.5716 59.3766 67.7564 59.3766H67.9413C68.1262 59.3766 68.3111 59.5628 68.6808 59.5628C68.6808 59.5628 68.8657 59.5628 68.6808 59.5628H68.8657C69.0506 59.5628 69.0506 59.5628 69.0506 59.7491L69.2354 59.9353C69.2354 59.9353 69.2354 59.9353 69.4203 59.9353C69.4203 59.9353 69.6052 60.1215 69.4203 59.9353C69.6052 60.1215 69.7901 60.1215 69.7901 60.3078L69.9749 60.494C69.9749 60.494 70.1598 60.6802 69.9749 60.494C69.9749 60.494 69.9749 60.494 69.9749 60.6802C70.1598 60.8665 70.1598 61.0527 70.3447 61.2389C70.3447 61.2389 70.3447 61.2389 70.3447 61.4252C70.3447 61.4252 70.3447 61.6114 70.3447 61.4252C70.3447 61.6114 70.3447 61.6114 70.5296 61.7976C70.5296 61.9839 70.7144 62.1701 70.7144 62.3563C70.7144 62.5426 70.7144 62.1701 70.7144 62.3563V62.5426C71.0842 62.3563 71.0842 62.5426 71.0842 62.5426C71.0842 62.915 71.4539 63.2875 71.8237 63.2875C72.1934 63.2875 72.5632 62.915 72.5632 62.5426C72.5632 60.6802 71.4539 58.8179 69.6052 58.0729C67.7564 57.328 65.7228 57.5142 64.059 59.0041C62.58 60.3078 62.0254 62.5426 62.7648 64.2187C63.1346 65.1499 63.6892 65.8948 64.4287 66.4535C65.1682 67.0122 66.0926 67.3847 67.2018 67.5709C68.4959 67.7572 69.9749 67.1984 71.0842 66.2673C72.1934 65.3361 72.748 64.0325 72.748 62.5426C72.748 62.1701 72.3783 61.7976 72.0085 61.7976C71.4539 61.9839 71.0842 62.1701 71.0842 62.5426Z" fill="#FE4547"/>
<path d="M71.0842 62.5426C71.0842 62.7288 71.0842 62.7288 71.0842 62.915V63.1013C71.0842 63.2875 71.0842 62.915 71.0842 63.1013C71.0842 63.2875 71.0842 63.4737 70.8993 63.8462V64.0325C70.8993 64.0325 70.8993 64.2187 70.8993 64.0325C70.8993 64.2187 70.8993 64.2187 70.7144 64.4049C70.5296 64.5912 70.5296 64.7774 70.3447 64.9636C70.1598 65.1499 70.3447 64.7774 70.3447 64.9636C70.3447 64.9636 70.3447 64.9636 70.1598 65.1499L69.9749 65.3361L69.7901 65.5223C69.7901 65.5223 69.7901 65.5223 69.6052 65.7086C69.4203 65.8948 69.2354 65.8948 69.0506 66.081C69.0506 66.081 68.8657 66.081 68.6808 66.2673C68.8657 66.2673 68.6808 66.2673 68.6808 66.2673H68.4959C68.3111 66.2673 68.1262 66.4535 67.9413 66.4535C67.7564 66.4535 68.1262 66.4535 67.9413 66.4535H67.7564C67.5716 66.4535 67.5716 66.4535 67.3867 66.4535C67.2018 66.4535 67.2018 66.4535 67.0169 66.4535H66.8321C67.0169 66.4535 66.8321 66.4535 66.8321 66.4535C66.6472 66.4535 66.4623 66.2673 66.0926 66.2673H65.9077C65.7228 66.2673 66.0926 66.2673 65.9077 66.2673C65.7228 66.2673 65.7228 66.2673 65.7228 66.081C65.538 65.8948 65.3531 65.8948 65.1682 65.7086C65.3531 65.8948 65.1682 65.7086 65.1682 65.7086C65.1682 65.7086 65.1682 65.7086 64.9833 65.5223L64.7985 65.3361L64.6136 65.1499C64.6136 65.1499 64.6136 65.1499 64.4287 64.9636C64.6136 65.1499 64.4287 64.9636 64.4287 64.9636C64.2438 64.7774 64.2438 64.5912 64.059 64.4049C64.059 64.4049 64.059 64.4049 64.059 64.2187C64.059 64.2187 64.059 64.0325 64.059 64.2187C64.059 64.0325 64.059 64.0325 63.8741 63.8462C63.8741 63.66 63.6892 63.4737 63.6892 63.2875C63.6892 63.4737 63.6892 63.2875 63.6892 63.2875V63.1013C63.6892 62.915 63.6892 62.915 63.6892 62.7288C63.6892 62.5426 63.6892 62.5426 63.6892 62.3563C63.6892 62.3563 63.6892 62.1701 63.6892 62.3563V62.1701C63.6892 61.9839 63.8741 61.7976 63.8741 61.4252V61.2389C63.8741 61.4252 63.8741 61.2389 63.8741 61.2389C63.8741 61.0527 63.8741 61.0527 64.059 61.0527L64.2438 60.8665C64.2438 60.8665 64.2438 60.8665 64.2438 60.6802C64.2438 60.6802 64.4287 60.494 64.2438 60.6802C64.4287 60.494 64.4287 60.3078 64.6136 60.3078L64.7985 60.1215C64.7985 60.1215 64.9833 59.9353 64.7985 60.1215C64.7985 60.1215 64.9833 60.1215 64.9833 59.9353C65.1682 59.7491 65.3531 59.7491 65.538 59.5628H65.7228C65.9077 59.5628 65.538 59.5628 65.7228 59.5628C65.9077 59.5628 65.9077 59.5628 66.0926 59.3766C66.2775 59.3766 66.2775 59.3766 66.4623 59.3766H66.6472C66.6472 59.3766 66.8321 59.3766 66.6472 59.3766C66.8321 59.3766 67.2018 59.3766 67.3867 59.3766C67.5716 59.3766 67.5716 59.3766 67.7564 59.3766C67.9413 59.3766 67.5716 59.3766 67.7564 59.3766H67.9413C68.1262 59.3766 68.3111 59.5628 68.6808 59.5628C68.6808 59.5628 68.8657 59.5628 68.6808 59.5628H68.8657C69.0506 59.5628 69.0506 59.5628 69.0506 59.7491L69.2354 59.9353C69.2354 59.9353 69.2354 59.9353 69.4203 59.9353C69.4203 59.9353 69.6052 60.1215 69.4203 59.9353C69.6052 60.1215 69.7901 60.1215 69.7901 60.3078L69.9749 60.494C69.9749 60.494 70.1598 60.6802 69.9749 60.494C69.9749 60.494 69.9749 60.494 69.9749 60.6802C70.1598 60.8665 70.1598 61.0527 70.3447 61.2389C70.3447 61.2389 70.3447 61.2389 70.3447 61.4252C70.3447 61.4252 70.3447 61.6114 70.3447 61.4252C70.3447 61.6114 70.3447 61.6114 70.5296 61.7976C70.5296 61.9839 70.7144 62.1701 70.7144 62.3563C70.7144 62.5426 70.7144 62.1701 70.7144 62.3563V62.5426C71.0842 62.3563 71.0842 62.5426 71.0842 62.5426ZM71.0842 62.5426C71.0842 62.915 71.4539 63.2875 71.8237 63.2875C72.1934 63.2875 72.5632 62.915 72.5632 62.5426C72.5632 60.6802 71.4539 58.8179 69.6052 58.0729C67.7564 57.328 65.7228 57.5142 64.059 59.0041C62.58 60.3078 62.0254 62.5426 62.7648 64.2187C63.1346 65.1499 63.6892 65.8948 64.4287 66.4535C65.1682 67.0122 66.0926 67.3847 67.2018 67.5709C68.4959 67.7572 69.9749 67.1984 71.0842 66.2673C72.1934 65.3361 72.748 64.0325 72.748 62.5426C72.748 62.1701 72.3783 61.7976 72.0085 61.7976C71.4539 61.9839 71.0842 62.1701 71.0842 62.5426Z" stroke="#FE4547" stroke-width="0.3" stroke-miterlimit="10"/>
<path d="M72.3782 67.3848C72.5631 67.3848 72.5631 67.571 72.748 67.571C72.748 67.571 72.9329 67.7572 72.748 67.571C72.748 67.571 72.748 67.571 72.9329 67.7572C73.1177 67.9435 73.3026 68.1297 73.4875 68.3159L73.6724 68.5022C73.4875 68.3159 73.6724 68.5022 73.6724 68.5022C73.6724 68.5022 73.6724 68.5022 73.8572 68.6884C74.0421 68.8746 74.0421 69.0609 74.227 69.2471V69.4333C74.227 69.6196 74.227 69.2471 74.227 69.4333C74.227 69.6196 74.227 69.6196 74.4119 69.8058C74.4119 69.992 74.5967 70.3645 74.5967 70.5508C74.5967 70.5508 74.5967 70.737 74.5967 70.5508V70.737C74.5967 70.9232 74.5967 70.9232 74.5967 71.1095V71.2957C74.5967 72.4131 74.5967 73.3443 74.5967 74.4617C74.5967 74.6479 74.5967 74.6479 74.5967 74.8342C74.5967 74.8342 74.5967 74.8342 74.5967 75.0204C74.5967 75.2066 74.5967 74.8342 74.5967 75.0204V75.2066C74.5967 75.2066 74.5967 75.3929 74.5967 75.2066C74.5967 75.3929 74.4119 75.3929 74.4119 75.3929C74.227 75.5791 74.5967 75.2066 74.4119 75.3929L74.227 75.5791C74.0421 75.7653 74.4119 75.5791 74.227 75.5791C74.227 75.5791 74.227 75.5791 74.0421 75.5791C74.0421 75.5791 74.0421 75.5791 73.8572 75.5791C74.0421 75.5791 73.8572 75.5791 73.8572 75.5791H73.6724C73.4875 75.5791 73.8572 75.5791 73.6724 75.5791C73.6724 75.5791 73.6724 75.5791 73.4875 75.5791H73.3026C72.5631 75.5791 71.8236 75.5791 71.0841 75.5791C68.6808 75.5791 66.2774 75.5791 63.6892 75.5791C62.9497 75.5791 62.2102 75.5791 61.2858 75.5791H61.1009C61.1009 75.5791 61.1009 75.5791 60.9161 75.5791C60.7312 75.5791 61.1009 75.5791 60.9161 75.5791H60.7312C60.7312 75.5791 60.7312 75.5791 60.5463 75.5791C60.3614 75.5791 60.3614 75.3929 60.3614 75.3929C60.5463 75.5791 60.3614 75.3929 60.3614 75.3929C60.3614 75.3929 60.3614 75.3929 60.1766 75.2066C59.9917 75.0204 60.1766 75.3929 60.1766 75.2066C60.1766 75.2066 60.1766 75.2066 60.1766 75.0204C60.1766 75.0204 60.1766 75.0204 60.1766 74.8342C60.1766 75.0204 60.1766 74.8342 60.1766 74.8342V74.6479C60.1766 74.8342 60.1766 74.6479 60.1766 74.6479V74.4617C60.1766 73.3443 60.1766 72.4131 60.1766 71.2957C60.1766 71.1095 60.1766 70.9232 60.1766 70.737V70.5508C60.1766 70.5508 60.1766 70.3645 60.1766 70.5508C60.1766 70.3645 60.1766 70.3645 60.1766 70.1783C60.1766 69.992 60.3614 69.6196 60.3614 69.4333V69.2471C60.3614 69.4333 60.3614 69.2471 60.3614 69.2471C60.3614 69.0609 60.5463 69.0609 60.5463 68.8746C60.7312 68.6884 60.7312 68.5022 60.9161 68.3159C61.1009 68.1297 60.9161 68.5022 60.9161 68.3159C60.9161 68.3159 60.9161 68.3159 61.1009 68.1297L61.2858 67.9435L61.4707 67.7572C61.4707 67.7572 61.4707 67.7572 61.6556 67.571C61.6556 67.571 61.8404 67.3848 61.6556 67.571C61.8404 67.571 61.8404 67.3848 62.0253 67.3848C62.395 67.1985 62.395 66.8261 62.2102 66.4536C62.0253 66.0811 61.6556 66.0811 61.2858 66.2673C59.6219 67.3848 58.5127 69.2471 58.5127 71.2957C58.5127 72.2269 58.5127 73.3443 58.5127 74.2754C58.5127 74.8342 58.5127 75.3929 58.8824 75.9516C59.2522 76.6965 60.1766 77.2552 60.9161 77.2552C61.4707 77.2552 62.0253 77.2552 62.5799 77.2552C64.9833 77.2552 67.3866 77.2552 69.79 77.2552C70.7144 77.2552 71.6387 77.2552 72.5631 77.2552C72.748 77.2552 72.9329 77.2552 73.1177 77.2552C74.0421 77.2552 74.9665 76.6965 75.3362 75.7653C75.5211 75.3929 75.5211 74.8342 75.5211 74.2754C75.5211 73.7167 75.5211 72.9718 75.5211 72.4131C75.5211 72.0406 75.5211 71.6682 75.5211 71.2957C75.5211 70.1783 75.1514 69.2471 74.7816 68.3159C74.227 67.3848 73.6724 66.8261 72.748 66.2673C72.3782 66.0811 72.0085 66.2673 71.8236 66.4536C72.0085 66.8261 72.0085 67.1985 72.3782 67.3848Z" fill="#FE4547" stroke="#FE4547" stroke-width="0.3" stroke-miterlimit="10"/>
<path d="M46.4959 37.587C46.4959 37.7732 46.4959 37.7732 46.4959 37.9595V38.1457C46.4959 38.3319 46.4959 37.9595 46.4959 38.1457C46.4959 38.3319 46.4959 38.5182 46.3111 38.8907V39.0769C46.3111 39.0769 46.3111 39.2631 46.3111 39.0769C46.3111 39.2631 46.3111 39.2631 46.1262 39.4494C45.9413 39.4494 45.7564 39.6356 45.7564 39.8218C45.5716 40.0081 45.7564 39.6356 45.7564 39.8218C45.7564 39.8218 45.7564 39.8218 45.5716 40.0081L45.3867 40.1943L45.2018 40.3805C45.2018 40.3805 45.2018 40.3805 45.017 40.5668C44.8321 40.753 44.6472 40.753 44.4623 40.9392C44.4623 40.9392 44.2775 40.9392 44.0926 41.1255C44.2775 41.1255 44.0926 41.1255 44.0926 41.1255H43.9077C43.7228 41.1255 43.538 41.1255 43.3531 41.3117C43.1682 41.3117 43.538 41.3117 43.3531 41.3117H43.1682C42.9833 41.3117 42.7985 41.3117 42.7985 41.3117C42.6136 41.3117 42.6136 41.3117 42.4287 41.3117H42.2438C42.4287 41.3117 42.2438 41.3117 42.2438 41.3117C42.059 41.3117 41.8741 41.1255 41.5043 41.1255H41.3195C41.1346 41.1255 41.5043 41.1255 41.3195 41.1255C41.1346 41.1255 41.1346 41.1255 41.1346 40.9392C40.9497 40.753 40.7649 40.5668 40.58 40.5668C40.7649 40.753 40.58 40.5668 40.58 40.5668C40.58 40.5668 40.58 40.5668 40.3951 40.3805L40.2102 40.1943L40.0254 40.0081C40.0254 40.0081 40.0254 40.0081 39.8405 39.8218C40.0254 40.0081 39.8405 39.8218 39.8405 39.8218C39.6556 39.6356 39.6556 39.4494 39.4707 39.2631C39.4707 39.2631 39.4707 39.2631 39.4707 39.0769C39.4707 39.0769 39.4707 38.8907 39.4707 39.0769C39.4707 38.8907 39.4707 38.8907 39.2859 38.7044C39.2859 38.5182 39.101 38.3319 39.101 38.1457C39.101 38.3319 39.101 38.1457 39.101 38.1457V37.9595C39.101 37.7732 39.101 37.7732 39.101 37.587C39.101 37.4008 39.101 37.4008 39.101 37.2145C39.101 37.2145 39.101 37.0283 39.101 37.2145V37.0283C39.101 36.8421 39.2859 36.6558 39.2859 36.2834V36.0971C39.2859 36.2834 39.2859 36.0971 39.2859 36.0971C39.2859 35.9109 39.2859 35.9109 39.4707 35.9109C39.6556 35.7247 39.6556 35.7247 39.8405 35.7247C39.8405 35.7247 39.8405 35.7247 39.8405 35.5384C39.8405 35.5384 40.0254 35.3522 39.8405 35.5384C40.0254 35.3522 40.2102 35.166 40.3951 34.9797L40.58 34.7935C40.58 34.7935 40.7649 34.6073 40.58 34.7935C40.58 34.7935 40.7649 34.7935 40.7649 34.6073C40.9497 34.421 41.1346 34.421 41.3195 34.2348H41.5043C41.6892 34.2348 41.3195 34.2348 41.5043 34.2348C41.6892 34.2348 41.6892 34.2348 41.8741 34.0485C42.059 34.0485 42.059 34.0485 42.2438 34.0485H42.4287C42.4287 34.0485 42.6136 34.0485 42.4287 34.0485C42.6136 34.0485 42.9833 34.0485 43.1682 34.0485C43.3531 34.0485 43.3531 34.0485 43.538 34.0485C43.7228 34.0485 43.3531 34.0485 43.538 34.0485H43.7228C43.9077 34.0485 44.0926 34.2348 44.4623 34.2348C44.4623 34.2348 44.6472 34.2348 44.4623 34.2348H44.6472C44.8321 34.2348 44.8321 34.2348 44.8321 34.421L45.017 34.6073C45.017 34.6073 45.017 34.6073 45.2018 34.6073C45.2018 34.6073 45.3867 34.7935 45.2018 34.6073C45.3867 34.7935 45.5716 34.7935 45.5716 34.9797L45.7564 35.166C45.7564 35.166 45.9413 35.3522 45.7564 35.166C45.7564 35.166 45.7564 35.166 45.7564 35.3522C45.9413 35.7247 45.9413 35.9109 46.1262 36.0971C46.1262 36.0971 46.1262 36.0971 46.1262 36.2834C46.1262 36.2834 46.1262 36.4696 46.1262 36.2834C46.1262 36.4696 46.1262 36.4696 46.3111 36.6558C46.3111 36.8421 46.4959 37.0283 46.4959 37.2145C46.4959 37.4008 46.4959 37.0283 46.4959 37.2145V37.4008V37.587C46.4959 37.9595 46.8657 38.3319 47.2354 38.3319C47.4203 38.3319 47.7901 37.9595 47.7901 37.587C47.7901 35.7247 46.6808 33.8623 44.8321 33.1174C42.9833 32.3724 40.9497 32.5587 39.2859 34.0485C37.9917 35.166 37.4371 37.4008 37.9917 39.2631C38.3615 40.1943 38.9161 40.9392 39.6556 41.4979C40.3951 42.2429 41.3195 42.4291 42.4287 42.6153C43.7228 42.8016 45.2018 42.2429 46.1262 41.3117C47.2354 40.3805 47.7901 39.0769 47.7901 37.587C47.7901 37.2145 47.4203 36.8421 47.0506 36.8421C46.6808 37.0283 46.4959 37.2145 46.4959 37.587Z" fill="#FE4547"/>
<path d="M46.4959 37.587C46.4959 37.7732 46.4959 37.7732 46.4959 37.9595V38.1457C46.4959 38.3319 46.4959 37.9595 46.4959 38.1457C46.4959 38.3319 46.4959 38.5182 46.3111 38.8907V39.0769C46.3111 39.0769 46.3111 39.2631 46.3111 39.0769C46.3111 39.2631 46.3111 39.2631 46.1262 39.4494C45.9413 39.4494 45.7564 39.6356 45.7564 39.8218C45.5716 40.0081 45.7564 39.6356 45.7564 39.8218C45.7564 39.8218 45.7564 39.8218 45.5716 40.0081L45.3867 40.1943L45.2018 40.3805C45.2018 40.3805 45.2018 40.3805 45.017 40.5668C44.8321 40.753 44.6472 40.753 44.4623 40.9392C44.4623 40.9392 44.2775 40.9392 44.0926 41.1255C44.2775 41.1255 44.0926 41.1255 44.0926 41.1255H43.9077C43.7228 41.1255 43.538 41.1255 43.3531 41.3117C43.1682 41.3117 43.538 41.3117 43.3531 41.3117H43.1682C42.9833 41.3117 42.7985 41.3117 42.7985 41.3117C42.6136 41.3117 42.6136 41.3117 42.4287 41.3117H42.2438C42.4287 41.3117 42.2438 41.3117 42.2438 41.3117C42.059 41.3117 41.8741 41.1255 41.5043 41.1255H41.3195C41.1346 41.1255 41.5043 41.1255 41.3195 41.1255C41.1346 41.1255 41.1346 41.1255 41.1346 40.9392C40.9497 40.753 40.7649 40.5668 40.58 40.5668C40.7649 40.753 40.58 40.5668 40.58 40.5668C40.58 40.5668 40.58 40.5668 40.3951 40.3805L40.2102 40.1943L40.0254 40.0081C40.0254 40.0081 40.0254 40.0081 39.8405 39.8218C40.0254 40.0081 39.8405 39.8218 39.8405 39.8218C39.6556 39.6356 39.6556 39.4494 39.4707 39.2631C39.4707 39.2631 39.4707 39.2631 39.4707 39.0769C39.4707 39.0769 39.4707 38.8907 39.4707 39.0769C39.4707 38.8907 39.4707 38.8907 39.2859 38.7044C39.2859 38.5182 39.101 38.3319 39.101 38.1457C39.101 38.3319 39.101 38.1457 39.101 38.1457V37.9595C39.101 37.7732 39.101 37.7732 39.101 37.587C39.101 37.4008 39.101 37.4008 39.101 37.2145C39.101 37.2145 39.101 37.0283 39.101 37.2145V37.0283C39.101 36.8421 39.2859 36.6558 39.2859 36.2834V36.0971C39.2859 36.2834 39.2859 36.0971 39.2859 36.0971C39.2859 35.9109 39.2859 35.9109 39.4707 35.9109C39.6556 35.7247 39.6556 35.7247 39.8405 35.7247C39.8405 35.7247 39.8405 35.7247 39.8405 35.5384C39.8405 35.5384 40.0254 35.3522 39.8405 35.5384C40.0254 35.3522 40.2102 35.166 40.3951 34.9797L40.58 34.7935C40.58 34.7935 40.7649 34.6073 40.58 34.7935C40.58 34.7935 40.7649 34.7935 40.7649 34.6073C40.9497 34.421 41.1346 34.421 41.3195 34.2348H41.5043C41.6892 34.2348 41.3195 34.2348 41.5043 34.2348C41.6892 34.2348 41.6892 34.2348 41.8741 34.0485C42.059 34.0485 42.059 34.0485 42.2438 34.0485H42.4287C42.4287 34.0485 42.6136 34.0485 42.4287 34.0485C42.6136 34.0485 42.9833 34.0485 43.1682 34.0485C43.3531 34.0485 43.3531 34.0485 43.538 34.0485C43.7228 34.0485 43.3531 34.0485 43.538 34.0485H43.7228C43.9077 34.0485 44.0926 34.2348 44.4623 34.2348C44.4623 34.2348 44.6472 34.2348 44.4623 34.2348H44.6472C44.8321 34.2348 44.8321 34.2348 44.8321 34.421L45.017 34.6073C45.017 34.6073 45.017 34.6073 45.2018 34.6073C45.2018 34.6073 45.3867 34.7935 45.2018 34.6073C45.3867 34.7935 45.5716 34.7935 45.5716 34.9797L45.7564 35.166C45.7564 35.166 45.9413 35.3522 45.7564 35.166C45.7564 35.166 45.7564 35.166 45.7564 35.3522C45.9413 35.7247 45.9413 35.9109 46.1262 36.0971C46.1262 36.0971 46.1262 36.0971 46.1262 36.2834C46.1262 36.2834 46.1262 36.4696 46.1262 36.2834C46.1262 36.4696 46.1262 36.4696 46.3111 36.6558C46.3111 36.8421 46.4959 37.0283 46.4959 37.2145C46.4959 37.4008 46.4959 37.0283 46.4959 37.2145V37.4008C46.4959 37.4008 46.4959 37.587 46.4959 37.587ZM46.4959 37.587C46.4959 37.9595 46.8657 38.3319 47.2354 38.3319C47.4203 38.3319 47.7901 37.9595 47.7901 37.587C47.7901 35.7247 46.6808 33.8623 44.8321 33.1174C42.9833 32.3724 40.9497 32.5587 39.2859 34.0485C37.9917 35.166 37.4371 37.4008 37.9917 39.2631C38.3615 40.1943 38.9161 40.9392 39.6556 41.4979C40.3951 42.2429 41.3195 42.4291 42.4287 42.6153C43.7228 42.8016 45.2018 42.2429 46.1262 41.3117C47.2354 40.3805 47.7901 39.0769 47.7901 37.587C47.7901 37.2145 47.4203 36.8421 47.0506 36.8421C46.6808 37.0283 46.4959 37.2145 46.4959 37.587Z" stroke="#FE4547" stroke-width="0.3" stroke-miterlimit="10"/>
<path d="M47.79 42.4292C47.9749 42.4292 47.9749 42.6154 48.1597 42.6154C48.1597 42.6154 48.3446 42.8016 48.1597 42.6154C48.1597 42.6154 48.1597 42.6154 48.3446 42.8016C48.3446 42.9879 48.5295 43.1741 48.7144 43.3603L48.8992 43.5466C48.7144 43.3603 48.8992 43.5466 48.8992 43.5466C48.8992 43.5466 48.8992 43.5466 49.0841 43.7328C49.269 43.919 49.269 44.1053 49.4539 44.2915V44.4778C49.4539 44.664 49.4539 44.2915 49.4539 44.4778C49.6387 44.664 49.6387 44.8502 49.6387 44.8502C49.6387 45.0365 49.8236 45.4089 49.8236 45.5952C49.8236 45.5952 49.8236 45.7814 49.8236 45.5952V45.7814C49.8236 45.9676 49.8236 45.9676 49.8236 46.1539V46.3401C49.8236 47.4575 49.8236 48.3887 49.8236 49.5061C49.8236 49.6923 49.8236 49.6923 49.8236 49.8786C49.8236 49.8786 49.8236 49.8786 49.8236 50.0648C49.8236 50.251 49.8236 49.8786 49.8236 50.0648V50.251C49.8236 50.251 49.8236 50.4373 49.8236 50.251C49.8236 50.4373 49.6387 50.4373 49.6387 50.6235C49.6387 50.6235 49.8236 50.4373 49.6387 50.6235L49.4539 50.8097C49.269 50.996 49.6387 50.8097 49.4539 50.8097C49.4539 50.8097 49.4539 50.8097 49.269 50.8097C49.269 50.8097 49.269 50.8097 49.0841 50.8097C49.269 50.8097 49.0841 50.8097 49.0841 50.8097H48.8992C48.7144 50.8097 49.0841 50.8097 48.8992 50.8097C48.8992 50.8097 48.8992 50.8097 48.7144 50.8097H48.5295C47.79 50.8097 47.0505 50.8097 46.311 50.8097C43.9076 50.8097 41.5043 50.8097 38.916 50.8097C38.1765 50.8097 37.437 50.8097 36.5127 50.8097H36.3278C36.3278 50.8097 36.3278 50.8097 36.1429 50.8097C35.9581 50.8097 36.3278 50.8097 36.1429 50.8097H35.9581C35.9581 50.8097 35.9581 50.8097 35.7732 50.8097C35.5883 50.8097 35.5883 50.6235 35.5883 50.6235C35.7732 50.8097 35.5883 50.6235 35.5883 50.6235C35.5883 50.6235 35.5883 50.6235 35.4034 50.4373C35.2186 50.251 35.4034 50.6235 35.4034 50.4373C35.4034 50.4373 35.4034 50.4373 35.4034 50.251C35.4034 50.251 35.4034 50.251 35.4034 50.0648C35.4034 50.251 35.4034 50.0648 35.4034 50.0648V49.8786C35.4034 50.0648 35.4034 49.8786 35.4034 49.8786V49.6923C35.4034 48.5749 35.4034 47.6437 35.4034 46.5263C35.4034 46.3401 35.4034 46.1539 35.4034 45.9676V45.7814C35.4034 45.7814 35.4034 45.5952 35.4034 45.7814C35.4034 45.5952 35.4034 45.5952 35.4034 45.4089C35.4034 45.2227 35.5883 44.8502 35.5883 44.664V44.4778C35.5883 44.664 35.5883 44.4778 35.5883 44.4778C35.5883 44.2915 35.7732 44.2915 35.7732 44.1053C36.3278 43.919 36.5127 43.7328 36.6976 43.5466C36.8824 43.3603 36.6976 43.7328 36.6976 43.5466C36.6976 43.5466 36.6976 43.5466 36.8824 43.3603L37.0673 43.1741L37.2522 42.9879C37.2522 42.9879 37.2522 42.9879 37.437 42.8016C37.437 42.8016 37.6219 42.6154 37.437 42.8016C37.6219 42.8016 37.6219 42.6154 37.8068 42.6154C38.1765 42.4292 38.1765 42.0567 37.9917 41.6842C37.8068 41.3118 37.437 41.1255 37.0673 41.3118C35.4034 42.4292 34.2942 44.2915 34.2942 46.3401C34.2942 47.2713 34.2942 48.3887 34.2942 49.3199C34.2942 49.8786 34.2942 50.4373 34.6639 50.996C35.0337 51.7409 35.9581 52.2996 36.6976 52.2996C37.2522 52.2996 37.8068 52.2996 38.3614 52.2996C40.7648 52.2996 43.1681 52.2996 45.5715 52.2996C46.4959 52.2996 47.4202 52.2996 48.3446 52.2996C48.5295 52.2996 48.7144 52.2996 48.8992 52.2996C49.8236 52.2996 50.748 51.7409 51.1177 50.8097C51.3026 50.4373 51.3026 49.8786 51.3026 49.3199C51.3026 48.7612 51.3026 48.0162 51.3026 47.4575C51.3026 47.085 51.3026 46.7126 51.3026 46.3401C51.3026 45.2227 50.9328 44.2915 50.5631 43.3603C50.0085 42.4292 49.269 41.8705 48.3446 41.3118C48.1597 41.1255 47.6051 41.3118 47.4202 41.498C47.2354 41.8705 47.4202 42.2429 47.79 42.4292Z" fill="#FE4547" stroke="#FE4547" stroke-width="0.3" stroke-miterlimit="10"/>
<path d="M54.2605 33.8623C53.8908 33.8623 53.7059 33.8623 53.3361 33.8623V35.7247V43.174V45.0364V54.3481H44.0924H42.2437H34.8487H33C33 54.7206 33 54.9068 33 55.2793C33 67.1983 42.6134 76.6963 54.2605 76.6963C54.8151 76.6963 55.1849 76.3238 55.1849 75.7651V67.3846H58.3277C58.8824 67.3846 59.2521 67.0121 59.2521 66.4534C59.2521 65.8947 58.6975 65.5222 58.3277 65.5222H55.1849V56.2105H73.6723C73.6723 56.583 73.6723 56.9554 73.6723 57.3279C73.6723 57.8866 74.042 58.2591 74.4118 58.2591C74.9664 58.2591 75.3361 57.8866 75.3361 57.5141C75.3361 56.7692 75.521 56.0242 75.521 55.2793C75.521 43.5465 65.9076 33.8623 54.2605 33.8623ZM34.8487 56.2105H42.2437C42.2437 59.5627 42.7983 62.7287 43.7227 65.5222H37.8067C36.1429 62.9149 35.0336 59.7489 34.8487 56.2105ZM39.1008 67.3846H44.2773C45.2017 69.9919 46.6807 72.2267 48.1597 73.9028C44.4622 72.7854 41.3193 70.3643 39.1008 67.3846ZM53.3361 74.834C50.563 74.2753 47.9748 71.4817 46.3109 67.3846H53.3361V74.834ZM53.3361 65.5222H45.5714C44.6471 62.7287 44.0924 59.5627 44.0924 56.2105H53.3361V65.5222ZM69.4202 43.174H64.2437C63.3193 40.5668 61.8403 38.3319 60.3613 36.6558C64.0588 37.9595 67.2017 40.1943 69.4202 43.174ZM55.1849 35.9109C57.958 36.4696 60.5462 39.2631 62.2101 43.3603H55.1849V35.9109ZM55.1849 54.3481V45.0364H62.9496C63.874 47.8299 64.4286 50.9959 64.4286 54.3481H55.1849ZM66.2773 54.3481C66.2773 50.9959 65.7227 47.8299 64.7983 45.0364H70.7143C72.3782 47.8299 73.4874 50.9959 73.4874 54.3481H66.2773Z" fill="white"/>
</svg>
