<svg width="110" height="110" viewBox="0 0 110 110" fill="none" xmlns="http://www.w3.org/2000/svg">
<path d="M52.5 1.44338C54.047 0.550213 55.953 0.550212 57.5 1.44338L100.131 26.0566C101.678 26.9498 102.631 28.6004 102.631 30.3868V79.6133C102.631 81.3996 101.678 83.0502 100.131 83.9434L57.5 108.557C55.953 109.45 54.047 109.45 52.5 108.557L9.8686 83.9434C8.3216 83.0502 7.3686 81.3996 7.3686 79.6133V30.3867C7.3686 28.6004 8.3216 26.9498 9.8686 26.0566L52.5 1.44338Z" fill="#2A3554"/>
<g clip-path="url(#clip0)">
<path d="M69.4422 56.6731C69.6365 56.6731 69.8218 56.5929 69.9585 56.4503L83.1753 43.0061C83.3832 42.7892 83.4464 42.4615 83.3334 42.1775C83.2216 41.8934 82.955 41.7072 82.6601 41.7072H42.0652C41.889 41.7072 41.7195 41.7732 41.5873 41.8934L27.8712 55.3388C27.6418 55.5463 27.5593 55.8822 27.6667 56.178C27.7729 56.4763 28.0463 56.6731 28.3502 56.6731H69.4422Z" stroke="white" stroke-width="2" stroke-miterlimit="10"/>
<path d="M63.1489 45.2103C62.9263 45.0311 62.5964 44.8967 62.1581 44.806C61.7219 44.7164 61.2113 44.6645 60.6283 44.6492L61.5005 43.7899L60.2746 43.8406L59.4001 44.694C58.7573 44.7388 58.0884 44.826 57.3981 44.9533C56.7066 45.0806 56.0389 45.248 55.3926 45.4566C54.7464 45.664 54.1385 45.9128 53.568 46.2039C52.9963 46.4939 52.515 46.8239 52.1218 47.1916C51.7365 47.5523 51.5343 47.8529 51.5117 48.091C51.4913 48.3291 51.5941 48.5271 51.8212 48.6827C52.0461 48.8418 52.359 48.9656 52.759 49.0563C53.159 49.1483 53.5815 49.2273 54.0233 49.2944C54.1476 49.3074 54.2583 49.3227 54.3611 49.3392C54.4594 49.3557 54.5374 49.3711 54.5927 49.3852L52.2122 51.7096C51.6326 51.6436 51.2518 51.4904 51.0654 51.2475C50.8812 51.0071 51.0134 50.6782 51.4642 50.261L48.486 50.2857C47.7166 51.1368 47.5426 51.7827 47.9629 52.2259C48.3866 52.6738 49.3627 52.9319 50.8891 53.0003L49.922 53.9456L51.1851 53.9574L52.1489 53.0073C53.2448 52.9743 54.2289 52.8647 55.0955 52.6797C55.9598 52.4946 56.7123 52.2789 57.3551 52.0361C57.9958 51.7921 58.5189 51.541 58.9211 51.2841C59.3267 51.0283 59.6092 50.815 59.7741 50.6476C59.9594 50.4555 60.147 50.2386 60.3379 49.9934C60.5277 49.7482 60.6068 49.5066 60.5797 49.265C60.5537 49.0245 60.3718 48.7959 60.034 48.5813C59.6962 48.368 59.0894 48.1947 58.2059 48.0651C58.041 48.0391 57.885 48.0156 57.7336 47.9967C57.5811 47.9778 57.4354 47.9602 57.2896 47.9413L59.2985 45.9623C59.7707 45.9481 60.0656 46.0412 60.1888 46.2404C60.3108 46.4408 60.2294 46.6919 59.9402 46.9936L62.906 46.9205C63.254 46.5245 63.4359 46.185 63.4551 45.9033C63.4743 45.6216 63.3738 45.3906 63.1489 45.2103ZM56.8467 50.5993C56.6682 50.7808 56.44 50.9376 56.1688 51.0707C55.8965 51.2028 55.6073 51.3147 55.2989 51.4043C54.9904 51.4951 54.6741 51.5646 54.3543 51.6141C54.0312 51.6636 53.734 51.6955 53.4674 51.7096L55.6355 49.5632C56.3417 49.674 56.7925 49.8001 56.9891 49.9427C57.1868 50.0865 57.1371 50.3058 56.8467 50.5993ZM56.2084 47.8105C55.6231 47.7433 55.2537 47.6466 55.0977 47.5217C54.9441 47.3944 54.9938 47.2117 55.2458 46.9689C55.4051 46.8145 55.5971 46.6777 55.8197 46.5622C56.0423 46.4455 56.2829 46.3465 56.5439 46.2628C56.8038 46.1815 57.0648 46.1167 57.3224 46.0742C57.5834 46.0306 57.8308 46.0047 58.0669 45.9976L56.2084 47.8105Z" fill="#FE4547"/>
<path d="M70.2964 59.4655H27.7944V62.5101H70.902C71.2873 62.5101 71.659 62.3498 71.9324 62.0634L83.3878 50.2233V45.8068L70.2964 59.4655Z" stroke="white" stroke-width="2" stroke-miterlimit="10"/>
<path d="M27.7944 65.2989V68.3435H72.3618C72.7482 68.3435 73.1188 68.182 73.3922 67.8968L83.3889 57.5124V53.1619L71.7584 65.2989H27.7944Z" stroke="white" stroke-width="2" stroke-miterlimit="10"/>
</g>
<defs>
<clipPath id="clip0">
<rect width="57" height="28" fill="white" transform="translate(27 41)"/>
</clipPath>
</defs>
</svg>
