<svg width="110" height="110" viewBox="0 0 110 110" fill="none" xmlns="http://www.w3.org/2000/svg">
<path d="M52.5 1.44338C54.047 0.550213 55.953 0.550212 57.5 1.44338L100.131 26.0566C101.678 26.9498 102.631 28.6004 102.631 30.3868V79.6133C102.631 81.3996 101.678 83.0502 100.131 83.9434L57.5 108.557C55.953 109.45 54.047 109.45 52.5 108.557L9.8686 83.9434C8.3216 83.0502 7.3686 81.3996 7.3686 79.6133V30.3867C7.3686 28.6004 8.3216 26.9498 9.8686 26.0566L52.5 1.44338Z" fill="#2A3554"/>
<g clip-path="url(#clip0)">
<path d="M55.4653 45.6093L57.1924 47.3887L58.7567 45.7769C58.7067 45.7769 58.6566 45.7769 58.6065 45.7769C57.5178 45.7898 56.4665 45.7253 55.4653 45.6093Z" fill="white"/>
<path d="M63.0495 60.2445L61.2098 58.349C60.3838 58.4264 59.5078 58.465 58.6067 58.465C56.9297 58.465 55.3779 58.3232 53.9512 58.0653L55.2527 59.5482L55.3528 60.3992C56.4041 60.5152 57.4804 60.5797 58.6067 60.5797C60.1586 60.5926 61.6479 60.4766 63.0495 60.2445Z" fill="white"/>
<path d="M58.6191 31C49.9963 31 43.2383 34.7136 43.2383 39.4458V53.1912L44.7901 52.856L45.4534 53.0623C45.3533 52.7528 45.2907 52.4433 45.2907 52.1339V50.0579C46.7299 51.4505 48.87 52.5723 51.4731 53.3073L53.1626 51.5665C48.3068 50.4963 45.3032 48.085 45.3032 45.7898V43.7139C46.367 44.7454 47.8187 45.6222 49.5458 46.3056L45.0029 41.625C44.0893 40.6837 44.0893 39.1492 45.0029 38.208C45.2657 37.9372 45.5786 37.7438 45.9165 37.6277C47.5309 35.2165 52.2365 33.0889 58.6441 33.0889C66.6161 33.0889 71.9725 36.3641 71.9725 39.4329C71.9725 41.2897 70.0077 43.2239 66.6912 44.4617L63.7878 47.4274C67.2669 46.7569 70.1453 45.4417 71.935 43.7139V45.7898C71.935 48.4461 67.9052 51.27 61.6352 51.9663L63.4499 53.8359C67.0792 53.1912 70.0828 51.8373 71.935 50.0579V52.1339C71.935 53.9778 69.9701 55.9119 66.6662 57.1498L68.2431 58.7745C69.7323 58.1169 70.9838 57.3174 71.9475 56.4019V58.4779C71.9475 59.5481 71.2967 60.6442 70.1078 61.6112C70.1328 62.256 69.9076 62.9007 69.432 63.4036C68.9814 63.8549 68.4058 64.1128 67.78 64.1128C67.2669 64.1128 66.7788 63.9322 66.3658 63.6228C64.2508 64.3706 61.6227 64.8348 58.6316 64.8348C57.6805 64.8348 56.7669 64.7833 55.8909 64.7059L56.0786 66.2532L55.9785 66.8077C56.842 66.885 57.7305 66.9237 58.6316 66.9237C67.2544 66.9237 74.0124 63.223 74.0124 58.4908V39.4587C73.9999 34.7136 67.2419 31 58.6191 31Z" fill="white"/>
<path d="M58.6567 50.7025L68.4558 40.6062C68.8813 40.1678 68.8813 39.4586 68.4558 39.0202C68.0303 38.5818 67.342 38.5818 66.9165 39.0202L57.1173 49.1165L47.3182 39.0202C46.8927 38.5818 46.2044 38.5818 45.7788 39.0202C45.3533 39.4586 45.3533 40.1678 45.7788 40.6062L55.578 50.7025L45.7788 60.7859C45.3533 61.2243 45.3533 61.9335 45.7788 62.3719C45.9916 62.5911 46.2669 62.7072 46.5548 62.7072C46.8301 62.7072 47.1179 62.5911 47.3307 62.3719L57.1299 52.2756L66.929 62.3719C67.1418 62.5911 67.4171 62.7072 67.7049 62.7072C67.9803 62.7072 68.2681 62.5911 68.4809 62.3719C68.9064 61.9335 68.9064 61.2243 68.4809 60.7859L58.6567 50.7025Z" fill="#FE4547"/>
<path d="M53.2378 58.3103C54.6269 60.1929 55.4529 62.5396 55.4529 65.0669C55.4529 71.2433 50.5471 76.2851 44.565 76.2851C38.5703 76.2851 33.677 71.2305 33.677 65.0669C33.677 58.8518 38.5828 53.8488 44.565 53.8488C46.4046 53.8488 48.1442 54.3259 49.671 55.164L50.8975 53.9004C49.0328 52.7786 46.8677 52.121 44.565 52.121C41.5864 52.121 38.8456 53.2041 36.6806 54.9964C33.8272 57.3819 32 61.0052 32 65.0669C32 72.1846 37.6442 78 44.5524 78C51.4607 78 57.1049 72.1846 57.1049 65.0669C57.1049 62.0625 56.1037 59.2903 54.4142 57.0853L53.2378 58.3103Z" fill="white"/>
<path d="M51.4732 64.0482H38.9458V66.0855H51.4732V64.0482Z" fill="white"/>
</g>
<defs>
<clipPath id="clip0">
<rect width="42" height="47" fill="white" transform="translate(32 31)"/>
</clipPath>
</defs>
</svg>
