<svg width="265" height="66" viewBox="0 0 265 66" fill="none" xmlns="http://www.w3.org/2000/svg">
<g clip-path="url(#clip0)">
<path d="M183.566 33.1746H0V35.8132H183.566V33.1746Z" fill="#ED1C2E"/>
<path d="M262.663 33.1957C262.668 39.2176 260.882 45.1056 257.534 50.1149C254.185 55.1242 249.424 59.0299 243.851 61.3381C238.278 63.6463 232.145 64.2533 226.227 63.0823C220.308 61.9113 214.871 59.0149 210.602 54.7594C206.333 50.504 203.424 45.0806 202.244 39.1751C201.063 33.2696 201.663 27.1472 203.969 21.5823C206.275 16.0174 210.182 11.2599 215.196 7.91143C220.211 4.56294 226.108 2.77388 232.142 2.77052C236.147 2.76772 240.114 3.5525 243.816 5.08005C247.518 6.6076 250.882 8.84799 253.716 11.6733C256.551 14.4986 258.8 17.8534 260.335 21.5463C261.87 25.2391 262.661 29.1976 262.663 33.1957" fill="white"/>
<path d="M247.522 48.9424C246.098 48.2274 244.627 47.4827 242.405 47.4827C240.418 47.4827 238.828 48.2147 237.288 48.9169C235.685 49.6574 234.014 50.4277 231.801 50.4277C229.848 50.4277 228.389 49.7425 226.812 49.019C225.234 48.2955 223.524 47.4954 221.268 47.4954C219.286 47.4954 217.699 48.2232 216.152 48.9041C214.536 49.6361 212.856 50.3894 210.638 50.3894H210.289C210.515 50.6661 210.745 50.9427 210.992 51.2193C213.209 51.147 214.881 50.3937 216.493 49.6702C218.028 48.9892 219.478 48.3381 221.264 48.3381C223.324 48.3381 224.842 49.0361 226.436 49.7766C228.031 50.5171 229.643 51.2619 231.783 51.2619C234.188 51.2619 235.932 50.4618 237.625 49.6744C239.143 48.985 240.584 48.3211 242.384 48.3211C244.426 48.3211 245.744 48.9892 247.138 49.6915C248.66 50.4618 250.238 51.2619 252.822 51.2661C253.074 50.9895 253.317 50.7001 253.547 50.415C253.33 50.415 253.121 50.4405 252.869 50.4405C250.456 50.4405 248.963 49.6872 247.518 48.9509" fill="#99877D"/>
<path d="M242.388 49.0745C240.401 49.0745 238.81 49.8022 237.271 50.5087C235.668 51.2492 233.996 52.011 231.779 52.011C229.83 52.011 228.368 51.3301 226.794 50.6151C225.221 49.9001 223.507 49.0957 221.251 49.0957C219.268 49.0957 217.682 49.8107 216.134 50.5044C214.761 51.1173 213.346 51.7514 211.606 51.9301C211.836 52.177 212.075 52.4281 212.322 52.6749C213.765 52.3935 215.162 51.9167 216.475 51.2577C218.011 50.5725 219.46 49.9214 221.247 49.9214C223.306 49.9214 224.824 50.6236 226.419 51.3641C228.014 52.1046 229.626 52.8494 231.762 52.8494C234.167 52.8494 235.915 52.0408 237.608 51.2662C239.126 50.564 240.567 49.9086 242.367 49.9086C244.409 49.9086 245.727 50.5768 247.121 51.279C248.439 52.0313 249.884 52.5362 251.385 52.7686C251.641 52.5132 251.888 52.2579 252.131 52.0025C250.119 51.8663 248.771 51.1896 247.479 50.5385C246.055 49.8192 244.584 49.0745 242.362 49.0745" fill="#99877D"/>
<path d="M242.388 50.6449C240.401 50.6449 238.811 51.3769 237.271 52.0834C235.668 52.8196 233.996 53.5899 231.779 53.5899C229.831 53.5899 228.368 52.909 226.795 52.1813C225.221 51.4535 223.507 50.6619 221.251 50.6619C219.269 50.6619 217.682 51.3769 216.135 52.0706C215.111 52.568 214.043 52.9698 212.945 53.2708C213.192 53.4921 213.427 53.6963 213.678 53.9304C214.634 53.6246 215.569 53.2564 216.476 52.8281C218.011 52.1429 219.46 51.4918 221.247 51.4918C223.307 51.4918 224.825 52.1983 226.419 52.9345C228.014 53.6708 229.626 54.4156 231.762 54.4156C234.167 54.4156 235.915 53.6112 237.608 52.8367C239.126 52.1387 240.567 51.479 242.367 51.479C244.409 51.479 245.727 52.1472 247.121 52.8452C248.036 53.3466 249.001 53.7517 249.999 54.0538C250.255 53.8325 250.507 53.6282 250.754 53.3771C249.617 53.1 248.522 52.6705 247.501 52.1004C246.076 51.3854 244.605 50.6406 242.384 50.6406" fill="#99877D"/>
<path d="M242.388 52.228C240.401 52.228 238.81 52.9558 237.271 53.6623C235.668 54.3985 233.996 55.1603 231.779 55.1603C229.83 55.1603 228.368 54.4836 226.794 53.7601C225.221 53.0366 223.507 52.2365 221.251 52.2365C219.268 52.2365 217.682 52.9558 216.134 53.6452C215.529 53.9219 214.915 54.2027 214.271 54.4326C214.523 54.6368 214.774 54.8582 215.034 55.0326C215.525 54.8369 216.011 54.6071 216.475 54.4028C218.011 53.7176 219.46 53.0707 221.247 53.0707C223.306 53.0707 224.824 53.7686 226.419 54.5134C228.014 55.2582 229.626 55.9987 231.762 55.9987C234.167 55.9987 235.915 55.1901 237.608 54.4155C239.126 53.7176 240.567 53.0537 242.367 53.0537C244.409 53.0537 245.727 53.7176 247.121 54.4283C247.611 54.6752 248.102 54.922 248.63 55.1476C248.895 54.956 249.146 54.7603 249.402 54.556C248.754 54.3059 248.119 54.0218 247.5 53.7048C246.076 52.9856 244.605 52.2451 242.384 52.2451" fill="#99877D"/>
<path d="M242.388 53.8027C240.401 53.8027 238.81 54.5262 237.271 55.2327C235.668 55.9732 233.996 56.7435 231.779 56.7435C229.83 56.7435 228.368 56.0541 226.794 55.3348C225.221 54.6156 223.507 53.8155 221.251 53.8155C219.268 53.8155 217.682 54.5305 216.134 55.2199L215.605 55.4583L216.39 56.02C216.428 56.02 216.45 55.9902 216.475 55.9817C218.01 55.2923 219.46 54.6454 221.247 54.6454C223.306 54.6454 224.824 55.3476 226.419 56.0881C228.014 56.8287 229.626 57.5692 231.762 57.5692C234.167 57.5692 235.915 56.7606 237.608 55.9902C239.126 55.288 240.567 54.6326 242.366 54.6326C244.409 54.6326 245.726 55.2923 247.121 56.003L247.313 56.0924C247.564 55.9222 247.824 55.7392 248.084 55.5519L247.5 55.2582C246.076 54.5433 244.605 53.8027 242.383 53.8027" fill="#99877D"/>
<path d="M237.275 56.8073C235.672 57.5478 234.001 58.3139 231.788 58.3139C229.835 58.3139 228.376 57.6329 226.799 56.9052C225.221 56.1774 223.511 55.3858 221.255 55.3858C219.785 55.4268 218.339 55.7763 217.013 56.4115C217.307 56.5987 217.593 56.7732 217.891 56.9477C218.954 56.4859 220.097 56.2371 221.255 56.2157C223.315 56.2157 224.833 56.9179 226.428 57.6584C228.022 58.399 229.634 59.1437 231.775 59.1437C234.175 59.1437 235.924 58.3394 237.616 57.5606C239.134 56.8626 240.576 56.2029 242.375 56.2029C243.59 56.2006 244.791 56.4651 245.893 56.9775C246.179 56.8115 246.469 56.6328 246.746 56.4583C245.396 55.7513 243.895 55.3791 242.371 55.373C240.384 55.373 238.793 56.1008 237.254 56.8073" fill="#99877D"/>
<path d="M231.928 2.47053e-06C225.39 0.00168584 218.998 1.93853 213.562 5.56564C208.126 9.19275 203.889 14.3472 201.388 20.3773C198.887 26.4075 198.233 33.0424 199.51 39.4432C200.787 45.844 203.936 51.7233 208.561 56.3375C213.185 60.9518 219.076 64.0939 225.49 65.3665C231.903 66.6392 238.551 65.9852 244.592 63.4872C250.633 60.9893 255.796 56.7596 259.429 51.3329C263.061 45.9063 265 39.5264 265 33C265.001 28.6655 264.146 24.3734 262.484 20.3688C260.822 16.3643 258.386 12.7258 255.314 9.66122C252.243 6.59667 248.597 4.1661 244.584 2.5084C240.572 0.850689 236.271 -0.00167479 231.928 2.47053e-06V2.47053e-06ZM231.928 60.7398C226.432 60.7398 221.058 59.1128 216.488 56.0648C211.917 53.0167 208.355 48.6843 206.251 43.6156C204.148 38.5468 203.597 32.9692 204.67 27.5883C205.742 22.2073 208.389 17.2645 212.276 13.385C216.163 9.50557 221.115 6.86361 226.506 5.79327C231.898 4.72292 237.486 5.27226 242.564 7.37182C247.643 9.47137 251.983 13.0268 255.037 17.5886C258.091 22.1504 259.721 27.5136 259.721 33C259.721 36.6428 259.002 40.25 257.606 43.6156C256.209 46.9811 254.162 50.0391 251.581 52.615C249 55.1908 245.936 57.2341 242.564 58.6282C239.192 60.0222 235.578 60.7398 231.928 60.7398" fill="#ED1C2E"/>
<path d="M247.394 24.816C247.189 25.8417 246.115 26.9439 245.565 27.3695C244.286 28.408 235.715 33.6257 234.747 34.8386C233.779 36.0515 233.617 37.8177 233.617 39.1753V49.2064H234.947V46.5975C235.041 45.3221 235.594 44.1235 236.504 43.2226C238.273 41.3799 242.358 39.0689 245.032 37.1282C247.27 35.4897 247.415 33.2682 247.415 31.3445V24.4968L247.394 24.816Z" fill="#00A94F"/>
<path d="M233.625 34.2384C234.576 33.051 243.394 27.6759 244.656 26.646C245.919 25.616 247.402 24.0414 247.402 22.0667V10.8269C247.402 12.4016 246.52 13.6188 245.373 15.1083C244.068 16.8107 238.124 20.0111 235.203 22.0667C232.282 24.1222 231.255 26.1778 231.255 28.7058V49.2233H232.572V38.5028C232.572 37.1622 232.675 35.4216 233.625 34.2469" fill="#00A94F"/>
<path d="M226.922 22.6158C224.232 20.5645 218.748 16.1341 218.109 15.2659C217.469 14.3977 216.053 12.8188 216.053 10.9207V21.3518C216.102 22.5536 216.427 23.728 217.005 24.7836C217.583 25.8392 218.397 26.7475 219.384 27.4377C221.993 29.3315 225.66 32.1191 226.765 33.2129C227.869 34.3066 228.897 36.3027 228.897 39.1711V49.2405H230.206V29.1528C230.206 25.9056 229.617 24.6714 226.922 22.6158" fill="#00A94F"/>
<path d="M72.693 41.9457H70.011L66.6637 46.1463V41.9457H64.3867V52.2109H66.6637V47.7124C66.8087 47.9082 70.1474 52.2109 70.1474 52.2109H73.0512L68.5868 46.6783C68.6337 46.6187 72.8508 41.9287 72.8508 41.9287L72.693 41.9457Z" fill="#98867D"/>
<path d="M85.2505 44.7631C85.2505 46.325 86.2568 47.0273 87.762 47.6018L87.9411 47.6614C88.7726 47.9508 89.6467 48.2572 89.6467 49.1935C89.656 49.3789 89.6272 49.5642 89.562 49.738C89.4967 49.9118 89.3965 50.0704 89.2674 50.204C89.1383 50.3376 88.9832 50.4434 88.8115 50.5148C88.6399 50.5862 88.4554 50.6218 88.2694 50.6192C87.8424 50.5957 87.4319 50.4465 87.0897 50.1906C86.7475 49.9346 86.4888 49.5832 86.3463 49.1807L86.3122 49.0828L84.8198 50.4277L84.8454 50.4617C85.1971 51.0697 85.7021 51.575 86.3104 51.9275C86.9186 52.2799 87.6088 52.4671 88.3121 52.4705C90.5507 52.4705 91.9962 51.0916 91.9962 48.9552C91.9962 46.9251 90.4483 46.325 89.2075 45.8399C88.3121 45.4951 87.6128 45.2228 87.6128 44.5631C87.6462 44.2475 87.7997 43.9567 88.0417 43.7508C88.2838 43.5449 88.5957 43.4396 88.9133 43.4566C89.2246 43.4569 89.5316 43.5302 89.8093 43.6707C90.0871 43.8112 90.3279 44.0148 90.5123 44.2652L90.5635 44.3375L91.6422 42.8693L91.6167 42.8352C90.7548 42.1073 89.6669 41.6998 88.538 41.6819C86.6747 41.6819 85.259 43.014 85.259 44.7716" fill="#98867D"/>
<path d="M96.6055 41.9458H94.3967V52.2109H96.6694V41.9458H96.6055Z" fill="#98867D"/>
<path d="M107.833 41.9457H105.146C105.146 41.9457 101.948 45.9463 101.799 46.1463V41.9457H99.5222V52.2109H101.799V47.7124L105.274 52.2109H108.187C108.187 52.2109 103.769 46.7676 103.722 46.6783C103.765 46.6187 107.986 41.9287 107.986 41.9287L107.833 41.9457Z" fill="#98867D"/>
<path d="M131.63 41.6736H130.027V52.2111H132.3V45.3762C132.449 45.5634 138.065 52.4111 138.065 52.4111H139.706V41.946H137.425V48.7085C137.284 48.5213 131.66 41.6736 131.66 41.6736H131.63Z" fill="#98867D"/>
<path d="M163.883 41.6736H162.28V52.2111H164.553V45.3762L170.317 52.4111H171.959V41.946H169.708V48.7085L163.917 41.6736H163.883Z" fill="#98867D"/>
<path d="M182.926 41.9457H180.253C180.253 41.9457 177.046 45.9463 176.897 46.1463V41.9457H174.62V52.2109H176.897V47.7124L180.368 52.2109H183.276L178.811 46.6783L183.075 41.9287L182.926 41.9457Z" fill="#98867D"/>
<path d="M79.6347 41.6736H77.9291L73.5713 52.2111H75.9847C75.9847 52.2111 76.8631 50.1215 76.893 50.0832H80.6496C80.6794 50.1683 81.5024 52.2111 81.5024 52.2111H83.9243L79.6901 41.6736H79.6347ZM78.6924 44.8442C78.7862 45.074 79.9716 48.2234 80.0057 48.3425H77.5454C77.5923 48.1936 78.6327 45.057 78.6924 44.8442Z" fill="#98867D"/>
<path d="M107.671 47.0528C107.667 47.8067 107.822 48.553 108.126 49.2435C108.429 49.934 108.874 50.5534 109.432 51.0618C110.467 51.9947 111.819 52.4998 113.214 52.4747C114.315 52.4977 115.396 52.185 116.314 51.5785C117.232 50.972 117.943 50.1004 118.351 49.0802C118.76 48.06 118.847 46.9396 118.601 45.8686C118.355 44.7976 117.788 43.827 116.975 43.0863C115.942 42.1543 114.593 41.6491 113.201 41.6734C112.481 41.6552 111.765 41.7808 111.094 42.0428C110.423 42.3048 109.812 42.6979 109.296 43.199C108.779 43.7001 108.368 44.2992 108.087 44.9609C107.806 45.6227 107.66 46.3339 107.658 47.0528H107.671ZM111.27 49.6063C110.891 49.2751 110.584 48.8718 110.364 48.4202C110.144 47.9685 110.017 47.4775 109.99 46.9762C109.995 46.1272 110.33 45.3133 110.925 44.707C111.521 44.1008 112.33 43.75 113.18 43.7289C113.948 43.7237 114.689 44.0114 115.252 44.5333C115.594 44.8404 115.869 45.2148 116.059 45.633C116.249 46.0513 116.35 46.5042 116.357 46.9634C116.357 48.521 114.932 50.4021 113.167 50.4021C112.451 50.3842 111.766 50.1004 111.248 49.6063" fill="#98867D"/>
<path d="M120.77 41.9458H120.714V52.2109H122.996V48.2019C123.145 48.4403 125.614 52.2109 125.614 52.2109H128.347L125.213 47.904C125.86 47.7697 126.439 47.4109 126.846 46.8913C127.254 46.3716 127.464 45.7247 127.439 45.0653C127.437 44.836 127.42 44.6071 127.388 44.3802C127.294 43.785 127.007 43.2373 126.569 42.8225C125.921 42.2395 124.949 41.9458 123.669 41.9458H120.77ZM123.239 43.6481C124.019 43.6481 124.518 43.7673 124.799 44.0397C124.991 44.2165 125.114 44.4542 125.149 44.7121C125.166 44.8333 125.175 44.9557 125.175 45.0781C125.175 46.1463 124.582 46.5932 123.2 46.5932H122.996V43.6481H123.239Z" fill="#98867D"/>
<path d="M142.563 41.9458H142.521V52.2109H145.974C148.217 52.2109 149.556 51.1087 149.556 49.2829C149.559 49.096 149.544 48.9092 149.509 48.7254C149.455 48.2467 149.253 47.7965 148.933 47.4362C148.612 47.0759 148.188 46.8232 147.718 46.7124C148.017 46.4856 148.256 46.1904 148.415 45.8518C148.575 45.5133 148.65 45.1413 148.635 44.7674C148.635 44.5365 148.616 44.306 148.58 44.078C148.508 43.5517 148.256 43.0663 147.868 42.7033C147.305 42.1969 146.448 41.9458 145.249 41.9458H142.563ZM145.092 47.7891C145.838 47.7891 146.537 47.8189 146.938 48.1849C147.109 48.3471 147.221 48.561 147.258 48.7935C147.275 48.8947 147.284 48.9972 147.283 49.0999C147.283 50.4022 146.29 50.5086 145.177 50.5086H144.797C144.797 50.3894 144.797 47.8742 144.797 47.7891H145.092ZM145.019 43.6439C145.429 43.6035 145.839 43.7124 146.175 43.9503C146.34 44.1124 146.447 44.3252 146.478 44.5546C146.499 44.6639 146.508 44.7753 146.503 44.8866C146.503 45.8399 146.111 46.1634 144.985 46.1634H144.797C144.797 46.0442 144.797 43.7205 144.797 43.6354L145.019 43.6439Z" fill="#98867D"/>
<path d="M156.622 41.6736H154.916L150.558 52.2111H152.963C152.963 52.2111 153.854 50.1215 153.88 50.0832H157.632L158.485 52.2111H160.92L156.656 41.6736H156.622ZM155.683 44.8442C155.777 45.074 156.963 48.2234 156.992 48.3425H154.532C154.579 48.1936 155.615 45.057 155.683 44.8442Z" fill="#98867D"/>
<path d="M35.6302 42.333H32.1934L32.2062 43.4821H35.7197L35.7112 42.333H35.6302Z" fill="#98867D"/>
<path d="M38.0137 47.0955H36.6194L36.662 50.2746V51.0364C36.6497 51.1953 36.6745 51.3548 36.7344 51.5025C36.7943 51.6502 36.8878 51.782 37.0074 51.8876C37.318 52.1312 37.6997 52.2672 38.0947 52.2748H39.6937V51.0534H38.632C38.5311 51.0538 38.4327 51.0225 38.3506 50.964C38.3028 50.9166 38.2662 50.8591 38.2434 50.7958C38.2205 50.7325 38.212 50.665 38.2184 50.598V50.2576L38.1843 47.1125L38.0137 47.0955Z" fill="#98867D"/>
<path d="M33.7839 44.8655H32.4066L32.3554 50.2747V51.0365C32.3409 51.196 32.365 51.3566 32.4259 51.5048C32.4868 51.653 32.5825 51.7843 32.7051 51.8877C33.0129 52.1304 33.3917 52.2664 33.7839 52.2749H35.8178V51.0535H34.3297C34.2245 51.0566 34.1211 51.0252 34.0355 50.9641C33.989 50.9149 33.9533 50.8566 33.9305 50.7928C33.9078 50.7291 33.8985 50.6614 33.9033 50.5939V50.2577L33.9459 44.8825L33.7839 44.8655Z" fill="#98867D"/>
<path d="M41.8386 41.8694H36.564L36.6279 47.4744H40.8493C41.0116 47.4828 41.1739 47.4565 41.3252 47.3972C41.4765 47.3378 41.6133 47.2468 41.7264 47.1303C41.8395 47.0138 41.9263 46.8744 41.981 46.7216C42.0356 46.5688 42.0568 46.4061 42.0432 46.2444L41.9963 41.8694H41.8386ZM40.457 43.01C40.457 43.2483 40.4826 45.5082 40.4826 45.5082C40.4826 46.321 40.3717 46.321 39.698 46.321H38.163C38.163 46.0827 38.1289 43.1887 38.1289 43.01H40.457Z" fill="#98867D"/>
<path d="M41.2629 44.0994H37.2888L37.2973 45.2527L41.4249 45.2442L41.4079 44.0994H41.2629Z" fill="#98867D"/>
<path d="M40.342 47.8743H38.9775L40.0265 50.4832L40.3889 51.411C40.6107 51.9983 40.858 52.2962 41.5871 52.2919H42.6403V51.1684H42.3418C41.9154 51.1684 41.7449 51.0875 41.4336 50.3427L40.3975 47.8616L40.342 47.8743Z" fill="#98867D"/>
<path d="M31.4769 44.1547L31.4556 45.1719H35.7452L35.7409 44.1164L31.4769 44.1079V44.1547Z" fill="#98867D"/>
<path d="M35.7451 46.3293L30.4023 46.3336L30.4194 47.504H35.7622L35.7451 46.3293Z" fill="#98867D"/>
<path d="M41.7362 47.8615C41.7362 47.8615 41.459 48.8488 41.459 48.8616C41.4012 48.9943 41.299 49.1029 41.1699 49.1689C41.0409 49.2348 40.8929 49.2541 40.7512 49.2234L40.6787 49.1936V50.2958H41.6381C42.427 50.2958 42.4909 49.7085 42.4909 49.7C42.4909 49.6915 42.9557 47.9083 42.9557 47.9083L42.977 47.8359H41.7447L41.7362 47.8615Z" fill="#98867D"/>
<path d="M33.7711 41.7458H32.3299L31.1275 44.0696C30.9867 44.2866 30.5134 44.2781 30.5134 44.2781H30.458L30.4836 45.3718H31.3876C31.5486 45.3805 31.7081 45.3371 31.8425 45.2482C31.9769 45.1593 32.079 45.0295 32.1338 44.8782C32.1338 44.8782 33.8394 41.8352 33.8394 41.8352L33.8905 41.7458H33.7711Z" fill="#98867D"/>
<path d="M55.8202 41.9033H50.665L50.6949 43.3716H56.1614L56.1187 41.9033H55.8202Z" fill="#98867D"/>
<path d="M49.0105 41.7756H47.6844L46.6397 44.0993C46.5459 44.2823 46.1664 44.2781 46.1664 44.2781H46.0513L46.0811 45.4655H46.9851C47.1448 45.4727 47.3021 45.4251 47.4309 45.3306C47.5597 45.2362 47.6521 45.1005 47.6929 44.9463C47.6929 44.9463 49.1512 41.9671 49.1512 41.9671L49.2407 41.7927L49.0105 41.7756Z" fill="#98867D"/>
<path d="M48.3325 44.9123L47.6034 46.389C47.403 46.7678 47.2281 46.9253 46.9979 46.9125H46.354L46.4009 48.1467H47.2964C47.6033 48.147 47.9039 48.0593 48.1624 47.8941C48.4209 47.7289 48.6265 47.4931 48.7546 47.2147C48.7546 47.2147 49.8292 45.0272 49.8292 45.0272L49.9059 44.8569H48.3624L48.3325 44.9123Z" fill="#98867D"/>
<path d="M48.273 47.0232H46.8147L46.9128 52.2494H48.6653L48.5843 47.0232H48.273Z" fill="#98867D"/>
<path d="M55.5645 45.6101H54.1019L54.2341 50.1043V50.3043C54.2341 50.7852 54.2341 50.8108 54.1147 50.8108H50.8186L50.8485 52.2918L54.6861 52.3216C55.0101 52.3216 56.0633 52.211 56.0292 51.0449V50.3128L55.9056 45.6314L55.5645 45.6101Z" fill="#98867D"/>
<path d="M56.076 44.9121H50.5029L50.5498 46.3591H56.4214L56.3787 44.9121H56.076Z" fill="#98867D"/>
<path d="M27.0721 41.9629H16.3396L16.3652 43.1673L27.2896 43.2014L27.2811 41.9629H27.0721Z" fill="#98867D"/>
<path d="M27.1361 45.2568H16.4121L16.4292 46.457H27.3152L27.2939 45.2568H27.1361Z" fill="#98867D"/>
<path d="M26.5947 43.7375H16.958V44.6909H26.7311L26.7397 43.7375H26.5947Z" fill="#98867D"/>
<path d="M22.5523 41.2734H21.0385L21.0215 46.3422H22.7527L22.7143 41.2734H22.5523Z" fill="#98867D"/>
<path d="M22.5609 46.938H21.0429L21.1026 50.2065V50.7215C21.1026 51.0662 21.0771 51.0662 20.8169 51.0789H20.1646V51.1768V52.2706H21.6058C21.7692 52.2859 21.934 52.2639 22.0877 52.2063C22.2414 52.1487 22.3799 52.057 22.4928 51.9381C22.6058 51.8193 22.6902 51.6763 22.7397 51.5201C22.7891 51.3639 22.8024 51.1985 22.7784 51.0364V50.2405L22.7102 46.938H22.5609Z" fill="#98867D"/>
<path d="M17.2138 51.496C17.4103 51.4687 17.5988 51.4004 17.767 51.2955C17.9353 51.1907 18.0795 51.0516 18.1903 50.8874C18.1903 50.8874 18.4589 50.4618 18.4845 50.4277H19.9044L19.8234 50.5214L19.316 51.181L19.2008 51.3087C18.4845 52.1599 18.4589 52.2067 17.2905 52.2067H16.4377C16.4377 52.1003 16.4377 51.5811 16.4377 51.5002H17.2138" fill="#98867D"/>
<path d="M18.4289 46.1463C18.4289 46.1463 19.4907 46.1463 19.8958 46.1463C19.8639 46.1758 19.8353 46.2086 19.8105 46.2442L19.2945 46.8953C18.4673 47.8827 18.3565 47.9125 17.542 47.8529H16.4504C16.4504 47.7465 16.4504 47.223 16.4504 47.1379H17.0389C17.2181 47.1602 17.4001 47.1322 17.5642 47.057C17.7284 46.9818 17.8684 46.8625 17.9684 46.7123L17.9983 46.6655L18.2243 46.3846L18.4417 46.1335" fill="#98867D"/>
<path d="M24.9401 46.3891C24.9401 46.3891 25.2727 46.6657 25.2727 46.67L25.3238 46.7168C25.4648 46.8614 25.6352 46.9742 25.8234 47.0476C26.0117 47.121 26.2136 47.1533 26.4154 47.1424H27.3194C27.3407 47.2232 27.3194 47.7467 27.3194 47.8531H26.1767C25.3793 47.9127 25.2556 47.8829 24.0446 46.8955L23.2814 46.2444L23.1663 46.1465C23.5585 46.1465 24.616 46.1465 24.616 46.1465L24.9273 46.3976" fill="#98867D"/>
<path d="M16.5146 48.551C16.4861 48.5119 16.4532 48.4762 16.4165 48.4446H17.8535L17.9388 48.5467C18.2458 48.9 18.6551 48.9255 19.1625 48.934H19.9258C19.9258 49.0489 19.9258 49.6618 19.9258 49.7426H18.7617C17.5422 49.7426 17.3631 49.5809 16.715 48.8191L16.5103 48.5382" fill="#98867D"/>
<path d="M25.2515 50.4364L25.5543 50.8619C25.6687 51.0344 25.8189 51.1802 25.9947 51.2896C26.1706 51.399 26.3679 51.4694 26.5734 51.4961H27.3239C27.3239 51.5982 27.3239 52.1217 27.3239 52.2025H26.4711C25.324 52.2025 25.2942 52.1642 24.5522 51.3131L24.4328 51.1769L23.8998 50.53C23.8737 50.4915 23.8437 50.4559 23.8103 50.4236H25.2515" fill="#98867D"/>
<path d="M25.8228 48.5722C25.8228 48.5722 25.9251 48.4402 25.9337 48.436C25.9422 48.4317 26.94 48.436 27.3237 48.436C27.2896 48.4828 27.2427 48.5339 27.2427 48.5339L27.0423 48.8147C26.4411 49.5638 26.2407 49.7425 25.0212 49.7468H23.8784C23.8784 49.6404 23.8784 49.019 23.8784 48.9382H24.6673C25.2472 48.9382 25.5926 48.8743 25.8527 48.5679" fill="#98867D"/>
<path d="M13.0607 46.2229H0.622559L0.631087 47.4018H13.2611L13.2526 46.2229H13.0607Z" fill="#98867D"/>
<path d="M12.0757 41.9075H1.5564L1.56492 43.0863H12.2804L12.2719 41.9075H12.0757Z" fill="#98867D"/>
<path d="M9.75599 42.1926H8.41709L8.4043 52.3046L10.0374 52.3344V42.2224L9.75599 42.1926Z" fill="#98867D"/>
<path d="M5.7565 42.5586V49.3084C5.7565 49.3084 5.70107 50.666 4.9037 51.381C4.10633 52.096 3.88033 52.3471 3.88033 52.3471L2.69067 51.2533L3.61596 50.4022C3.61596 50.4022 4.10206 49.9766 4.10206 48.5934V42.5586H5.7565Z" fill="#98867D"/>
<path d="M8.73269 14.5422C11.6578 15.6019 12.7579 14.8487 12.8048 14.8189L12.8944 14.755L12.2761 12.2015L12.0799 12.3164C12.0799 12.3164 11.2826 12.742 9.09513 12.0057C7.05266 11.2993 5.25751 11.3248 3.76937 12.0738C1.42843 13.2527 0.699282 15.7977 0.669434 15.9041V17.6448H3.22784V23.9477H1.74823V26.7268H8.6005C9.42346 26.7268 10.1952 26.7268 10.8604 26.165C11.6194 25.5054 11.6791 24.5903 11.6791 23.5604V19.7727C11.6791 18.3683 11.3977 17.2958 10.0034 16.3042C8.32334 15.121 5.31295 15.0742 4.21709 15.0998C4.74157 14.6018 6.17001 13.6357 8.73269 14.5422ZM8.81797 20.3983V22.9263C8.83903 23.0785 8.82668 23.2335 8.78177 23.3805C8.73685 23.5274 8.66045 23.6629 8.55786 23.7775C8.30014 23.9267 8.00117 23.9894 7.70506 23.9562H6.15722V17.7937C6.76209 17.8287 7.35242 17.9927 7.88841 18.2746C8.81797 18.8577 8.81797 19.6408 8.81797 20.4026" fill="#98867D"/>
<path d="M41.7019 16.2787C41.7019 12.874 39.2629 11.376 36.8537 11.376C35.8085 11.3765 34.7814 11.6483 33.8731 12.1646C32.9648 12.6809 32.2067 13.424 31.673 14.321L31.6047 14.4445L33.9201 16.0064L34.0096 15.8319C34.2688 15.3524 34.6441 14.9453 35.1015 14.6479C35.5589 14.3506 36.0836 14.1723 36.6277 14.1295C37.186 14.1103 37.7296 14.3105 38.1415 14.687C38.3724 14.918 38.553 15.1941 38.6718 15.4981C38.7907 15.802 38.8453 16.1272 38.8322 16.4532V26.7269H41.7019V16.2787Z" fill="#98867D"/>
<path d="M69.4352 16.2787C69.4352 12.874 66.9962 11.376 64.5828 11.376C63.5382 11.3769 62.5117 11.6488 61.6042 12.1651C60.6967 12.6814 59.9393 13.4244 59.4062 14.321L59.3423 14.4445L61.6534 16.0064L61.7429 15.8319C61.9995 15.3512 62.3737 14.9431 62.8307 14.6454C63.2876 14.3478 63.8126 14.1703 64.3568 14.1295C64.9165 14.1091 65.4618 14.3094 65.8748 14.687C66.106 14.9176 66.2864 15.1937 66.4047 15.4979C66.5229 15.802 66.5762 16.1274 66.5613 16.4532V26.7269H69.4352V16.2787Z" fill="#98867D"/>
<path d="M78.5858 24.518C78.8606 24.518 79.1241 24.4091 79.3185 24.2151C79.5128 24.0212 79.6219 23.7581 79.6219 23.4838C79.6219 23.2096 79.5128 22.9465 79.3185 22.7526C79.1241 22.5586 78.8606 22.4497 78.5858 22.4497C78.311 22.4497 78.0474 22.5586 77.8531 22.7526C77.6588 22.9465 77.5496 23.2096 77.5496 23.4838C77.5496 23.7581 77.6588 24.0212 77.8531 24.2151C78.0474 24.4091 78.311 24.518 78.5858 24.518ZM74.2877 15.5296H78.9781C79.801 15.5296 80.5728 15.5296 81.238 16.0871C82.0055 16.7468 82.0652 17.6661 82.0652 18.6917V23.5945C82.0864 24.2836 81.9012 24.9634 81.5331 25.5468C81.165 26.1302 80.6309 26.5908 79.9991 26.8695C79.3673 27.1482 78.6665 27.2324 77.9865 27.1113C77.3064 26.9903 76.678 26.6694 76.1817 26.1899C75.6854 25.7103 75.3438 25.0939 75.2005 24.4194C75.0572 23.745 75.1189 23.0432 75.3775 22.4039C75.6361 21.7646 76.08 21.2168 76.6523 20.8307C77.2246 20.4447 77.8993 20.2378 78.5901 20.2366C78.8459 20.2366 79.0165 20.2366 79.1572 20.2579V19.1088C79.1572 18.547 79.042 18.3385 78.944 18.2576C78.6875 18.1045 78.3886 18.0374 78.0912 18.0661H71.0513V15.8956C71.5377 14.3328 72.5916 13.0077 74.0062 12.1803C75.4347 11.4014 77.1616 11.295 79.1231 11.8483C81.0845 12.4016 82.2145 11.8483 82.2187 11.8483L82.3893 11.7547L82.4575 11.9334L83.3103 14.0869L83.3615 14.2061L83.2464 14.2742C81.9245 15.0743 80.0867 14.8061 78.7734 14.4444C75.7673 13.5932 74.6245 14.9764 74.2877 15.5381" fill="#98867D"/>
<path d="M137.63 24.5181C137.904 24.5181 138.168 24.4091 138.362 24.2152C138.557 24.0212 138.666 23.7582 138.666 23.4839C138.666 23.2096 138.557 22.9466 138.362 22.7526C138.168 22.5587 137.904 22.4497 137.63 22.4497C137.355 22.4497 137.091 22.5587 136.897 22.7526C136.703 22.9466 136.593 23.2096 136.593 23.4839C136.593 23.7582 136.703 24.0212 136.897 24.2152C137.091 24.4091 137.355 24.5181 137.63 24.5181ZM133.331 15.5297H138.022C138.845 15.5297 139.617 15.5297 140.29 16.0872C141.049 16.7468 141.105 17.6661 141.105 18.6918V23.5945C141.125 24.2827 140.939 24.9612 140.571 25.5434C140.203 26.1256 139.669 26.5849 139.038 26.8626C138.407 27.1404 137.707 27.2239 137.028 27.1025C136.349 26.9811 135.722 26.6603 135.227 26.1811C134.732 25.702 134.391 25.0863 134.248 24.4127C134.105 23.7392 134.167 23.0385 134.426 22.4002C134.684 21.7619 135.127 21.2151 135.699 20.8297C136.27 20.4443 136.944 20.2378 137.634 20.2367C137.89 20.2367 138.06 20.2367 138.201 20.2579V19.1088C138.201 18.5471 138.09 18.3385 137.988 18.2577C137.731 18.1045 137.432 18.0374 137.135 18.0662H130.091V15.8957C130.582 14.3402 131.632 13.0204 133.037 12.1888C134.466 11.41 136.188 11.3036 138.154 11.8569C140.12 12.4101 141.245 11.8569 141.258 11.8569L141.425 11.7632L142.418 14.1976L142.303 14.2657C140.981 15.0658 139.143 14.7977 137.826 14.4359C134.841 13.5847 133.673 14.9679 133.344 15.5297" fill="#98867D"/>
<path d="M91.5612 11.3759C89.1655 11.3423 86.8505 12.2397 85.1055 13.8784L85.0586 13.9209V16.4021L85.1737 16.4404C86.0905 16.6957 87.0627 16.9937 87.4891 17.1469C87.1656 17.4999 86.9166 17.9144 86.7569 18.3655C86.5972 18.8166 86.5301 19.2952 86.5595 19.7727V26.7268H89.4676V20.177C89.4284 19.5965 89.5779 19.0189 89.894 18.53C90.2708 18.1292 90.7476 17.8354 91.2755 17.6789L91.3864 17.6448V15.7467L91.2841 15.6999C91.2414 15.6999 90.1925 15.2743 89.6126 15.1338C89.1137 15.0147 88.7896 14.9168 88.5892 14.8487C89.5084 14.3671 90.5363 14.1297 91.574 14.1592C91.6124 14.1592 95.3263 14.2401 95.3263 17.3001V26.7268H98.2344V16.6915C98.2344 13.4996 95.6206 11.4142 91.574 11.3759" fill="#98867D"/>
<path d="M104.775 24.5222C104.917 24.5313 105.06 24.5112 105.193 24.4632C105.327 24.4153 105.45 24.3404 105.554 24.2433C105.657 24.1462 105.74 24.0289 105.797 23.8986C105.853 23.7683 105.882 23.6279 105.882 23.4859C105.882 23.3439 105.853 23.2035 105.797 23.0732C105.74 22.9429 105.657 22.8256 105.554 22.7285C105.45 22.6314 105.327 22.5565 105.193 22.5085C105.06 22.4606 104.917 22.4405 104.775 22.4496C104.633 22.4405 104.491 22.4606 104.357 22.5085C104.223 22.5565 104.101 22.6314 103.997 22.7285C103.893 22.8256 103.811 22.9429 103.754 23.0732C103.697 23.2035 103.668 23.3439 103.668 23.4859C103.668 23.6279 103.697 23.7683 103.754 23.8986C103.811 24.0289 103.893 24.1462 103.997 24.2433C104.101 24.3404 104.223 24.4153 104.357 24.4632C104.491 24.5112 104.633 24.5313 104.775 24.5222V24.5222ZM112.57 13.1931C112.389 13.3559 112.197 13.5052 111.994 13.6399C112.071 13.7591 112.186 13.9293 112.297 14.1421C112.753 14.9755 112.987 15.9121 112.975 16.8616V26.7267H110.063V22.2623C110.063 21.5516 108.387 18.7129 105.743 18.7129C105.337 18.7001 104.943 18.8459 104.643 19.1194C104.344 19.3929 104.163 19.7724 104.14 20.177V20.36C104.352 20.3303 104.566 20.3161 104.78 20.3174C106.792 20.3174 108.25 21.692 108.25 23.5944C108.206 24.4835 107.821 25.3216 107.175 25.9353C106.529 26.5489 105.671 26.8912 104.78 26.8912C103.888 26.8912 103.03 26.5489 102.384 25.9353C101.738 25.3216 101.353 24.4835 101.309 23.5944V20.1897C101.309 18.1171 102.831 16.0232 105.743 16.0232C106.587 16.0277 107.42 16.2137 108.185 16.5684C108.95 16.9231 109.63 17.4383 110.178 18.0788V17.283C110.178 14.7294 107.547 14.1421 106.622 14.1421C103.513 14.1421 102.511 16.2701 102.473 16.3467L102.405 16.4956L99.8035 15.3593L99.8632 15.2189C99.8632 15.1763 101.692 11.3886 106.622 11.3886C107.621 11.367 108.614 11.5465 109.542 11.9163C109.721 11.822 109.885 11.7047 110.033 11.5673C110.621 11.0922 111.014 10.4184 111.137 9.67347V9.52026H114.472V9.69475C114.258 11.044 113.587 12.279 112.57 13.1931" fill="#98867D"/>
<path d="M113.79 6.49018V6.45188C113.362 5.01911 112.474 3.76652 111.263 2.88739C110.052 2.00825 108.584 1.55144 107.087 1.58742C101.91 1.54486 100.443 6.38379 100.43 6.44337V8.59684L100.639 8.56705C102.554 8.30613 104.485 8.18522 106.417 8.2053C108.818 8.21952 111.212 8.44884 113.572 8.89049L113.79 8.93305V6.49018ZM110.719 5.98373C109.372 5.70941 108.001 5.56688 106.626 5.55815C105.665 5.54749 104.705 5.60438 103.752 5.72838C104.156 5.24479 104.669 4.86269 105.248 4.61283C105.827 4.36298 106.457 4.25237 107.087 4.2899C109.219 4.34948 110.297 5.42622 110.719 5.99225" fill="#98867D"/>
<path d="M121.896 11.376C119.499 11.3402 117.184 12.2379 115.44 13.8785L115.397 13.921V16.4022L115.517 16.4405C116.416 16.6959 117.397 16.9938 117.828 17.147C117.502 17.4987 117.25 17.9127 117.089 18.364C116.928 18.8154 116.86 19.2946 116.89 19.7729V26.727H119.819V20.1772C119.778 19.5965 119.928 19.0184 120.245 18.5302C120.62 18.1281 121.095 17.8341 121.623 17.679L121.734 17.6449V15.7468L121.631 15.7C121.589 15.7 120.54 15.2744 119.96 15.134C119.465 15.0148 119.141 14.9169 118.932 14.8488C119.852 14.3681 120.879 14.1308 121.917 14.1594C121.951 14.1594 125.669 14.2402 125.669 17.3002V26.727H128.573V16.6916C128.573 13.4997 125.959 11.4143 121.917 11.376" fill="#98867D"/>
<path d="M155.973 13.7975C155.834 13.7885 155.694 13.8082 155.562 13.8553C155.43 13.9025 155.31 13.9761 155.207 14.0716C155.105 14.1671 155.024 14.2826 154.968 14.4107C154.913 14.5389 154.884 14.6771 154.884 14.8168C154.884 14.9565 154.913 15.0947 154.968 15.2228C155.024 15.351 155.105 15.4664 155.207 15.562C155.31 15.6575 155.43 15.7311 155.562 15.7782C155.694 15.8254 155.834 15.8451 155.973 15.8361C156.113 15.8451 156.253 15.8254 156.385 15.7782C156.517 15.7311 156.637 15.6575 156.739 15.562C156.841 15.4664 156.923 15.351 156.978 15.2228C157.034 15.0947 157.063 14.9565 157.063 14.8168C157.063 14.6771 157.034 14.5389 156.978 14.4107C156.923 14.2826 156.841 14.1671 156.739 14.0716C156.637 13.9761 156.517 13.9025 156.385 13.8553C156.253 13.8082 156.113 13.7885 155.973 13.7975V13.7975ZM167.546 14.7253V26.7268H164.642V14.5848L159.402 21.9007V26.7268H156.536V18.0619C156.408 18.0619 156.216 18.0619 155.973 18.0619C155.518 18.0848 155.064 18.0151 154.637 17.8571C154.209 17.6991 153.819 17.4561 153.489 17.1429C153.159 16.8296 152.896 16.4526 152.716 16.0348C152.537 15.617 152.444 15.1671 152.444 14.7125C152.444 14.2579 152.537 13.808 152.716 13.3902C152.896 12.9724 153.159 12.5954 153.489 12.2822C153.819 11.9689 154.209 11.7259 154.637 11.5679C155.064 11.4099 155.518 11.3402 155.973 11.3631C156.418 11.3476 156.86 11.422 157.275 11.5817C157.69 11.7414 158.068 11.9832 158.387 12.2925C158.705 12.6018 158.958 12.9722 159.129 13.3816C159.301 13.7909 159.388 14.2306 159.385 14.6742V17.2022L159.738 16.5851L163.435 11.5461H164.288C165.167 11.5461 165.994 11.5461 166.702 12.1462C167.409 12.7463 167.529 13.6613 167.529 14.6997" fill="#98867D"/>
<path d="M174.253 13.7975C174.119 13.7975 173.986 13.8239 173.862 13.8753C173.737 13.9266 173.625 14.0018 173.53 14.0967C173.435 14.1915 173.359 14.3041 173.308 14.428C173.256 14.552 173.23 14.6848 173.23 14.8189C173.23 14.953 173.256 15.0859 173.308 15.2098C173.359 15.3337 173.435 15.4463 173.53 15.5412C173.625 15.636 173.737 15.7112 173.862 15.7626C173.986 15.8139 174.119 15.8403 174.253 15.8403C174.388 15.8403 174.521 15.8139 174.645 15.7626C174.769 15.7112 174.882 15.636 174.977 15.5412C175.072 15.4463 175.147 15.3337 175.199 15.2098C175.25 15.0859 175.277 14.953 175.277 14.8189C175.277 14.6848 175.25 14.552 175.199 14.428C175.147 14.3041 175.072 14.1915 174.977 14.0967C174.882 14.0018 174.769 13.9266 174.645 13.8753C174.521 13.8239 174.388 13.7975 174.253 13.7975V13.7975ZM183.097 11.5589V23.5605C183.097 24.5904 183.033 25.5011 182.274 26.1651C181.613 26.7311 180.833 26.7268 180.014 26.7268H173.904C173.081 26.7268 172.305 26.7268 171.644 26.1608C170.876 25.5011 170.821 24.5904 170.821 23.5605V22.7391C170.8 22.1728 170.928 21.611 171.193 21.1098C171.458 20.6086 171.85 20.1857 172.33 19.8834C171.729 19.5216 170.394 18.4109 170.36 15.6573C170.36 12.7123 172.377 11.3717 174.253 11.3717C174.703 11.3552 175.151 11.4283 175.572 11.5867C175.993 11.7452 176.378 11.9858 176.705 12.2944C177.031 12.6031 177.293 12.9736 177.475 13.3844C177.656 13.7952 177.754 14.238 177.762 14.687C177.762 16.5808 176.253 18.0023 174.253 18.0023H173.993C174.121 18.2321 174.441 18.5896 175.272 18.7684C176.013 18.8941 176.766 18.9298 177.515 18.8748H177.711V21.3985H176.104C174.825 21.3985 173.695 21.5049 173.695 22.7944C173.695 23.786 173.946 23.969 175.255 23.969H179.14C179.422 23.9951 179.705 23.9326 179.95 23.7903C180.048 23.6734 180.12 23.5372 180.162 23.3906C180.204 23.2439 180.215 23.0901 180.193 22.9391V11.5589H183.097Z" fill="#98867D"/>
<path d="M29.1062 22.203C28.9595 22.203 28.8143 22.2318 28.6787 22.2878C28.5432 22.3439 28.42 22.426 28.3163 22.5296C28.2125 22.6331 28.1302 22.756 28.0741 22.8913C28.018 23.0266 27.9891 23.1716 27.9891 23.318C27.9891 23.4644 28.018 23.6094 28.0741 23.7447C28.1302 23.88 28.2125 24.0029 28.3163 24.1065C28.42 24.21 28.5432 24.2921 28.6787 24.3482C28.8143 24.4042 28.9595 24.433 29.1062 24.433C29.253 24.433 29.3982 24.4042 29.5338 24.3482C29.6693 24.2921 29.7925 24.21 29.8962 24.1065C29.9999 24.0029 30.0822 23.88 30.1384 23.7447C30.1945 23.6094 30.2234 23.4644 30.2234 23.318C30.2234 23.1716 30.1945 23.0266 30.1384 22.8913C30.0822 22.756 29.9999 22.6331 29.8962 22.5296C29.7925 22.426 29.6693 22.3439 29.5338 22.2878C29.3982 22.2318 29.253 22.203 29.1062 22.203V22.203ZM32.6838 23.2925C32.6947 23.7503 32.6122 24.2056 32.4414 24.6306C32.2706 25.0557 32.0151 25.4417 31.6902 25.7651C30.9419 26.4839 29.9485 26.893 28.9101 26.91C27.2599 26.91 25.5842 25.9609 25.5842 23.8925V22.5009C25.0272 22.8903 24.4972 23.3168 23.9979 23.7776C23.1437 24.5738 22.331 25.4133 21.5632 26.2929C21.2178 26.6886 21.1837 26.7184 21.0856 26.7184H18.4334V18.062C18.3012 18.062 18.1179 18.062 17.8748 18.062C16.9848 18.062 16.1313 17.7091 15.5019 17.081C14.8726 16.4529 14.519 15.6009 14.519 14.7126C14.519 13.8243 14.8726 12.9724 15.5019 12.3443C16.1313 11.7161 16.9848 11.3633 17.8748 11.3633C18.32 11.3453 18.7643 11.4181 19.1803 11.5772C19.5964 11.7363 19.9757 11.9783 20.2949 12.2886C20.6141 12.5989 20.8667 12.9708 21.0371 13.3817C21.2075 13.7926 21.2922 14.2339 21.286 14.6786V21.4454L21.2306 22.7222C21.905 22.0366 22.6167 21.3888 23.3626 20.7815C24.0382 20.2147 24.785 19.7382 25.5842 19.3643V11.559H28.4197V18.9983C29.1745 19.1089 32.5601 19.7941 32.6838 23.2925ZM17.7597 13.7976C17.6253 13.7976 17.4922 13.824 17.3681 13.8754C17.2439 13.9267 17.1311 14.0019 17.0361 14.0968C16.941 14.1916 16.8657 14.3042 16.8142 14.4282C16.7628 14.5521 16.7363 14.6849 16.7363 14.819C16.7363 14.9532 16.7628 15.086 16.8142 15.2099C16.8657 15.3338 16.941 15.4464 17.0361 15.5413C17.1311 15.6361 17.2439 15.7114 17.3681 15.7627C17.4922 15.814 17.6253 15.8404 17.7597 15.8404C17.8941 15.8404 18.0272 15.814 18.1513 15.7627C18.2755 15.7114 18.3883 15.6361 18.4833 15.5413C18.5784 15.4464 18.6537 15.3338 18.7052 15.2099C18.7566 15.086 18.7831 14.9532 18.7831 14.819C18.7831 14.6849 18.7566 14.5521 18.7052 14.4282C18.6537 14.3042 18.5784 14.1916 18.4833 14.0968C18.3883 14.0019 18.2755 13.9267 18.1513 13.8754C18.0272 13.824 17.8941 13.7976 17.7597 13.7976" fill="#98867D"/>
<path d="M51.019 17.6193C50.7431 17.6193 50.4785 17.7287 50.2834 17.9234C50.0882 18.1182 49.9786 18.3823 49.9786 18.6577C49.9786 18.9331 50.0882 19.1973 50.2834 19.392C50.4785 19.5867 50.7431 19.6962 51.019 19.6962C51.295 19.6962 51.5596 19.5867 51.7547 19.392C51.9498 19.1973 52.0595 18.9331 52.0595 18.6577C52.0595 18.3823 51.9498 18.1182 51.7547 17.9234C51.5596 17.7287 51.295 17.6193 51.019 17.6193V17.6193ZM57.9907 17.8746V26.7268H55.0869V17.9172C55.0908 17.3855 54.9866 16.8585 54.7806 16.3682C54.5746 15.8778 54.2711 15.4342 53.8885 15.0643C53.5058 14.6943 53.052 14.4056 52.5544 14.2157C52.0568 14.0258 51.5258 13.9385 50.9935 13.9592C48.0555 13.9592 46.7294 16.0233 46.7294 18.0662C46.7264 18.9048 46.8871 19.736 47.2027 20.5133C47.3818 19.8068 47.7059 18.5045 47.7059 18.5045C48.1579 16.6873 49.4115 15.602 51.0148 15.602C51.4266 15.5947 51.8357 15.6691 52.2184 15.8209C52.6011 15.9727 52.9498 16.199 53.2442 16.4864C53.5385 16.7739 53.7727 17.1169 53.9332 17.4955C54.0936 17.8741 54.177 18.2807 54.1787 18.6918C54.1787 20.9218 52.2428 21.756 51.0148 21.756C50.5843 21.7453 50.16 21.6513 49.7654 21.4794C49.541 22.1451 49.3602 22.8246 49.2239 23.5137C48.9795 24.5125 48.8366 25.5334 48.7975 26.5609V26.7268H45.8894V25.9608C45.8894 24.6628 45.463 23.5052 44.9855 22.2922C44.4141 20.7942 43.8214 19.2493 43.9706 17.2703C44.2648 13.406 47.8082 11.3121 50.9679 11.3121C51.897 11.2747 52.8242 11.4217 53.696 11.7446C54.5677 12.0675 55.3666 12.5599 56.0463 13.1932C56.672 13.8008 57.1671 14.5292 57.5014 15.3341C57.8357 16.139 58.0022 17.0034 57.9907 17.8746" fill="#98867D"/>
<path d="M149.096 24.5223C149.237 24.5314 149.38 24.5113 149.514 24.4634C149.647 24.4154 149.77 24.3405 149.874 24.2434C149.978 24.1463 150.06 24.029 150.117 23.8987C150.173 23.7684 150.202 23.628 150.202 23.486C150.202 23.344 150.173 23.2036 150.117 23.0733C150.06 22.943 149.978 22.8257 149.874 22.7286C149.77 22.6315 149.647 22.5566 149.514 22.5087C149.38 22.4607 149.237 22.4406 149.096 22.4497C148.954 22.4406 148.811 22.4607 148.677 22.5087C148.544 22.5566 148.421 22.6315 148.317 22.7286C148.213 22.8257 148.131 22.943 148.074 23.0733C148.018 23.2036 147.989 23.344 147.989 23.486C147.989 23.628 148.018 23.7684 148.074 23.8987C148.131 24.029 148.213 24.1463 148.317 24.2434C148.421 24.3405 148.544 24.4154 148.677 24.4634C148.811 24.5113 148.954 24.5314 149.096 24.5223V24.5223ZM152.613 23.5945C152.605 24.0442 152.507 24.4877 152.325 24.8991C152.143 25.3105 151.88 25.6815 151.553 25.9902C151.225 26.299 150.839 26.5394 150.417 26.6973C149.995 26.8552 149.546 26.9275 149.096 26.9099C148.648 26.9282 148.201 26.856 147.782 26.6977C147.364 26.5393 146.981 26.298 146.658 25.9883C146.335 25.6786 146.078 25.3069 145.903 24.8955C145.727 24.4841 145.637 24.0416 145.637 23.5945V8.83944L145.795 5.38793L143.557 9.18842H141.851L140.158 3.93668C140.079 3.80095 140.012 3.65854 139.958 3.51109C139.877 3.28553 139.821 3.25148 139.736 3.2302C139.651 3.20892 139.565 3.13232 139.565 3.05146V0H140.921C141.19 0.0167146 141.442 0.139137 141.621 0.340469C141.77 0.498712 141.886 0.685439 141.962 0.889476L143.241 4.52399L145.936 0H148.541V20.2792C148.725 20.2505 148.91 20.2363 149.096 20.2367C149.55 20.2165 150.004 20.2885 150.429 20.4482C150.855 20.6078 151.244 20.8519 151.573 21.1657C151.902 21.4795 152.163 21.8564 152.342 22.2739C152.521 22.6913 152.613 23.1405 152.613 23.5945" fill="#98867D"/>
</g>
<defs>
<clipPath id="clip0">
<rect width="265" height="66" fill="white"/>
</clipPath>
</defs>
</svg>
