<svg width="261" height="37" viewBox="0 0 261 37" fill="none" xmlns="http://www.w3.org/2000/svg">
<g clip-path="url(#clip0)">
<path d="M110.752 35.8478V6.46539L132.301 5.53705C132.825 5.5145 133.35 5.50235 133.837 5.50235C137.824 5.50235 140.735 6.25717 142.491 7.74425C143.192 8.41138 143.737 9.22344 144.088 10.123C144.438 11.0225 144.585 11.9876 144.519 12.9499V13.3108C144.547 15.0732 143.874 16.7754 142.646 18.048C141.438 19.2896 139.892 20.1533 138.196 20.5328C139.949 20.6955 141.603 21.4133 142.913 22.5803C143.537 23.2464 144.021 24.0297 144.335 24.884C144.65 25.7383 144.79 26.6465 144.746 27.5552V31.3866C144.715 32.0337 144.767 32.6822 144.902 33.3161C144.956 33.6163 145.062 33.9051 145.214 34.1698V34.3677L135.572 34.7806C135.493 34.5169 135.443 34.326 135.416 34.1959C135.358 33.7517 135.332 33.3041 135.338 32.8563V30.4027C135.354 29.5846 135.263 28.7679 135.065 27.9734C134.917 27.3866 134.605 26.8531 134.165 26.4343C133.096 25.691 131.797 25.3463 130.496 25.4608C130.296 25.4608 130.086 25.4608 129.873 25.4747L120.075 25.8981V35.4556L110.752 35.8478ZM131.463 12.6167C131.33 12.6167 131.192 12.6167 131.052 12.6254L120.082 13.0939V18.6605L131.052 18.1885C132.136 18.2284 133.2 17.8888 134.057 17.2289C134.319 16.9666 134.521 16.6514 134.649 16.3046C134.777 15.9579 134.828 15.5878 134.8 15.2196V15.1432C134.827 14.7972 134.774 14.4495 134.646 14.1267C134.517 13.804 134.316 13.5148 134.057 13.2813C133.288 12.7855 132.377 12.5522 131.463 12.6167V12.6167Z" fill="white"/>
<path d="M148.19 34.2341L161.384 4.28251L173.679 3.75327L187.306 32.5474L177.348 32.9778L175.076 27.9803L159.735 28.6415L157.518 33.8315L148.19 34.2341ZM167.356 10.8572L162.595 22.0424L172.235 21.626L167.356 10.8572Z" fill="white"/>
<path d="M191.634 32.3635V2.97936L207.639 2.28528C208.307 2.26272 208.965 2.2471 209.596 2.2471C215.594 2.2471 220.098 3.55372 222.979 6.13051C224.212 7.30218 225.178 8.72295 225.811 10.2969C226.444 11.8708 226.729 13.5613 226.648 15.2543V16.4377C226.695 18.7244 226.243 20.9941 225.322 23.0905C224.139 25.5662 222.177 27.5917 219.731 28.8601C215.978 30.6902 211.857 31.6507 207.676 31.6694L191.634 32.3635ZM207.948 9.33025C207.585 9.33025 207.204 9.33025 206.818 9.35628L200.963 9.60788V24.8917L206.82 24.6401C210.861 24.4665 213.724 23.4514 215.33 21.6277C216.462 20.1941 217.031 18.4009 216.932 16.5817V16.344C217.056 14.6007 216.48 12.8797 215.33 11.5565C213.259 9.88058 210.608 9.08091 207.948 9.33025V9.33025Z" fill="white"/>
<path d="M13.1035 31.659C8.21154 31.659 4.6177 30.7914 2.44602 29.084C1.65127 28.4685 1.01508 27.6743 0.589826 26.7669C0.164576 25.8594 -0.0375677 24.8647 3.73363e-05 23.8644V23.4514C-0.00340783 22.6484 0.167625 21.8542 0.501463 21.1228C0.842757 20.3861 1.32521 19.7225 1.92188 19.1689C3.156 18.0087 4.70014 17.2257 6.37007 16.9132C4.92339 16.7615 3.55611 16.1811 2.44602 15.2473C1.91429 14.7854 1.47916 14.2241 1.16537 13.5954C0.852387 12.953 0.692757 12.2476 0.698889 11.534V11.1592C0.667883 10.0188 0.951868 8.89185 1.52004 7.90045C2.45878 6.44113 3.85212 5.32662 5.48777 4.72674C8.57805 3.61052 11.8368 3.02376 15.1249 2.99152L16.7183 2.92211C17.4608 2.89782 18.1876 2.8822 18.869 2.8822C21.407 2.81592 23.9403 3.13422 26.3817 3.82616C28.015 4.24689 29.4414 5.2373 30.4001 6.61639C30.9521 7.60182 31.2216 8.71871 31.1793 9.84562V10.2204C31.184 10.9472 31.0344 11.6669 30.7403 12.3324C30.4462 12.9979 30.0141 13.5944 29.4723 14.083C28.3777 15.1038 27.0161 15.7983 25.5431 16.0872C27.1957 16.238 28.7616 16.8905 30.0279 17.956C30.6147 18.4497 31.0777 19.0723 31.3802 19.7745C31.6918 20.5031 31.85 21.2873 31.8449 22.0789V22.4901C31.8697 23.7352 31.5629 24.9647 30.9557 26.0543C29.9494 27.6596 28.4561 28.9063 26.6909 29.6149C23.5124 30.8546 20.1329 31.5085 16.7183 31.5445L15.1249 31.6139C14.4313 31.6434 13.7517 31.659 13.1035 31.659ZM17.2529 19.5871C16.8319 19.5871 16.3794 19.5975 15.9007 19.6184C14.0112 19.5553 12.1331 19.932 10.4164 20.7185C10.073 20.9091 9.78812 21.1888 9.59239 21.5278C9.39666 21.8667 9.29741 22.2522 9.30524 22.6428V22.7157C9.30962 23.0903 9.41944 23.4562 9.62229 23.7721C9.82514 24.0879 10.1129 24.3411 10.4531 24.503C11.7731 25.1197 13.232 25.3846 14.6864 25.2717C15.0673 25.2717 15.4761 25.263 15.9094 25.2439C17.8254 25.3116 19.7272 24.8935 21.4356 24.0293C21.7659 23.8342 22.0406 23.5585 22.2335 23.2284C22.4264 22.8983 22.5312 22.5247 22.538 22.1431V22.0685C22.5537 21.6883 22.4568 21.312 22.2593 20.986C22.0618 20.66 21.7723 20.3986 21.4268 20.2344C20.1011 19.7138 18.6753 19.4927 17.2529 19.5871ZM17.0136 8.86523C16.6641 8.86523 16.2903 8.86523 15.9024 8.88952C14.2047 8.85821 12.5211 9.20011 10.972 9.89074C10.6692 10.0402 10.4149 10.2713 10.2382 10.5577C10.0615 10.844 9.96944 11.1739 9.97265 11.5097V11.6225C9.97245 11.9512 10.0711 12.2726 10.256 12.5452C10.4409 12.8179 10.7036 13.0295 11.0104 13.1529C12.19 13.5984 13.4511 13.7906 14.7109 13.7169C15.083 13.7169 15.4848 13.7082 15.9024 13.6891C17.5963 13.7302 19.2786 13.4021 20.831 12.7278C21.1642 12.5699 21.4422 12.3167 21.6295 12.0008C21.7668 11.724 21.8368 11.4191 21.8339 11.1106V10.9978C21.8433 10.6715 21.7523 10.35 21.5731 10.0763C21.394 9.8026 21.1351 9.58958 20.831 9.46561C19.6163 8.99696 18.3146 8.79223 17.0136 8.86523Z" fill="#FE4547"/>
<path d="M60.0139 29.228L52.5624 20.5519L45.0392 29.8752L34.6211 30.3229L46.2972 15.4937L34.9548 2.40673L46.0386 1.93822L52.9659 10.0677L59.902 1.33263L70.0214 0.897095L58.9394 14.9107L70.6451 28.7699L60.0139 29.228Z" fill="#FE4547"/>
<path d="M84.0141 37V15.0426L72.5774 15.5354V8.11214L104.742 6.72397V14.149L93.3053 14.6418V36.5992L84.0141 37Z" fill="white"/>
<path d="M232.932 1.19903L260.766 0V6.75346L242.192 7.55339V11.8186L260.188 11.0446V18.0341L242.192 18.8097V23.3491L261.007 22.5387V29.3703L232.932 30.5814V1.19903Z" fill="white"/>
</g>
<defs>
<clipPath id="clip0">
<rect width="261" height="37" fill="white"/>
</clipPath>
</defs>
</svg>
