<svg width="182" height="67" viewBox="0 0 182 67" fill="none" xmlns="http://www.w3.org/2000/svg">
<path d="M30.3593 47.1633H28.3011V47.8558C28.3011 50.6045 28.3011 53.3556 28.3011 56.1067C28.3011 56.3431 28.2182 56.6598 28.0643 56.7614C26.4489 57.8179 23.7157 57.8699 22.2686 56.811C22.057 56.6713 21.8781 56.4877 21.744 56.2728C21.6098 56.058 21.5235 55.8168 21.4909 55.5658C21.4583 55.3147 21.4802 55.0596 21.5552 54.8177C21.6301 54.5758 21.7563 54.3529 21.9251 54.1639C22.1519 53.8752 22.4343 53.6347 22.7556 53.4565C23.077 53.2784 23.4308 53.1661 23.7962 53.1264C24.4334 53.0555 25.0752 53.0153 25.7123 52.9633V51.1647C25.2055 51.1647 24.7318 51.1978 24.2628 51.1647C23.6561 51.1264 23.0535 51.0403 22.4604 50.9071C22.2438 50.8548 22.0532 50.727 21.9229 50.5466C21.7925 50.3663 21.7312 50.1454 21.7499 49.9239C21.748 49.7014 21.8269 49.4859 21.9718 49.3169C22.1168 49.1479 22.3181 49.037 22.5386 49.0045C23.1414 48.9245 23.75 48.8976 24.3576 48.9241C24.8248 48.9674 25.2891 49.0384 25.7479 49.1368C25.7479 48.5672 25.7716 48.0922 25.7337 47.6195C25.7199 47.5344 25.6861 47.4539 25.6351 47.3844C25.584 47.315 25.5171 47.2586 25.44 47.22C23.8791 46.7119 22.3609 46.7993 20.9398 47.6785C19.1919 48.7681 19.1848 50.8433 20.8901 52.0155C20.9848 52.0794 21.0701 52.155 21.2098 52.2684C21.0133 52.4291 20.8498 52.5639 20.684 52.6939C20.1366 53.1249 19.7327 53.7111 19.5255 54.3756C19.3184 55.04 19.3177 55.7515 19.5235 56.4163C19.9616 57.7919 20.9848 58.5907 22.2899 59.0564C23.5144 59.4936 24.7886 59.5291 26.0795 59.4392C27.5645 59.3234 28.9027 58.8507 29.9875 57.8155C30.2256 57.5704 30.3654 57.2467 30.3807 56.9056C30.4091 53.8591 30.3996 50.8125 30.3972 47.7636C30.3854 47.5651 30.3688 47.3737 30.3593 47.1633Z" fill="#5C2483"/>
<path d="M44.099 54.8516C43.9628 54.7841 43.8583 54.6662 43.8077 54.5231C43.075 52.4621 42.3455 50.4012 41.6192 48.3402C41.1834 47.1018 41.1881 47.1136 39.8973 47.1089C39.7456 47.0835 39.5901 47.1189 39.4646 47.2074C39.339 47.296 39.2536 47.4305 39.227 47.5815C38.4643 49.841 37.6661 52.0887 36.8774 54.3364C36.7778 54.5727 36.6664 54.8038 36.5435 55.0289L34.3858 47.1419H32.3489C32.3541 47.2783 32.3692 47.4142 32.3939 47.5485C33.3665 51.1362 34.3439 54.724 35.3261 58.3118C35.6008 59.3162 35.6127 59.2926 36.6359 59.3162C37.0503 59.3162 37.2588 59.2146 37.3985 58.7963C38.0238 56.9055 38.6846 55.0312 39.3407 53.1523C39.6178 52.3652 39.9091 51.5829 40.1933 50.7888C40.3756 50.935 40.5093 51.1327 40.577 51.356C41.3807 53.6439 42.1829 55.9286 42.9834 58.2101C43.3671 59.3068 43.3695 59.2879 44.5111 59.3021C44.9114 59.3021 45.0511 59.1555 45.1459 58.7963C45.9251 55.8892 46.7256 52.9868 47.5144 50.0821C47.7749 49.1178 48.0236 48.1511 48.2912 47.1372H46.2046C45.4988 49.737 44.7977 52.2943 44.099 54.8516Z" fill="#5C2483"/>
<path d="M76.1567 47.6666C76.1567 49.9426 76.1069 52.221 76.1733 54.4947C76.2159 55.9908 75.5646 56.844 74.1269 57.3781C71.9289 58.1959 70.2686 57.0496 70.2686 54.7358C70.2686 53.4311 70.2686 52.1241 70.2686 50.8195C70.2645 49.9403 69.9259 49.0955 69.3212 48.456C67.4146 46.3123 62.3839 46.1492 60.1693 48.9689C59.9343 49.2466 59.7883 49.5883 59.7501 49.9497C59.7146 52.8592 59.724 55.7686 59.724 58.6757C59.724 58.8671 59.7454 59.0586 59.7572 59.25H63.5681V57.4325H61.8367C61.8249 57.1962 61.8107 57.0378 61.8107 56.8795C61.8107 54.6838 61.8107 52.4881 61.8249 50.2901C61.8532 50.0815 61.9609 49.8919 62.1257 49.7606C63.3407 48.7207 64.7571 48.5789 66.2445 48.9452C67.4051 49.2289 68.2862 49.9946 68.2104 51.5073C68.1464 52.7504 68.1796 54.0007 68.2104 55.2463C68.1885 56.1813 68.4812 57.0966 69.0417 57.8461C70.4249 59.5904 73.0232 60.056 75.1169 58.9404C75.4414 58.7679 75.754 58.5741 76.1212 58.359C76.1543 58.7135 76.1827 58.9971 76.2112 59.2689H78.196V47.1395H76.1946C76.1709 47.357 76.1567 47.5059 76.1567 47.6666Z" fill="#5C2483"/>
<path d="M56.4578 48.3309C54.9372 46.5205 51.5716 46.6269 50.0037 47.3855C49.9372 47.418 49.8788 47.4647 49.8325 47.5223C49.7862 47.5799 49.7533 47.647 49.736 47.7188C49.7076 48.3333 49.7218 48.9525 49.7218 49.6096C50.1955 49.3992 50.5532 49.1983 50.9392 49.0707C51.3485 48.9308 51.7718 48.8357 52.2016 48.7871C53.7056 48.6335 54.9041 49.2314 55.2807 50.7228C55.3778 51.1252 55.4255 51.5379 55.4228 51.9518C55.437 54.164 55.4228 56.3786 55.4228 58.5932V59.2502H57.462C57.4809 59.1805 57.4943 59.1093 57.5023 59.0375C57.5023 56.5062 57.5402 53.9749 57.5023 51.446C57.481 50.3423 57.237 49.2598 56.4578 48.3309Z" fill="#5C2483"/>
<path d="M16.158 48.1796C14.6279 46.7285 11.7028 46.4283 9.77959 47.5368C9.50011 47.6975 9.21589 47.8464 8.87719 48.0307C8.85114 47.6762 8.83456 47.4257 8.81561 47.161H6.80713V59.2691H8.84404V58.5931C8.84404 56.1989 8.81324 53.8047 8.87246 51.4129C8.9096 50.8893 9.11568 50.3918 9.45984 49.9948C10.0993 49.2574 10.9923 48.9312 11.9728 48.8131C14.23 48.5531 15.3669 49.7939 15.3361 51.5831C15.2958 53.9347 15.3361 56.2911 15.3361 58.6451C15.3361 58.8531 15.355 59.0611 15.3621 59.2691H17.373C17.3905 59.1722 17.4024 59.0743 17.4085 58.976C17.4085 56.3455 17.4369 53.7126 17.4085 51.082C17.4112 50.5384 17.3015 50.0001 17.0863 49.5008C16.8712 49.0014 16.5551 48.5517 16.158 48.1796Z" fill="#5C2483"/>
<path d="M60.9676 34.1357C63.4167 35.984 66.2754 36.485 69.229 36.5938C71.5359 36.6788 73.7812 36.218 75.9815 35.5444C77.2961 35.1426 77.315 35.1378 77.1658 33.8048C77.0616 32.8784 76.891 31.959 76.7442 30.9994C73.9473 32.0927 70.9155 32.4492 67.9405 32.0346C65.5436 31.7179 63.7364 30.5172 62.8909 28.1916C61.735 25.0127 61.7563 21.7794 62.7748 18.5698C63.0505 17.6137 63.5791 16.7492 64.3051 16.0672C65.0311 15.3852 65.9277 14.9108 66.9007 14.6937C68.7277 14.2422 70.6269 14.1618 72.4856 14.4574C73.8665 14.663 75.2331 14.9632 76.6897 15.235C76.8863 13.961 77.0947 12.6848 77.2605 11.4014C77.2771 11.2738 77.0639 11.0398 76.91 10.9807C75.0333 10.3056 73.0647 9.91911 71.0716 9.8344C69.2141 9.72168 67.3501 9.88094 65.5388 10.3071C61.7208 11.2194 58.9284 13.3796 57.5523 17.1139C56.3301 20.4393 56.2543 23.8664 56.9199 27.31C57.4457 30.054 58.6868 32.4104 60.9676 34.1357Z" fill="#5C2483"/>
<path d="M3.6238 43.4998C2.43955 43.2942 1.2103 43.3343 0 43.2634V44.6815C0.63002 44.6815 1.22214 44.6508 1.80953 44.6957C2.10315 44.7537 2.38811 44.849 2.65745 44.9793C2.57846 45.2598 2.46046 45.5279 2.30692 45.7758C1.87271 46.237 1.62908 46.8448 1.62479 47.4775C1.65084 51.1764 1.62479 54.8729 1.62479 58.5693V59.2666H3.83223V58.541C3.83223 55.2321 3.84644 51.9374 3.83223 48.6356C3.83223 47.6548 3.89381 46.7614 4.51435 45.8987C5.16569 45.01 4.67304 43.6794 3.6238 43.4998Z" fill="#5C2483"/>
<path d="M45.4751 31.7722C43.1681 32.642 40.7996 32.4056 38.4785 31.8289C36.8987 31.4366 35.3663 30.8504 33.7415 30.3257C33.5402 31.6706 33.3223 33.1147 33.1091 34.5422C33.1892 34.5985 33.2722 34.6506 33.3578 34.6982C33.5355 34.788 33.7107 34.8778 33.8931 34.9511C36.8852 36.2046 40.1294 36.7436 43.3671 36.5252C45.0265 36.4391 46.659 36.0706 48.1941 35.4356C51.7468 33.8852 53.2106 31.2593 52.7392 27.5605C52.4219 25.0575 51.0647 23.2329 48.7317 22.323C46.8369 21.5809 44.8119 21.1413 42.8697 20.5031C41.5978 20.0943 40.3554 19.5992 39.1512 19.0212C38.3459 18.6265 38.1327 17.7497 38.3317 16.8657C38.5685 15.8258 39.2909 15.2467 40.2075 14.8898C42.5642 13.9752 44.9871 14.2092 47.3983 14.585C48.6583 14.7811 49.8994 15.1073 51.1879 15.3838C51.356 14.3013 51.491 13.2094 51.6995 12.1317C51.8818 11.1863 51.8818 11.2217 50.9889 11.035C49.1983 10.6568 47.3983 10.3071 45.5864 10.0636C43.2277 9.75153 40.8292 9.95804 38.559 10.6687C34.1631 12.0253 32.6852 15.8471 33.5591 19.5034C34.0565 21.588 35.5321 22.9422 37.4387 23.6985C39.1701 24.3863 41.0033 24.8117 42.7963 25.3341C44.3334 25.7831 45.899 26.1684 47.1283 27.2839C48.1183 28.1821 48.2699 29.5293 47.3651 30.5054C46.8376 31.063 46.1918 31.4958 45.4751 31.7722V31.7722Z" fill="#5C2483"/>
<path d="M101.751 43.3228C100.377 43.3511 99.7516 44.0318 99.78 45.5066H101.765L101.672 45.3648C101.94 45.1521 102.177 44.8425 102.48 44.7527C102.838 44.6463 103.25 44.7267 103.664 44.7267V43.3086C103.003 43.3204 102.378 43.3086 101.751 43.3228Z" fill="#5C2483"/>
<path d="M68.4495 45.5985H78.1887V44.1001H68.4495V45.5985Z" fill="#5C2483"/>
<path d="M89.0839 50.6447C88.6978 50.3209 88.2502 50.0727 87.7694 49.7466L89.901 47.8321C89.3894 47.5509 88.9371 47.2744 88.4586 47.0546C88.3732 47.0284 88.2829 47.0221 88.1947 47.036C88.1064 47.0499 88.0225 47.0838 87.9494 47.1349C86.6254 48.2245 85.318 49.3353 83.9537 50.484C84.2085 50.5226 84.4608 50.5762 84.7093 50.6447C85.5217 50.9283 86.3791 51.141 87.1299 51.5475C88.3852 52.2259 88.8897 53.391 88.7523 54.7855C88.7131 55.3851 88.4788 55.9556 88.0851 56.4103C87.6914 56.8651 87.1598 57.1792 86.5709 57.305C85.6235 57.5413 84.5861 57.5035 83.5866 57.5413C82.9661 57.5579 82.7434 57.2341 82.7529 56.5652C82.7979 53.6581 82.7742 50.751 82.7742 47.8416V47.1491H80.7278C80.7098 47.246 80.6972 47.3439 80.6899 47.4422C80.6899 51.0819 80.6899 54.7217 80.7042 58.3614C80.7236 58.4727 80.7695 58.5778 80.8379 58.6678C80.9062 58.7578 80.9952 58.8303 81.0973 58.879C83.0774 59.5739 85.1072 59.7394 87.1346 59.1721C88.9181 58.6758 90.2539 57.598 90.6874 55.7167C91.1492 53.7314 90.6921 51.9966 89.0839 50.6447Z" fill="#5C2483"/>
<path d="M103.11 47.1562H101.023V47.8936C101.023 50.6046 101.009 53.3155 101.038 56.0264C101.038 56.5298 100.865 56.8229 100.424 56.9718C99.8012 57.213 99.1586 57.4004 98.5034 57.5319C97.3073 57.7021 96.1349 57.5627 95.0786 56.8985C94.0222 56.2344 93.8754 55.081 94.6357 54.1427C94.8576 53.8638 95.1325 53.6313 95.4447 53.4585C95.7568 53.2857 96.1 53.1761 96.4547 53.1359C97.0728 53.0579 97.6981 53.0271 98.321 52.9728V51.1694C97.6981 51.1694 97.1202 51.2073 96.5518 51.1694C96.0425 51.1259 95.5397 51.0261 95.0525 50.8716C94.8592 50.795 94.6956 50.6585 94.5856 50.4822C94.4757 50.306 94.4252 50.0992 94.4417 49.8923C94.4581 49.6853 94.5405 49.4891 94.6769 49.3323C94.8132 49.1755 94.9963 49.0664 95.1994 49.021C95.8203 48.9395 96.4471 48.911 97.0728 48.9359C97.5091 48.9722 97.9426 49.0361 98.3708 49.1274C98.3708 48.5531 98.3945 48.0804 98.3566 47.61C98.3409 47.5229 98.3049 47.4406 98.2514 47.37C98.1979 47.2993 98.1284 47.2423 98.0487 47.2035C96.3907 46.7001 94.7943 46.8372 93.3685 47.8747C92.1843 48.7303 91.8314 50.5904 93.2051 51.713C93.4182 51.8879 93.6361 52.0557 93.9156 52.2779C93.7451 52.4126 93.6172 52.5143 93.5011 52.6041C92.7527 53.2588 92.1677 53.9985 92.0966 55.0479C91.9735 56.8631 92.8759 58.0566 94.4225 58.8295C95.8246 59.5267 97.3405 59.5811 98.8658 59.444C100.344 59.3116 101.691 58.8413 102.741 57.7517C102.956 57.5133 103.083 57.2076 103.098 56.8867C103.122 53.8591 103.113 50.8315 103.113 47.8062L103.11 47.1562Z" fill="#5C2483"/>
<path d="M100.384 22.8975C100.131 22.8171 99.8796 22.7202 99.6286 22.6304C99.6286 22.5713 99.6475 22.5122 99.6546 22.4531C99.8086 22.3846 99.9578 22.3066 100.116 22.2522C100.79 22.0348 101.403 21.6612 101.904 21.1621C102.406 20.663 102.782 20.0525 103.001 19.3806C103.4 18.266 103.531 17.0734 103.383 15.8992C103.306 15.0403 103.021 14.2129 102.554 13.4879C102.086 12.7629 101.449 12.1621 100.697 11.7371C98.7783 10.5932 96.6277 10.3639 94.4747 10.319C90.7064 10.2575 86.9381 10.3025 83.1699 10.3025H82.5256V36.133C82.7293 36.133 82.888 36.1542 83.0467 36.1542C87.1513 36.1542 91.2583 36.1968 95.3629 36.114C96.7822 36.0902 98.1927 35.8853 99.5599 35.5043C104.015 34.2327 105.244 30.8577 104.486 27.0974C104.046 24.8899 102.497 23.5758 100.384 22.8975ZM87.5492 14.526H88.2124C90.344 14.526 92.4544 14.5024 94.5765 14.552C95.3043 14.577 96.0254 14.7003 96.72 14.9183C97.8664 15.2705 98.5343 16.2726 98.5438 17.4803C98.574 17.9542 98.5501 18.43 98.4727 18.8984C98.179 20.196 97.1369 21.0516 95.5879 21.0918C92.9352 21.1603 90.2777 21.1107 87.5492 21.1107V14.526ZM99.4414 29.3379C99.1193 30.9191 98.1174 31.8503 96.405 31.8976C93.5131 31.9756 90.6164 31.9189 87.7197 31.9165C87.6589 31.9014 87.6001 31.8792 87.5445 31.8503V24.7859C87.7576 24.7741 87.9495 24.7528 88.139 24.7528C89.984 24.7528 91.8291 24.7244 93.6718 24.7528C94.7768 24.7472 95.8806 24.8262 96.9735 24.9891C98.6101 25.2751 99.4864 26.4261 99.4959 28.0829C99.5205 28.502 99.5023 28.9225 99.4414 29.3379V29.3379Z" fill="#5C2483"/>
<path fill-rule="evenodd" clip-rule="evenodd" d="M51.2068 15.3838C49.9089 15.1073 48.6678 14.7811 47.4172 14.585C45.0014 14.2092 42.5736 13.9752 40.217 14.8898C39.3004 15.2467 38.5756 15.8352 38.3411 16.8657C38.1422 17.7497 38.3554 18.6265 39.1606 19.0212C40.3618 19.5988 41.601 20.0939 42.8697 20.5031C44.8119 21.146 46.8322 21.5809 48.7317 22.323C51.0647 23.2329 52.4219 25.0575 52.7392 27.5605C53.2129 31.2593 51.7397 33.8852 48.1941 35.4356C46.659 36.0706 45.0265 36.4391 43.3671 36.5252C40.1294 36.7436 36.8852 36.2046 33.8931 34.9511C33.7107 34.8778 33.5355 34.788 33.3578 34.6982C33.2722 34.6506 33.1892 34.5985 33.1091 34.5422C33.3223 33.1241 33.5402 31.6706 33.7415 30.3257C35.3639 30.8504 36.8964 31.4366 38.4785 31.8289C40.7996 32.4056 43.1681 32.642 45.4751 31.7722C46.1935 31.4964 46.841 31.0636 47.3698 30.5054C48.2794 29.5293 48.1278 28.1821 47.133 27.2839C45.9038 26.1684 44.3382 25.7831 42.801 25.3341C41.0081 24.8117 39.1749 24.3887 37.4435 23.6985C35.5487 22.9422 34.0613 21.588 33.5639 19.5034C32.6875 15.8471 34.1678 12.0253 38.5898 10.6687C40.86 9.95804 43.2585 9.75153 45.6172 10.0636C47.4291 10.3 49.2291 10.6568 51.0197 11.035C51.9055 11.2217 51.9055 11.1815 51.7303 12.1317C51.51 13.2094 51.375 14.3013 51.2068 15.3838Z" fill="#5C2483"/>
<path fill-rule="evenodd" clip-rule="evenodd" d="M76.6872 15.2468C75.2306 14.975 73.864 14.6748 72.4831 14.4692C70.6244 14.1736 68.7252 14.254 66.8982 14.7055C65.9253 14.9204 65.0282 15.3926 64.301 16.0725C63.5738 16.7524 63.0434 17.615 62.7652 18.5698C61.7468 21.7794 61.7254 25.0127 62.8813 28.1916C63.7268 30.5172 65.534 31.7179 67.9309 32.0346C70.9074 32.45 73.941 32.0935 76.7393 30.9994C76.8862 31.9589 77.0567 32.8902 77.1609 33.8048C77.3125 35.1378 77.2936 35.1426 75.9767 35.5443C73.7763 36.2179 71.531 36.6788 69.2241 36.5937C66.2706 36.485 63.4118 35.984 60.9628 34.1357C58.6819 32.4104 57.4408 30.054 56.9127 27.3171C56.2518 23.8711 56.3276 20.4464 57.5545 17.121C58.9306 13.3749 61.7231 11.2265 65.5411 10.3142C67.3524 9.88802 69.2164 9.72876 71.0739 9.84148C73.067 9.92619 75.0356 10.3127 76.9122 10.9878C77.0662 11.0469 77.2793 11.2808 77.2628 11.4085C77.0922 12.6966 76.8838 13.9728 76.6872 15.2468Z" fill="#5C2483"/>
<path fill-rule="evenodd" clip-rule="evenodd" d="M76.1827 47.1395H78.184V59.2666H76.1992C76.1708 58.9948 76.1424 58.7111 76.1092 58.3566C75.7421 58.5717 75.4295 58.7655 75.105 58.938C73.0112 60.0536 70.413 59.588 69.0298 57.8437C68.4693 57.0942 68.1766 56.1789 68.1985 55.2439C68.1748 53.9984 68.1416 52.7481 68.1985 51.5049C68.2743 49.9923 67.3932 49.2265 66.2326 48.9429C64.7452 48.5765 63.3288 48.7065 62.1138 49.7583C61.949 49.8896 61.8413 50.0792 61.813 50.2877C61.7917 52.4857 61.7964 54.6814 61.7988 56.8771C61.7988 57.0354 61.813 57.1914 61.8248 57.4301H63.5562V59.2571H59.7524C59.7406 59.0657 59.7192 58.8742 59.7192 58.6828C59.7192 55.7757 59.7192 52.8662 59.7453 49.9568C59.7835 49.5953 59.9295 49.2536 60.1645 48.976C62.3791 46.1563 67.4097 46.3194 69.3164 48.4631C69.9211 49.1025 70.2597 49.9474 70.2638 50.8266C70.2638 52.1312 70.2638 53.4264 70.2638 54.7429C70.2638 57.0567 71.9217 58.203 74.1221 57.3852C75.5598 56.8511 76.2111 55.9979 76.1685 54.5018C76.1021 52.2281 76.1495 49.9497 76.1519 47.6737C76.1566 47.5059 76.1708 47.357 76.1827 47.1395Z" fill="#5C2483"/>
<path fill-rule="evenodd" clip-rule="evenodd" d="M32.3489 47.1395H34.3858L36.5435 55.0264C36.6664 54.8013 36.7778 54.5702 36.8774 54.3339C37.6661 52.0863 38.4643 49.8433 39.227 47.5791C39.2536 47.428 39.339 47.2935 39.4646 47.205C39.5901 47.1165 39.7456 47.081 39.8973 47.1064C41.1881 47.1064 41.1834 47.1064 41.6192 48.3378C42.3439 50.4019 43.0734 52.4628 43.8077 54.5207C43.8583 54.6638 43.9628 54.7816 44.099 54.8492C44.7977 52.2919 45.4988 49.7346 46.2046 47.149H48.2912C48.0236 48.1629 47.7749 49.1296 47.5144 50.0939C46.7256 52.9986 45.9251 55.9009 45.1459 58.808C45.0511 59.1673 44.909 59.3185 44.5111 59.3138C43.3695 59.2996 43.3671 59.3138 42.9834 58.2219C42.1829 55.934 41.3807 53.6493 40.577 51.3678C40.5093 51.1444 40.3756 50.9467 40.1933 50.8005C39.9091 51.5876 39.6178 52.3699 39.3407 53.164C38.6846 55.0548 38.0238 56.9196 37.3985 58.808C37.2588 59.2264 37.0503 59.3374 36.6359 59.328C35.6127 59.3043 35.6008 59.328 35.3261 58.3235C34.3439 54.7373 33.3665 51.1495 32.3939 47.5602C32.3685 47.4213 32.3534 47.2807 32.3489 47.1395V47.1395Z" fill="#5C2483"/>
<path fill-rule="evenodd" clip-rule="evenodd" d="M21.2003 52.2613C21.0606 52.1479 20.9635 52.0723 20.8806 52.0085C19.1753 50.8267 19.1824 48.761 20.9303 47.6715C22.3372 46.7922 23.8649 46.7048 25.4305 47.2129C25.5076 47.2515 25.5745 47.3079 25.6256 47.3773C25.6766 47.4468 25.7104 47.5273 25.7242 47.6124C25.7621 48.0851 25.7384 48.5578 25.7384 49.1297C25.2796 49.0313 24.8153 48.9603 24.3481 48.917C23.7406 48.8905 23.1319 48.9174 22.5291 48.9974C22.3086 49.0299 22.1073 49.1408 21.9623 49.3098C21.8174 49.4788 21.7385 49.6944 21.7404 49.9168C21.7217 50.1383 21.783 50.3592 21.9134 50.5395C22.0437 50.7199 22.2344 50.8477 22.4509 50.9C23.044 51.0332 23.6467 51.1193 24.2533 51.1576C24.727 51.1978 25.2007 51.1576 25.7029 51.1576V52.9562C25.0657 53.0082 24.4239 53.0484 23.7867 53.1193C23.4213 53.159 23.0675 53.2713 22.7462 53.4495C22.4248 53.6276 22.1424 53.8682 21.9156 54.1569C21.7457 54.3462 21.6188 54.5699 21.5436 54.8127C21.4683 55.0555 21.4464 55.3117 21.4795 55.5637C21.5125 55.8157 21.5997 56.0576 21.7351 56.2728C21.8705 56.4881 22.0508 56.6717 22.2638 56.811C23.7109 57.8699 26.4442 57.8179 28.0595 56.7614C28.2182 56.6598 28.2964 56.3313 28.2964 56.1067C28.3106 53.3556 28.2964 50.6045 28.2964 47.8558V47.1633H30.3546C30.3546 47.3737 30.3806 47.5651 30.3806 47.7565C30.3806 50.8054 30.3925 53.852 30.3641 56.8985C30.3488 57.2396 30.209 57.5633 29.9709 57.8084C28.8861 58.8436 27.5479 59.3163 26.0629 59.4321C24.7744 59.5338 23.5002 59.4865 22.2733 59.0493C20.9682 58.5766 19.945 57.7848 19.5069 56.4093C19.3011 55.7444 19.3018 55.0329 19.5089 54.3685C19.7161 53.7041 20.12 53.1178 20.6674 52.6868C20.8427 52.5568 21.0038 52.4221 21.2003 52.2613Z" fill="#5C2483"/>
<path fill-rule="evenodd" clip-rule="evenodd" d="M93.9134 52.2637C93.6363 52.0415 93.4184 51.8737 93.2029 51.6988C91.8292 50.5762 92.1915 48.7161 93.3663 47.8605C94.7874 46.823 96.3861 46.6788 98.0465 47.1893C98.1262 47.2281 98.1957 47.2851 98.2492 47.3558C98.3027 47.4264 98.3387 47.5087 98.3544 47.5958C98.3923 48.0685 98.3686 48.5412 98.3686 49.1132C97.9404 49.0219 97.5069 48.958 97.0706 48.9217C96.4449 48.8968 95.8181 48.9253 95.1972 49.0068C94.9941 49.0522 94.811 49.1613 94.6747 49.3181C94.5383 49.4748 94.4559 49.6711 94.4395 49.8781C94.4231 50.085 94.4735 50.2918 94.5834 50.468C94.6934 50.6443 94.857 50.7807 95.0503 50.8574C95.5375 51.0118 96.0403 51.1117 96.5496 51.1552C97.118 51.2025 97.6959 51.1552 98.3188 51.1552V52.9586C97.6959 53.0129 97.0706 53.0436 96.4525 53.1216C96.0978 53.1619 95.7546 53.2715 95.4425 53.4443C95.1303 53.6171 94.8554 53.8496 94.6335 54.1285C93.8732 55.0739 94.0508 56.232 95.0764 56.8843C96.1019 57.5366 97.3051 57.6879 98.5012 57.5177C99.1571 57.3871 99.8005 57.2004 100.424 56.9599C100.865 56.8158 101.043 56.5227 101.038 56.0145C101.009 53.3036 101.024 50.5927 101.024 47.8818V47.1444H103.11V47.7754C103.11 50.8007 103.11 53.8283 103.096 56.8559C103.081 57.1769 102.954 57.4826 102.738 57.721C101.689 58.8105 100.342 59.2809 98.8636 59.4132C97.3383 59.5503 95.8224 59.496 94.4203 58.7987C92.8737 58.0306 91.9713 56.837 92.0944 55.0172C92.1655 53.9678 92.7505 53.228 93.499 52.5733C93.615 52.4882 93.7429 52.3984 93.9134 52.2637Z" fill="#5C2483"/>
<path fill-rule="evenodd" clip-rule="evenodd" d="M80.7326 47.1396H82.779V47.8321C82.779 50.7415 82.8027 53.6486 82.7577 56.5557C82.7577 57.2245 82.9708 57.5483 83.5914 57.5318C84.5909 57.5034 85.6235 57.5483 86.5757 57.2955C87.1645 57.1697 87.6962 56.8555 88.0899 56.4008C88.4835 55.9461 88.7178 55.3756 88.757 54.776C88.8944 53.3815 88.3899 52.2163 87.1346 51.538C86.3838 51.1315 85.5264 50.9188 84.714 50.6352C84.4656 50.5667 84.2133 50.5131 83.9585 50.4744C85.3227 49.3258 86.6301 48.215 87.9541 47.1254C88.0273 47.0742 88.1112 47.0404 88.1994 47.0265C88.2877 47.0126 88.3779 47.0189 88.4634 47.045C88.9371 47.2648 89.3942 47.5414 89.9058 47.8226L87.7741 49.737C88.2478 50.0632 88.7026 50.3114 89.0886 50.6352C90.6968 51.9753 91.154 53.7219 90.6968 55.6977C90.2634 57.5885 88.9276 58.6568 87.1441 59.1532C85.1167 59.7204 83.0869 59.5549 81.1068 58.8601C81.0047 58.8113 80.9157 58.7389 80.8473 58.6488C80.779 58.5588 80.7331 58.4538 80.7136 58.3425C80.6923 54.7027 80.6971 51.063 80.6994 47.4232C80.7054 47.3281 80.7165 47.2335 80.7326 47.1396V47.1396Z" fill="#5C2483"/>
<path fill-rule="evenodd" clip-rule="evenodd" d="M17.3635 59.2833H15.3526C15.3526 59.0753 15.3266 58.8673 15.3266 58.6593C15.3266 56.2958 15.2958 53.9489 15.3266 51.5972C15.3574 49.8081 14.2205 48.5673 11.9633 48.8272C10.9827 48.9383 10.0898 49.2645 9.45032 50.009C9.10616 50.4059 8.90008 50.9035 8.86294 51.4271C8.80372 53.8189 8.83451 56.2131 8.83451 58.6073V59.2833H6.79761V47.161H8.80609C8.82504 47.4257 8.84162 47.6762 8.86767 48.0307C9.20637 47.8464 9.49059 47.6975 9.77007 47.5368C11.6933 46.4283 14.6184 46.7285 16.1484 48.1796C16.5439 48.5549 16.8575 49.0077 17.0694 49.5096C17.2814 50.0115 17.3871 50.5516 17.3801 51.0962C17.4179 53.7267 17.3801 56.3597 17.3801 58.9902C17.3802 59.0881 17.3746 59.186 17.3635 59.2833V59.2833Z" fill="#5C2483"/>
<path fill-rule="evenodd" clip-rule="evenodd" d="M3.84395 59.2785H1.63651V58.5813C1.63651 54.8848 1.65072 51.1883 1.63651 47.4895C1.6408 46.8567 1.88443 46.2489 2.31863 45.7878C2.47218 45.5399 2.59018 45.2718 2.66917 44.9913C2.39983 44.861 2.11487 44.7657 1.82125 44.7077C1.23386 44.6628 0.637002 44.6935 0.0117188 44.6935V43.2754C1.22202 43.3392 2.45127 43.299 3.63552 43.5117C4.68476 43.6914 5.17741 45.022 4.53081 45.9225C3.91026 46.7852 3.84158 47.6786 3.84868 48.6594C3.87 51.9683 3.84868 55.263 3.84868 58.5648L3.84395 59.2785Z" fill="#5C2483"/>
<path fill-rule="evenodd" clip-rule="evenodd" d="M55.4228 59.2621V58.6145C55.4228 56.3999 55.4228 54.1853 55.4228 51.9731C55.4255 51.5592 55.3778 51.1465 55.2807 50.7441C54.9017 49.2527 53.7032 48.6548 52.2016 48.8084C51.7718 48.857 51.3485 48.9521 50.9392 49.092C50.5532 49.2196 50.1884 49.4205 49.7218 49.6309C49.7218 48.9715 49.7076 48.3522 49.736 47.7401C49.7533 47.6683 49.7862 47.6012 49.8325 47.5436C49.8788 47.486 49.9372 47.4393 50.0037 47.4068C51.5716 46.6387 54.9372 46.5324 56.4578 48.3522C57.237 49.2811 57.481 50.3541 57.5023 51.4791C57.5497 54.008 57.5165 56.5393 57.5023 59.0706C57.4943 59.1425 57.4809 59.2136 57.462 59.2833L55.4228 59.2621Z" fill="#5C2483"/>
<path fill-rule="evenodd" clip-rule="evenodd" d="M68.4495 45.5985V44.1001H78.1887V45.5985H68.4495Z" fill="#5C2483"/>
<path fill-rule="evenodd" clip-rule="evenodd" d="M99.78 45.5063C99.7516 44.0315 100.377 43.3508 101.751 43.3225C102.378 43.3083 103.004 43.3225 103.669 43.3225V44.7405C103.25 44.7405 102.838 44.6602 102.485 44.7665C102.182 44.8564 101.945 45.166 101.677 45.3787L101.77 45.5205L99.78 45.5063Z" fill="#5C2483"/>
<path d="M122.489 53.3391C126.724 55.3055 130.942 57.305 135.172 59.2833C135.407 59.3827 135.661 59.4311 135.916 59.4251C139.128 59.4251 142.342 59.4251 145.556 59.4416C146.093 59.4416 146.221 59.2691 146.219 58.7609C146.198 55.9507 146.219 53.1382 146.207 50.328C146.207 50.1791 146.181 50.0302 146.16 49.7986C145.906 49.9144 145.717 50.0066 145.525 50.0893C142.562 51.3538 139.559 52.4197 136.25 51.999C134.98 51.8754 133.785 51.338 132.851 50.4698C131.193 48.8792 130.684 46.8088 130.646 44.6462C130.638 42.8362 130.755 41.0277 130.997 39.2338C131.235 37.1144 131.808 35.0459 132.695 33.1053C135.158 27.7922 138.694 23.252 142.92 19.2482C144.317 17.9247 145.968 16.8706 147.5 15.703C147.656 15.5627 147.858 15.485 148.068 15.485C148.277 15.485 148.479 15.5627 148.635 15.703C149.857 16.6082 151.155 17.4236 152.301 18.4163C155.247 20.999 157.852 23.9437 160.056 27.1801C162.296 30.4133 164.191 33.8167 164.914 37.7543C165.439 40.6307 165.861 43.5141 165.316 46.4354C164.568 50.3635 162.258 52.0132 158.684 52.1077C156.934 52.155 155.229 51.7745 153.576 51.212C152.391 50.8054 151.221 50.328 149.975 49.8553C149.975 50.0255 149.959 50.1413 149.959 50.2595C149.959 53.0697 149.978 55.8798 149.94 58.6924C149.94 59.3234 150.146 59.4416 150.724 59.4392C153.838 59.4132 156.951 59.4392 160.065 59.4132C160.475 59.4065 160.878 59.3139 161.249 59.1414C165.34 57.2388 169.418 55.3126 173.499 53.3935C174.328 53.0035 174.326 53.0082 174.101 52.129C171.824 43.2423 169.545 34.3548 167.263 25.4666C167.183 25.1471 167.019 24.8544 166.789 24.6181C165.866 23.727 164.895 22.8714 163.947 22.0064C162.146 20.3693 160.342 18.7338 158.535 17.0998C156.129 14.9223 153.719 12.7487 151.307 10.579C150.359 9.7163 149.395 8.85599 148.464 7.97914C148.149 7.68843 147.92 7.70262 147.619 8.01932C147.226 8.43293 146.776 8.79454 146.349 9.18216C144.47 10.9059 142.583 12.6265 140.689 14.344C138.677 16.1639 136.664 17.9759 134.649 19.78C133.178 21.1036 131.686 22.4058 130.234 23.7507C129.654 24.2872 129 24.7457 128.777 25.6249C126.538 34.51 124.272 43.3841 121.977 52.2472C121.835 52.8191 121.942 53.0862 122.489 53.3391Z" fill="#F7A823"/>
<path d="M114.162 0V67H182V0H114.162ZM173.516 53.3982C169.435 55.3173 165.357 57.2435 161.266 59.1461C160.895 59.3186 160.492 59.4112 160.082 59.4179C156.967 59.4416 153.855 59.4179 150.741 59.4439C150.163 59.4439 149.95 59.3281 149.957 58.6971C149.995 55.8845 149.973 53.0744 149.976 50.2642C149.976 50.146 149.976 50.0278 149.992 49.86C151.238 50.3327 152.403 50.8054 153.592 51.2167C155.25 51.7792 156.951 52.1621 158.701 52.1124C162.266 52.0155 164.575 50.3658 165.333 46.4401C165.887 43.5188 165.456 40.6353 164.93 37.759C164.22 33.8214 162.325 30.418 160.073 27.1848C157.864 23.9362 155.25 20.981 152.294 18.3903C151.148 17.3976 149.85 16.5822 148.628 15.677C148.473 15.5366 148.27 15.4589 148.061 15.4589C147.851 15.4589 147.649 15.5366 147.493 15.677C145.961 16.8587 144.31 17.9105 142.913 19.2222C138.687 23.2259 135.151 27.7662 132.688 33.0793C131.801 35.0285 131.23 37.1059 130.997 39.2338C130.755 41.0293 130.638 42.8393 130.646 44.6509C130.684 46.8135 131.193 48.8839 132.851 50.4745C133.786 51.3401 134.981 51.8749 136.25 51.9966C139.566 52.4173 142.562 51.3514 145.525 50.0869C145.717 50.0042 145.907 49.912 146.16 49.7962C146.181 50.0326 146.207 50.1767 146.207 50.3256C146.207 53.1358 146.207 55.9484 146.219 58.7585C146.219 59.2667 146.094 59.4439 145.556 59.4392C142.342 59.4156 139.128 59.4392 135.916 59.4227C135.661 59.4287 135.408 59.3804 135.173 59.2809C130.942 57.305 126.715 55.3055 122.489 53.3391C121.942 53.0862 121.836 52.8191 121.985 52.2471C124.27 43.3825 126.537 34.5124 128.787 25.6367C129.01 24.7575 129.663 24.299 130.244 23.7625C131.696 22.4176 133.188 21.1154 134.659 19.7918C136.673 17.9782 138.687 16.1662 140.698 14.3558C142.587 12.6352 144.478 10.913 146.373 9.18922C146.8 8.80161 147.25 8.43999 147.643 8.02639C147.943 7.70968 148.173 7.6955 148.488 7.98621C149.436 8.8607 150.383 9.721 151.33 10.586C153.74 12.7604 156.15 14.9341 158.559 17.1069C160.367 18.7393 162.171 20.374 163.971 22.0111C164.918 22.8761 165.885 23.7317 166.813 24.6228C167.043 24.8591 167.207 25.1518 167.287 25.4712C169.575 34.3579 171.854 43.2454 174.125 52.1337C174.343 53.0129 174.345 53.0082 173.516 53.3982Z" fill="#5C2483"/>
</svg>
