<svg width="61" height="61" viewBox="0 0 61 61" fill="none" xmlns="http://www.w3.org/2000/svg">
<g clip-path="url(#clip0)">
<path d="M30.176 60.352C46.8417 60.352 60.352 46.8417 60.352 30.176C60.352 13.5102 46.8417 0 30.176 0C13.5102 0 0 13.5102 0 30.176C0 46.8417 13.5102 60.352 30.176 60.352Z" fill="#F0F0F0"/>
<path d="M58.475 19.6802H1.87692C0.663872 22.9492 0 26.485 0 30.1761C0 33.8673 0.663872 37.403 1.87692 40.6721H58.4752C59.6881 37.403 60.352 33.8673 60.352 30.1761C60.352 26.485 59.6881 22.9492 58.475 19.6802Z" fill="#0052B4"/>
<path d="M30.176 0C21.0299 0 12.8349 4.06951 7.30103 10.4959H53.0508C47.517 4.06951 39.322 0 30.176 0Z" fill="#D80027"/>
<path d="M53.0509 49.8564H7.30103C12.8349 56.2829 21.0299 60.3524 30.176 60.3524C39.322 60.3524 47.517 56.2829 53.0509 49.8564Z" fill="#D80027"/>
</g>
<defs>
<clipPath id="clip0">
<rect width="60.352" height="60.352" fill="white"/>
</clipPath>
</defs>
</svg>
