<svg width="61" height="61" viewBox="0 0 61 61" fill="none" xmlns="http://www.w3.org/2000/svg">
<g clip-path="url(#clip0)">
<path d="M30.176 60.352C46.8417 60.352 60.352 46.8417 60.352 30.176C60.352 13.5102 46.8417 0 30.176 0C13.5102 0 0 13.5102 0 30.176C0 46.8417 13.5102 60.352 30.176 60.352Z" fill="#D80027"/>
<path d="M28.9404 24.6587L31.4164 28.0706L35.4262 26.7704L32.9463 30.1794L35.4219 33.5911L31.4136 32.286L28.9338 35.695L28.9364 31.4796L24.928 30.1745L28.9378 28.8744L28.9404 24.6587Z" fill="#F0F0F0"/>
<path d="M22.1834 38.7047C17.4736 38.7047 13.6554 34.8865 13.6554 30.1767C13.6554 25.4669 17.4736 21.6487 22.1834 21.6487C23.6519 21.6487 25.0336 22.0201 26.2399 22.6737C24.3475 20.8229 21.7593 19.6807 18.9034 19.6807C13.1066 19.6807 8.40747 24.3799 8.40747 30.1766C8.40747 35.9733 13.1067 40.6725 18.9034 40.6725C21.7595 40.6725 24.3476 39.5302 26.2399 37.6795C25.0336 38.3333 23.6519 38.7047 22.1834 38.7047Z" fill="#F0F0F0"/>
</g>
<defs>
<clipPath id="clip0">
<rect width="60.352" height="60.352" fill="white"/>
</clipPath>
</defs>
</svg>
